<mxfile host="app.diagrams.net" modified="2023-02-01T10:07:44.384Z" agent="5.0 (Windows NT 10.0; Win64; x64) AppleWebKit/537.36 (KHTML, like Gecko) Chrome/109.0.0.0 Safari/537.36 Edg/109.0.1518.70" etag="vrA8zJyFVv1eispxAxYY" version="20.8.14" type="github">
  <diagram name="第 1 页" id="6uhROgp2CdsRBQuzE8EJ">
    <mxGraphModel dx="1387" dy="834" grid="1" gridSize="10" guides="1" tooltips="1" connect="1" arrows="1" fold="1" page="1" pageScale="1" pageWidth="827" pageHeight="1169" math="0" shadow="0">
      <root>
        <mxCell id="0" />
        <mxCell id="1" parent="0" />
        <mxCell id="ptZlQ6mGTicB-fKNkLHr-6" value="" style="group" vertex="1" connectable="0" parent="1">
          <mxGeometry x="40" y="160" width="374" height="367" as="geometry" />
        </mxCell>
        <mxCell id="ptZlQ6mGTicB-fKNkLHr-1" value="" style="shape=image;verticalLabelPosition=bottom;labelBackgroundColor=default;verticalAlign=top;aspect=fixed;imageAspect=0;image=data:image/png,iVBORw0KGgoAAAANSUhEUgAAAXYAAAE9CAYAAAAfwUnKAAAAAXNSR0IArs4c6QAAAARnQU1BAACxjwv8YQUAAICXSURBVHhe7b0JoGRXVS687tS353RnntMkITIEIUAYBRIBBxQB0QeKMijvPfDhUxye8D+FgKiA4OxTFBVkHmQQQQElIXOYEiBARtKd7nSn53m6U/3ft/Za+6xz6tS9t0Pf27eL/XWvWuPe59Rwvlp316lTAx1ACgoKCgr6BoOmCwoKCgr6BIXYCwoKCvoMhdgLCgoK+gyF2AsKCgr6DIXYCwoKCvoMhdgLCgoK+gyF2AsKCgr6DIXYCwoKCvoMhdgLCgoK+gyF2AsKCgr6DIXYCwoKCvoMhdgLCgoK+gyF2AsKCgr6DIXYCwoKCvoMhdgLCgoK+gyF2AsKCgr6DIXYCwoKCvoMhdgLCgoK+gyF2AsKCgr6DIXYCwoKCvoMhdgLCgoK+gyF2AsKCgr6DIXYCwoKCvoMhdgLCgoK+gyF2AsKCgr6DIXYCwoKCvoMhdgLCgoK+gyF2AsKCgr6DIXYCwoKCvoMhdgLCgoK+gyF2AsKCgr6DIXYCwoKCvoMhdgLCgoK+gyF2AsKCgr6DIXYCwoKCvoMhdgLCgoK+gyF2AsKCgr6DIXYCwoKCvoMhdgLCgoK+gyF2AsKCgr6DIXYCwoKCvoMhdgLCgoK+gyF2AsKCgr6DIXYCwoKCvoMhdgLCo4FDrzBjIKCo49C7AUF8439IPX9V5hTUHD0MdABzC4oKJhrjF8lsuvyZJ94j8jQmmQXFBxFlI69oGC+MLm2InWiLMcUzBFKx15QMF/YcgmOuFvMMZSuvWAOUDr2goL5wM5XJ1IfONkChkPvNqOg4OihdOwFBXMNLsHseBCOtqUii54pMvZ5kc4BSwKlay84yigde0HBXGOTrasPngNCRx81fEnyCbZVpWsvOMooxF5QMJfY8jKRUXTsxPBD0LUP4Kg7GR36uSkGVw5cUT5ILTiqKEsxBQVzBV+CIYZ+IBE7DzeS+9QBkYnrypJMwZygdOwFBXOFdejWHezSCZI6MbgUck6yHbsvT28GBQXfIwqxFxTMBfZcK7LiqmTzQ9OBk5LNjt2FXXwkd5J6WW8vOAooxF5QMBfY/mwzAJK3d+rUUYYfDQ3id5T19oKjgELsBQVHG1v+TGT5LnOAwXOtS4cdO3YKg8NPqpM7ryPDSw8UFDxAlA9PCwqONjYuERk5lGw/d70XePSxmZ+8F3I7/PJhasH3jtKxFxQcTdz7morUCT93vZeQ2alZp0s2oXPndWXKh6kFDwCF2AsKjiaG/9wMA5dh4vp6m3Y0P0ydAqmXM2UKHgDKUkxBX2Dtbkp6Ka/dw9uOrNsLn9wJWbt3Kus1JzDYkTUrofH/vBX0U92a5cles3xQ5Yiw7m0iS3/bHIDd98gzzDkCTNwOUoc4Ri4TWfFPZVmmYNYoxF5w3GDtLkpHvrgu+VfdO5AInUQ+wOUMErlptRGPsTa/Ni76IHcSPvzLThtBoiNPO3VE1iwblMtOod+CO88QWXW/OQA7cAo7cx5mvXQbuN4+tR55W3Mv5F5wBCjEXrBgsXZnR95985RctbYDQYBEiP9dukbI1IyZ7XEj66qmh9+Wq9kQzJ8IfpE87SSS/ZBctmpj9S1ThxP7kSAS/uQd0IHcl14hsvglR07ut94gcvETzSn4fkAh9oIFg7U7QORfnZCr7iGRG8FRBsmsgGrz1aRORJs0x5ifbeoefoOsW+u7chT3odHJU3/rrGfKw866lYEKo89JBP29oLNNZOKWityXgdxHj4DcSeof/hORN37EAgXfDyjEXnDMsHbHlLz7S+Ny1d2TkCkQJBiSpO3ixK6CAUrspnOcxAppEnCToHOMOtTNxs/ztMStvnPpmXACHuj6euzYXXcOonu/HvoIO/ctG0T+5xNQh8f2b24SOSV8MFvQ1+BLuKAPMfbRfzdr4eENnz4kL3vvAXnQFfvkiv8YS6Tu5K1iRq+YB7NJO/q9BDe1umi3CW6olehNux383xr5GxgN8BICHH+k8DFR87oyfJPwM2b47dTD7575bJkvoEvnm9AQ7Ks/nGIF3xcoHXsfYt8Lfx23U7L8g3+RAgsAa7dNyrtvOCxXfBrdZ+zMlbhcEK/5EDIotZrULuYPstOnjZdxr46bWm3Es0090zj6cX7TuSb5N5/+I/Koc74FJ2DwB0SGISjTuqw5DkbU9QLINNAPVe9I9nSd+5b16NafmLr1Ycx5+lkiv/txkZNL1/79AL5UC/oIe1/wapm46RaR+zZZ5NiBZP6GT+6XB/3OdnnQa3fKFf8GUndSVtBuCsNma14LAY8ls1ZL1GJNMcN9wu0ZBTfNmBK86043qRNDdtEv1tW0GVHTrOkgRNT8MNYvQTBd5/6Fj6IWhO6y416R266zZEG/oxB7H+HQh/9Dxknq6PqmZmj85hJrt07IGz++R87/zc1yxSf2KcH37kQtTjXTH4+e1lozamO6CgzR7xUnevkQdunRN3nz0j+AboH/tinLatqMqGnWdBCiqbnMM4RunJrXldn3593kfuWH0j678C+MT71VZDsIvqDvUYi9j3DoL96Lps46vU2b8Se7EcE8YR0I/U3/sksuevVGJXbdj6Yo3Dc7+y6Mp7DeeEwl+sF2qB3iTeFN9mlHv5fgxuu0S4dhy0M/esIXEZgGHFPTZkRNs6aDEG1aP5x9MvbjIpHxvwPBB3LnMsx2CPeV6+sU2jtB6jd+AEZBv6MQe59g/9vfJRMbNiUuh/Cjk8mbvpqSc4x1W8flDz6yXX7gV9fKG/9lJzaPf7YfVbcZ7LSDZhOaTMK4p1SHmIob0Y4xu9ExFtcYYX7Mx7qM6Jud5zJNmZyUi0+29e4Ikq7WATp/Ux+BENNpPVf+USJjIPedz0vkfuVHsA/I8fMH7dipTT79R2lZpqCvUYi9T3DwL96HRg5PJw9k7dDQ1U3gQJ5D3LtlTF75V/fJw3/lbvmDj27H9gesMWVHmVTVZbptMl2cJqGhEHPfC0ypUatxMSP6WbsdfCLHXHDTaousGVknw6MTcJoAsef5fEzUQYiZ9EzwpRnBm8yOHxdZ/5/pyFYhwUN71079pffjpqCfwae64DjG2HW3yK5ffYtMgjVSpzygXTv+y/iNc9exv+WD98sjXnGbvPdKXnecW0u3yQKyY5Fsm+/QUEuciLmcNr8G5mONI9Sq6XaIK2B7Tm0z06BkKkIN5E9PeWNymxhYgrTV+n7VdBBiJj0b8K+E4afjiMab+c9+TuSkccQwXokd4jb15/5Q5O5rbGBBP6IQ+3GOXb/5dhn71FWpucOzOYBO3dfZJ778jVR0FHHdN/fKJf/9VnkziJ39uW7XOstkJltjKWm+3WhcI4DZXtsVp5hBpaAdfOqu8YDaIa6iQYu5HXwNmc528LPgZpJECbsX8vzQPibrIMRM+kjApZnlF4i85pDIyZNpH71rp+YZMtQf/Z8iO+2iOwV9h0LsxzH2/vOnZXzjNnCM9urSwXE81ZlSewqx8a99S6au/5JVf29Yv/mwPPc135bnvPY7sg42qCFtE4Z/FSLadJLtvt1okQfMTgOTrfA4hbb5CvctQJVr1NFwUiGe8yGuZshpzON2U8trJtmTE/KEFfyqv8VqsI59NkLMpCNmM4YfqC5/hMivHRY5cQJvEIyhk4+d+661Ire8N40p6DsUYj+Osf+vPyKDdnZGh92d2gPJ1vX2ATl89Vdkat0GG/HA8Pb33iuXvuyrcj26dc7ZXEv3Ll03qxZgdTmiigWUHEjK6yyUbRXa5ityQr2kcON1HleEWOscVK7dNl8BW11qt+nCmJqS01dsrWI1eL0lZ9JHgtnMSRk8WWTV40VeBWI/kaSOXBYQO9far/p9EHzp2vsRhdiPU2x7/m/J+Kat2q0TVFPsxgB264zz7PGD73y/HPyTv9P4kWL9/Yfk8b94o7ztveswP+eGQNO2rep/71qDCaPRsStgM9YIaUxzGgHMVnHD0fDVtFgIJzAWgtmkYY7HNBTiCtjqUrsNTE7KmpHp3iy93gbMpI8Es5nThX85nHCZyG+tBMnj1aDfokVcO3ezP/XLIrtbvuBUcFyjEPtxiIm1m+TAV2639XQEtEPDsYxOsaMNm3VtCE4NDMnBL3/7iJdkPvLZjfKkX7xeNmw+pE1pnhPiHTtvdTMUUylDI9XlpAI2Yzlktsba4hQ3RNYMrYWsk8tGvqi2ItaksgDGQjDb1Garwo1uP8QVIab5FOWn089d/p/mtMHrbUBT+0TZPwL0mjPqmiDG0yF//Uw8gFxzJ7Ej5rL+iyK3/jOMgn5CIfbjEDvf+p60lg7hivqk2UIfndoEjl2eGcOunfbk1q2y7+1/b6Nnxgtf/SX5zbd8i+8UKqkBzIba+V+Ou8INYXWaUJ/CApMUMGUxs9cMrJXXL36TXLnymXLP6gvl9UvfKJ2Th+WeEy+AnC9Xrrpc7jnpQdI5ZVBjr1/yhjDeRMGYORqnb9qLVDFOoWmaUNsczZmMT8jFi8MvHHXBxuWxDe0byH5ArzFRH5HYGK67v+gckYt9zR2iXTvkhitE9pSuvZ9QiP04xL5PX4eDchDdeRJ27slmh4anFJq+27iRA9+4UyavvTFN0AMb7j8gT33BlXLjLTt9mIo3fgo4ya/+pSJNqUeorY5FqFKAhombyb9s5Br5p5WvAGk/RK5Y/vty2Sg68+F1csWyN6ZXqg8ze21njbzr0Evk3YdfYnOkuM9XiQM2cznviL7bkJ51A3LS6E6NtMPG+D4dCXzMdHo68ZqaTkrPmPnxNSIPB7mT2P3cdsrnX8aKgj4Bn9KC4wh7/vkzaMI62qlrv45ujF16EnTqjHcG0K2nM/KSnfxtv/0Wmbi7vTP72Gfulct+9r+U3Nnmscnzji913gaL8cb/WVEShY+nWCzaVr9mkL8OJOi434zO/GJ04j8uL138zyAirzM4MVEHuXz7f8ob9r9O1k6CrMLUuh2VFMqahsdrwhuzFTBa6yD80pd/UaAn7LrpPu+RIO/LNHo68ZqaTkp9du7POF/kyYvwGNI32XiVyFfwl09BX6AQ+3GG/R/7Am7RJ4PYuIbNNXU/I4b+FJ5S+mm9PcqgjG/fJQf+rPuD1Be/6hp5zR/enAiTc+u/ZOt/jDcvNYHqphqv1Zpch3/JzLFUlMw1Qxvk9cveJvec+Gh0549Cd/5m/RanvhrbhONcm7xs59/L2vFzQLTjkDGQLT8qtg1Q6/64SyOKA3bOUbkdhQi2EuiArBrcm/w2+A9i+H0/EviY6fR04jU1nVTWQyD3R14o8qQl1WPM7v1rvKBYWZLpB/ApLTiOsPerd8rUFHp1dI16/jqEa+y6tg4617NhLMf4JGqzDb3js9fJ7t9/u87Fsb/wiivlpq9sVls7O2jaXZ24x1v8XnE4OZZE5LLhG9CdXypXLH0riAZd+xAIXa9jgiTelloRiGntxHly+ebPyrv2vAh/kqB+koRu7KTbBML2kkTfdUudduLBr9km2rGLnL3YfrSasV7w+d3upY+m+Jw1nVS6D7ihDJwt8rAzRC5enB5fl7vejZuC4x2F2I8j7Hvff7BZlE44d53HKq8Rk45dxtm18xhGrsN47OAHZWpwULb/+7Wy6ffeKi955VXylVu24lWQum5FmkJ9FwWCKZ4ibqtmTqOAxitJSN7rl/6JXLn6+ZmH8xkaTHssDm7IVYefKg+67zuq8+cHw6PoNocxNhQyngcSbXYUh/npwQQavj74asi+zlIN1YZnHDQN6L7MoKcTr5lOHwk4xMdxWebRJHjr3Nm1fx1d+3ffpemC4xflF5SOI9z3U78le2+5E9YUeAyUjU4Xvbhy2gBsHq7olfmspqZMj18auGUAB26HORDq7qFl8uXRs+XPh35YpkCMZw7ukrOG9srjhu7SNw59MxiCKOFSD8j6wVNlnZwm6zpnyNqB0xEbkim+qVDjDWMq+gND0Ihh7stGb5Knjd4oV6z8U8yFtx390C5o/SAP4sTe1JCrDj9FLt/yH8mxmBL6Igi7/fwmwfmoLaa6xc921M14i3+QPxbSkZsv+Ql51EnfRqAHeN0Wv8ojn4jp9FxipvmZ7+A1hb8EZSN8PJxywhqRp18psmyG31QtWLAoxH4c4a5zf0rGQZzsyQcGEqGT5AdANE7spHoNA0rieHrVBzGRpNl00l4xclD2jozKrkWLQebfTcTl1xGpaRJwd+7egVPVvmbykXJN5xJ5z/hPJiJ3QleyH5IXL/m4vH7lX8iaReur+Uis/Mk2zhe3pwTM/atrJfXN/w4bAZIsNeaWkZEwzuZQ3fRb4hqDX6tp8Zvj9x9QffOjnzUDsfNXjuxXlL4X8PD8nt4YmPd6c2uwPH9u70qQ+xhcPKzyCHTuD309CwqOQxRiP05w6Itfk7t+gWctoFMHOaKHVjJP3TujJHimEYPBzp2uEj3zkJUjB2TV8CFZuuhwIisnWmon16hjvpmrjceGoNehi3/P2LPli5OPlSsnniAvXvZJ+cdVr2mpj75rzMEdprgNfdWhH5LL7/+M3qckqB1ZhDEkdfM5hxPvjD62P6u6ljj3af9+jX/8Yf9DnnvO5xHoAX4piD8+PV+H14xEz/gM+cN3idwEcueViNm5/+g9IktL1348gi/dguMAh+66Tw/c1HWT0JJOwgqlel0KmWLMbHa3K4YOywWj2+XMRXtl6TBaMtYraZmOdtRZcNNW05DzhjfJ7y5/h3z+xJfLxOkPB6m/trWuS3w70YdeO3UuSP3T8BHwvK6ps6V0+OA2cUQ/5mcpurZej+2aOgF6GnS2J637Po14zXR6Noi1rcN8zsqsA8HRB4s84UK9EoE+1jddLnKwnCVzPIJPX8FxgL3Xf0O7784UenM764UncaQzXrjSTt9sjYusHtgnDxnZImcO75GRQV4rBBNp5wlhh6baYXbMqcQYCyyu9RTCY0CuDdLlA9FvEo35L9v8N/iTg/UQVUgM4iWL+5hiHndpiz0AQVOftdvRx4P7rf0gwekwtT7pvE89xGum09OBNVE0lm/qORVP6U2K0fb8CO7XxScmcj8EUt9YzpI5HlGI/TjBgZvvAK9Zhz7Ibtw6dWjaFP7YBvWqwcNy4cgOOW34QCJJPsta2yLMqcDxurb6mGsTbDdp94PM5LfIFTteI1cd/KHkk3A4/wi69QwvJtz+HiV25rFDj3GVQdlw8EzoGcDz2bnf0wkxk54JrXU+R2VmrQh5h9vLHy9yhp0ps/aKRPAFxxX41BUcB9i7ZXd1fno+jz2dp67nsKMhHx0Yl/OGdskZQ+jQB9jDWzfWJrl7domtKcRzsaZW3xQbH8f1FNS63YKrDjxZ3rDt/2BK1Om0YJzhRdCobxN29WqzltLwm3n3ObcKbcY877olrufOT8kHN/0EHIDxXmDXnvelhxDT6mC3CfNtdk2mGe/SHHv640TOBrmT7DeXrv14QyH24wCHb19vTSOoWoWdOXkmaV4y4NSRA3L+yG5ZNshPvnA8Is5jUm+i8BnXDx0bcR+geYvVtOVdYk4FTq1+BmnWhLFv2PE7sOkwBpIhqWf4gAiLeVfd1DHfK9eMNW0X7iA/u4A+NI6/IBjqhbjOPp2eFqG2td7z+SarhNnkQyC7IPVTzxJZBr0eXfvWcm778QS+QgsWOA7f9A00jmntPDWRPAcmrakvGZiQi4Z3yKmD+LPfuy3vvgjtiiHUahMWI1rzRIjHvIrlPdesI3Jtm7DAdCaSpN+1+4Vy1b4n4U6iM+Z90A+AkYCZxIysoQhze4p34W2iOdtGrNN3T4rZjPFJ0EtmduS2PRcgMA1I7FyO8eeil25DrIniUDvmYkwLHkCeYrbe4P6dc2Y6/fG+N4iMlSWZ4wWF2I8DHNh1QHlHu3P4rhejOz9/eI+M8hRCAvHU2PEboTQYw01bhz6bNXUfV8s3YloXbN2e+VFqNUE35A1b/o85hqHQrYdwNchhtpISbO2uqc1vk9yFBz1TXHc8yS17HgY9AzobMJTjgF66DdPlCM37PEkluDNTnoAdypJu5EcuFDkDnXsHpL69LMkcL+ArtGCB4+C6jbqeznV1duoT0OcP7ZELh3Yj20GTRfaCKInRtBi7Yw0egXhXrQjxmG+zm+LzuHgs6268a9cLZe1hkIh36/xmqQ7BzUwS18KzNGLpzx0I7RinDvEonnfhXxC6zt6Rz269DIEZwC/+TO1PNrfR1E27Kb6TbTlKzLXV9czTDX7X2JBf/HCR5UtENl9RuvbjBIXYjwN0tu4Ep6T19BEccReM7JMV6Nb1G6fIp2u1pOu2KKBzQ5fFgt5wNnOt8SAxn+twE/Ou2/Iurev7Sd6w+bfMMUIZ5LdkCMYcPqAJj7dI7MB7xd2OdTGmgjvGfbKv8H5ww7PTOvuM2GG6BXyMHNHOYAxiqhsh7+iqm0XeQbMtf8JjRUZB7rtL1348gIdgwQLHoUPjIPYpGZZJOXsIpD4wjihbKgfPf6HvEmGx2DkrPA5V66A9HvMhnvNQPqfn8/yNWJRcV8dV+5+UunV+c1ZJnRe2QcK7RkKV+6bVjDaEnbVrt6O0xrHDbXnVIafEbnF0/7ftnmGdnWDX7pfy1cFU0FE8FvO0c01y7SbFeuU9pzaVa4jG3KFN5drt7CSlGqR+wpki29G1j5eufaGjEPtxgEPjEzIMMjxn6BA69cnUCJskAjUbTvqnZpLcPbvgxuNduUasbWzXONxkGxLzXeN7xCAP23OfnNTZa0QC1L5dCni8FZzEQBKm7zqKEnSPWJSYa9ZwKUZtpNC5v+XOX4ExA/QDVP/xa4x1lZ60BkLe7Rpa8rUyOrXA9Pno5nAj7xjGm9hiEPyW8mtLCx08zAoWOIZ375EHDx6oOnXranUd3bsr0/5PYzMKMcu4HuCNWBTvxntJLd+NU3cckN8b+Wuk2QqTPKH0PHYYun6e7nOyg+4VU59zBEEozduItdm9xPeNZ8fwfPZ1Pzn9cgxrCV1rD2cuMR73tUtCnk4tF2S6HP7rjfvT1rqwrBnTYNKjj+FpWiL7yumPCxmF2Bc4JjfcL2fffbss4tUbQY7kV22SacNIDbMGtF7z0WC8dV27LWZxviq64pC2eIy1nn1DbfFe847zKmID8tKhf5WTp3bjnczX1hsgv2T44BZ4d51rTJrxNj/Ge8kA95dLRXr1M/mP+54G3QMoz8hdewDz9tzVah0e07pkJjSKZ5N3qN0YMFPeMYiOffQMkX3vEJkoSzILFTzUChYoJtdvln2/+VZYJHR2TIzyxhgOHZQ2VJqzmOfYIetxSd9zgMY99r3GaXi+YedxZvcC59ixWM0TJvfLX6x4Ezpb1Kc7ZhrSjNHwXLTVdW3i3XZPHzuhMWqIx5raZWAEGkGTt9/xP9IVEVkXpYmOr7Uj2dxfQpUGUqx5Pyhu6BhqD5ntgenynlPbTdoey8Gscp4ydL7I2C3o3K9ComAhohD7Asbe33ybTNzw9dTQkU9cUrrycZO7d73xJHVTcNOaY4xifq27DvFpYxZv68wZa4tT9tu56rCfPX69PGfxZ5JPQukCgyiMObU5kcMm9g57Jj/G1bYdtbNfKm3Cywb7NkH01257vNx/4BQGutG8D50bIfyxDtiUViAxm3wNjUB01e4aUCHnW2pyGDd8bh0jjxXZ80Z0H6VrX4jgK7hgAWLfn7xXxm9AV0Rm8E5JWaJaQ9cQbRi+3p7PaT8aEjvxWqxFcoc+k3Sjsw8dMFLc9eUD++S9Y78rlwjuO9fVtSt2bUWuZxRODunq0IPfjMd8m0/hYTMwnNbZmYd+y3deWc0znUyB1Kc2wIajMeooLTEGsz9TnhJqYi7bR5Dvyrk/mh6LsdK1L0QUYl+AOHz9N2U/iF2b4qYgn3Tq0DXC/5qodCUWrMW+xzhfNW3xmjAGYW2tviFjQ1pGqMbN8qEDcvXgi+UfV/1GSmSQVEwH1QrPscP2jbV13zk+C4m1i5cnTXLDtv7s9pfLoYnGh6i99o8/RTd1V7JtWoVrhSVibLq8uVWACHY2Z5FvrTX480oMno+u/Q2la1+AKMS+ALH9Z38Ht2SFhnjnBPGuPYkhmBWsJh+jPibENdeIZ5ifO3LHA4m3YMfidLcc1hEuH9gvLzv4Sdl5wsPlpUs+mOPdUo2p25Dc4SOuBIw7CjcJbI/nfMOPkuupIXoNG19rTzWv/cprwvwQIvpRpkDuehqk+bxxrbaLhTwW86o9FGIeV212M6+wmIbM9pjCbA27beIYx2NxqHxpaaGh/DTeAsPW5/9/MnHjLTI0yN80TTI0yJ+/gx5Imj9i7b9xqr+VBAJ1rUchf2rOxX+KTu0e8ZjritPHtPyN0lqd6a54j3r9jVPd4bq+f5nIFnS/rKNvJ5ykcW6LHBhcIuMovUPOl/UDp8s9cp7cNvlg2TF4gtyw/wmyqXM65uSkgHaVbZqCeVVgcxsEtcf4+HE/CM97zvM+z8S4yP69lQ/j4M9dKIuHD7Owgo5rwcCJ2MYPwliSfIVt09FwH1Ce29fDXA1IwEx5B/N8HJt0QX/kuyInXonnqvyM3kJBIfYFhEPX3wpif40Mk9QhQ07sTuggzUFJRB+JvCJ3HntGqDVSpR3i2ccA/1HpnnVuW9z9I41TuIMkTYrbd67SD0955iDPIuygXr8DBOEytvrUGK9nGfJMSMQ60AOI6bjhjhwYXiyToyIbJ0+XHcMnyOcPXCbfHHuEfHTH81CAjaUHB8L98H2BJpHp/ljMfcJjWTMY6qj37RGZrL4J/OsP/Uf508fzt2lbwHqW6XjD4IXwIRlpnoyG25r3eRVHmHf0Im5HV9x8qs4mkZPxV+bil6ZYwTFHIfYFhM3P/139wFSJnYRODSInoSeSjx07idwEx2MmeooSapOg6WMjXUTcrHO7hZjVb8Zt3jiP5hpxxkiYLiQb6jtXg9hHrBbimvVK4hbjHEbqqtt81oHk1VfdkUNDi2Qjuvm3b3uV/L/Nr0AC0O0jnwm7l4aQuWLMfYJ67BDeke0iX8zhcNr03x4jpy/barEA1qMkj3d0kTvBwgAfl8O98l2FdTzQfBdNmO/h4S0ip91qTsGxBl/iBQsAez94pRy+7pvm8WiB5GPJDYurmZNAc829nqv8ljiPYUqtpqWuGSfRZT/EaWvO7Czt6BzCSzCUpD4D98Zi7seabOM9I9u1HG5UREY7h+X84bXy12f/ltzx6IelOMep4I5Pq9uEOQi3Q39wEe4v3pgm4Og1lUV+9sp3pBxrZiOTd0HuTE7z/vp9iblp8wRtNy2e6zSo/5MZcrV8M27SjLuM4TEoH6IuGBRiXyDY9bYPKcHiP+DnpJt4NMZwQ22pZNPxWBbGKD3ijtYaj1NmG28KbmKdw/wBfuvU8wzRhpPOxzethZquoHHqpGrwMWEectKDh++VJ668UUv0w1DW6AeqsxG+AVHMV3KHcH1oyYo0l8m1Wy6VT9z7o7CPAJ27IRvTFIRPVxl1zCafMUPeH8vvBQMniOz4VXMKjjUKsS8A7Pjjj8jE+s2wwD6hM9J/7IZCTONZGOZNStuNQZMpnwo1WvfbxNErZ3bPORy94nWkaXBfrMPt6Lnhdr+nGE9+bRq1zeE4h9dwHLQ+RhyPTjqVd2TT4dM0rwGO9c466pqA9LpiHrccD6PFIHd27JSJjrz6+tfLrsMr05wurI3baMYm8Beb/+JSq7C2GdOg2W15xKbLa7oRaxM+Zvm5aNguB9eXrn2BoBD7AsDOP/4wGij+S81TajiDTw3xZOrWKRbTXFIZjKvQdt/tKLhpzTFGMT/dVH4W3MxmfFMMLOFN0jT1pksrqMAfSVssT+Ya4Dgq/tPxGlK99qCducF5KAx6F16T0J03z31vk5Elkn6bFbYMydp958qzP/cumZjigv8RYPwa3BxKNsHpKLxRTWSjHgvhDI/Z4zCnYNe+83XmFBxLFGI/xtj+1o/iNrNM0ux+mjEX6470n3dKhKnKoM5BoOk7etX1ijfRq64Z7wEtSx027Uq7k/wshGrcRO21QB6KmzQPbZEv7b0YHaW17y7aiTIP1tNOGrpmp7HJt5h36k1/dLl26/qNVOhrNz5O3nvn85AAfJ7ZyPjVmO+g+bih0FFN0E6qPQ+47XkXRzM+G/FtNO0o+79euvYFgELsxxjb//ijaKRADPwPIby50q5cAyloKtipI00xF9z0tKMfhTcGr3PEmp7jo5hRi0EczbjVJ2U6RSynjt+Ynl7c0vlI0ha5e9+DQD4wKTWQlKislrpL2LU3u/iGPzgishRdq+8B5nzZlX8qV218IvwjxAQ6d665KzhfA7aJhLZ8S2xegPu//z1mFxwr4NVYcKyw+wPozNDl8J9qdjzqmc45uimmWmuprMZiWpeKTZmtvon6VO6r0yKG2jiza76Z2feABoM2xBSga+AI6Bo77HRf8N+3wzQ7YA1ShfubCms259NLt3M+X1vnzcCU/PzNf54Ir3YNGrN1EGMUjHHxdfMY6yWsG14ssmhpNQ5y+Sc/LLdsezjmhx+FY6bT47eC4PmhKpyjJX6fc4z2LH19nEz0cWr4bu/8OHa+4FiiEPsxxLa3fkx5pib6j4BWX021s+EKN8mt4l3iRs2nYsxsosuPwly0o98rHmwix4NQLQZpwGG5+mYknYOm041VVOJdM3OoVYtj0n+N/8rtbxD9cWwC3NMFxmqCkTpnszNvk5iHPQxi53o7fWJqUC758Odk19jK5B8Jpr6LNweQu8Lmi7D7me05hz9AjqYPdJaJHP6yOQXHAoXYjxF2vf8aGb93CxocHBSUDLcZNxMG/6VAiGOcDtdYyFEymgH3e8Ud09ltfq94D3jK9tsfAtdakO5cEkJtqzU7IWk+lrWOn+8ZUJ/Z9WT5m3teBBvEFzvL2YjWY568rk7tdo84T4FcfEJamtHOFkHIJR/+bPeZMrORSZI7xK8tQzT3sy3WJj5pW07FS2bw3Yh+roHs+GMGC44RCrEfI+z64DXaYaXOEgLoLd1gJ9/+WTA3ZjqeiloNphvCGKXNd92rzu0ouKE4aj7tpLKRfYP7Liv5dfzGfTM7zW2+dr9JvBu3m6yR0X8cl7TIus6p8hNffWcim0Xh6otwa0JkbUHPZcGEWdilx069EeePXi9djX0AudMH6a/deY48+9/eJYempvkpvV5Qcv82jIPJ18cActThd9bR9GeJQ+UD1GMJvOIK5hv7rr1N9l/zHRwvdtCY9s7brBQ3X/MpmLXmVFEnPyP7Jm7WfA/SN3H09F0c0Ydu1rnpaPonjOEm3CdXPo/aFrR5vSvPed6gKU6PQ4rTvnn/D8iaK78AQmQbjZc6LzrTXFN38Zh39K5VWGu5mmBaiq+n13ySLjr3pSdiLDTKSfzXbrhUnvnxD6TTIDV2BDK5U2T8q9gGz5hB4IGI73tbblaCOxgfC/ebeV7MZ+fbsNMFxwKF2I8Bdn3gOu0mveFKDaj2mLChVYKdyjSmlab1v4rFUiIhJcwBNJ9MNbJvRvYNXeObvokb7ntd9oMQ0SZGQQII6NQ+v9vuKzQIwuDjYXHPs1MG/HE4jI74lWt/Tx79ZTuVFP9lcVgCIdxuxngT/SiOZj7sW5dwOWb5ySBB2BR079dueIJc/rGPyATJ70gxdQjkjtfP5CYLLGDsLR+iHisUYj8G2MduHWCDo1olObH71n9eRKjtlYAbWquG3iak2nZMV+d2Wzz6jlnWtQ0lVqBjH52wu4YbH+42kX0LxDp3IYfHF8n79z1DFl9/o7xj3fNBgnjTYPdMUie8W89dexD3mzqKjg22d6pd8WBTeLnKFacmrduelGvXP1Yu/+iHZR+vRYySWQtBPf5tkQmuux9h9+4TteWORGYzzzjua8ExQSH2ecaO910n4+u3px4PN6rNpuFdOgM5nlIWS3Fzs2HVqVDjTd+gfgjQ7vLVSGKq2zeoHwJd8wUdwtmnnH0AyhyPsdt1aMwTBHRI71q6WK7Y9Uuy+KvXy4u+8RaMtQT1EpA617tpq+Am62ATpirNPIW2BpKoncxs94q7HhwCuZ+U9oX7jvi1910qj3jPf8ravWenmtnA5yMm7wF5skkI31RdaNj7KTMK5hOF2OcZe6+9HVxRdeP5n5FBvWNXpQn1NIZ/GqS2POMWC0Hzzaz5GkjI9Yau8U3fzJrvQfomDjctneE+5WR0nejadRybPHbZTGj3m8K00+OScmyWP3vgUnnW3W+XE794lbzx9v+JGswxgcH67VKw5+gKkCiIVDtnDOBae9aI8fz42MXr9iGcXLWJ21pHm3kfRwlzxHm0NmgebstOFFm0PNVhP9buPFMe9HfXyi1beeXJdLdrgrKabsamduFPlZuhZ9m5x/1q82crs51n599jJwvmG4XY5xk733+9Np+Lzj0FOnXa+o9dHIQ621S8SRXuQGkm/XeTmqDhQatR6fIN6odAHm+o+bSTykZP3+B2WzzKKeg6fTuqcGN+UnyMkv/vhx4np3/r3+THbv9z+fed/FYnCIQgmbOEXxDiGSlc384kw3wUxnqJ562WN/QdOW7o8i2gqqHZuXNpSK8IaXHcr0v++TNy1cYnpBqNm54VuO5+I94o7jd/AeEg/qoomHcUYp9HbH/v9TiOO7LsyQ+xCDpPPYIhphRdIatTwkieZpJbMz2VjZ6+IecMuo2Gb9utxdVu+i3oEe4afvZ+EDI6bsLjVsMGef/EEvnI2JNl8JtfkGfd8ceyZRzkWOuQoYcWgzBPEhleYt0j89SWz522xacTv986NuiYU5/zRj8It6e5UOM+rwa50tbd+RcE/sq4/H3vl7d8xX4MBGVdgrLWOIW5idsga2HP0L1zQLSjfyQym3kG8FyU5Zh5RyH2ecT299+oXeei806R8Xu3IWKdOMWUQu2cgVidxszmLRXBlGozVGhP54c4jen8KI5W3+zaeBOH223xU22tuFYzIB8Zf4qsuvMT8nN3XqGb4Y8yJeKAAaVXVlwGQh9Bp05fhXnXbkdhLIgSccP3GGFKDdrqh5yZNXg8C26iz/X2lackxx6/11z1W/KB656dTldnDeG6DT4XQT25DnIH7GnW3aebby6w811mFMwXCrHPI/Zcc7us/vkn4cCqOvWsVeEmuWpXIauzcXGNXZFS6aZLUr637zLLOiLGHTWfdlJZHG63xc9C1z46mbpP+N+VU+QJ9/6J/OLdr0VsSgYo/AHpqQkZ4Dr60CjqT0iduhNx7Miba+m+xu75pta6Rly7afqurYb3NduIU3yMx5sSx7jwEOSyEe+Pbevnr3m7bLj9dHQC9rhEQUlN2vITu0TGvgE7du5IqDR836+u/CwkjzU7+lEO3oWdKphPFGKfJ2x9740yet5Jct7f/JLsv+42NGfajlZaVeraXDxES+v0P2s1o/8VNLPtjomb0/oaSPDxHoq+17ntPtHlN6SJZtx9rrXjVfmh8SfLxXe8U75+4EIZBOEMgrEGoHnfB4eGZXDxKjS86NS5TXBHRSS03W/GXQdbCSnWRd9rWWcxJy/VzTqzc4BwDeRc0FT8TGAEb0507HH4ua/+icgtsMmJrHHphWaeHfvYl/FGwR9weSDomtDkgYDXqS+YTxRinyfsveYOWfM3L9XTHQ+v24ZDJB0o6VDBbTxuzK5CVqexMMahcQMNdczo6UfEQKhTBJ/E5VASa/pmE7SjNNGMu3/2fnndoRfIL6/9DXTok6kzRxc8ACLlT6kOggQHRpal9xGNQ7QGSRUwsHfN3KdavJHPdcFvnilTE8aa8eh7PtbFfPSjhixB105fr+c+JdduebRce8JjRHg243chJHykugRDWuMu43diznWoA9Hr82WSn69gq8zWt0C0o6+CnXN7z78iXzBfKMQ+Tzh87w5Z8ZSLZN91d2jXqR243epRm9wEZS2voFidjUtlrgGr1Woa6pjR07dQNcBgvirP0TdxtPpqJDGVpYlmPPhLVu3V7nwQhDfATh2EMTgyKkOLV8rgALp1EIXmTbSTd+IEhyQxQsni8Zg3reQY/JpuxtwOPsfnOeib4H/WeZzpWhzCs2UWLWPA5pqSX/zyW0R+EDYvEXMTJB6tHOuItoMxj0+sB8Gj9e8ctoCjOUnTnwHTlfj95A3tXZ/VcMH8oBD7PGDLe26Ss177LLX3Xn0bXufoul0Q0y48Gap1Dd1zNPVfcvQfg6pTXuOpIAXcVt/MLt90nsTgfszVhPFmXVutxxvi6OHfu+80efMtv5i68A46dsSGRpbLwOAiI29254ibnbp2aotZh6/EGdfENRZEc9OIrXcn28ZnP2i3a36st/3gHFHn/TOhzV9gsvtNvXb7afKy77wpkfsWyBcg/FAVpfp4uY42dTNOmdyN7uJW2OjcuW1/nnRfg18TDKzZ0/h+PxhT7XHTB/nuVDBfKMQ+T1j51Itk+/tukLH1/EQMrSk6XD8vW7tw61a1m9fuN3XhKZ6TaqdxEP53k9oNt9U3s8s3aH0I9PRN3JzW10Adls5o+oZzl2+Wp5z2dU0NYp7UpQ/kzpzdehK3o7YOPhMLJlEd7aBRlnyzs295aicm1V4TfI3Rdh839L1uJsnbhc0vU3G9PWzrqrsulQ0nnyaC/7Ifws59F8TBOgrhuhfYsR/+Foxpzph5QAgbzmZjx8b5zlQwXyjEPg844akPVs1jN77W1U9mOs5VW0dObfEMdbw7VzPrFKORVDayb+jyWRMCXb6JGzXflJkK9WPA0FoXxAF7QDv1CV12SZ15IuvcnTNPezrNzle7d0yownmaupfEurYxMW5+69o84zEWdOzWcw7CLy/R52MIvXb76fLObzxP5En2+JDcvwHh935Q0lMwRXrDaMgUyP0gv6natub+AMT3vStugjda9WUEUjBfKMQ+xzi0boeMnnei2tvff0PVpaILTY1t6syTTt141bEnneA28ynCUNI2JgeIpu+Yrs7tKI423/V0dYa2MteNOJdf9INSEIJ24WAotV1HuysXtb0RKFFibsRRlrT6TcENtRKS+007COdqIzX8T3mzleQ85mOoLea1FF6/fXgUNpIam5J3f+mnRLj8Hsl9PaTtkucYotJEM37oFvjNNffZoscGeD+aG8oubvZ9iUbBPKAQ+xxjsZE6wTNj9LUPpM5cjSrGf7ArSUZKe11Vz4TXeW1Gl2/iRquvgYSjMh99021CtNjnLt+ohEyW1w5cJXbllaR19l6Sxuq6/ORE1SXn7pq2ifqIxw4717tm3GriGNWWb4vnfMPXGMc0aofB4tTsdqHXbjtNrrrzMSLn4yHhkgxBcr8NQnLH8PSGYXaUZjz6B0Huk40191bBALd1Hz3mcY8xb9KWHwuXPNhyrRkFc4FC7PMEnsdOaBdO7R02dVcLbpbl0phQE02VmTr2XnHC/Za4zumINW1xR6yxeFu6DRZfv+dUEDhJebzqvMFEqkEUlXap4rFbb5NE9CQcbAi1PUXJCTUoTb5ri6vQtpjGKRwT/Bxv+M04/uex7NijD3nDZ/4HHIBde3z8bofcm8wafPxMOPR1kPtWc4DmGN83RUjSVLdHnvC8AnrP1cncjx3+PP4KKZgzFGKfR6RjJHXg+VjWm2QTNZ1zoUsnQpHOgxvt2C2W84T6IZAGmANoPhjRd1t9Q9f4pm/iRvYNTd8R4uv3nKJEza6b3V6tY6/p2Jmbzuvsbk/KIHxKbUzu4LHRLvE4dbRjPvptcWjv8CltdrNT97H85SVewEzPkEEMsnarteq+JMMj149edu5cmuFQlOfHMgrjvXKH78G29sC2APfDn9csiHHfbH9yXGMeD/kcDzJmPw5y7auwPejNpWufKxRinyfsueau3FV7B66Nl7bc7lU5C0IsTqWBSjHo3XqaO8VUHDXfbPVN3Gz1XbtNwI7jIfv3LZHd25fL/etOkS1rT5JNt58mm287XbZCtn/nNNnz3ZPkwIb0Yxc3bn6o3LD5YWrX4NMB9+07pd5lq/Zz1yud8tN16oxNH09vCkZEmYywE1m73SK1MbRRS1E/jPOaWJvFtqFzhTH8Vi0TNmbt9jPkXTf8JGLAqZATIMMQvAeo3AHZACEwJCPaEYzH3CG0/lxz57YVjYJYq3ZLPtZ4QJUl+AZy81tFNl6P+4Une4JniBXMBQqxzxN2X53W1134ik8qdeNJUsw7cI/p8ZGU6uzjJkouyHbT72W3+SFOw321O7JjxzLZsP5EufPbZ8r6O0Ho61bL/m1LIEtlfO8iGd8zIhMqi2TH7pXy0zf8jjzlo2+Xj975ZHnhZ14rT/zwn8kNm6prkH/otstUf/D2y9HNoZvmtdW9C8+dtttJs7NM2vPBRrcbY7HGY9HPZ9Ho9dxJ9JCaxs5Rq9CGMOd5r236MR79qNW2+dwfXNSomZR3X/9jfAJS134xxEidP6mqR/KdkPsgmKrWnTftXv5BkLufLaP7Q0GSgjfBWifueY/HvNZbncYtNr5X5CtvwX3Btnghzz3l3Pa5Av7i5aNeMNe4cemvytDgBGQyyYDZrpkbMK3xSRkcQHepMdMaAwkN8BuZEO1w0XnyqLSYDJnwEohuq++2xXv6Jl3jk79j31LZsm0luHdQBuEPcR8xdgii+4u6IZAM7SHk70Nr+TN3/hoaNOzswJB0oHVP4XaGhuQJp98mb7/sb7Vbf/U1v6L35rr7L+Y9AbetkIHhUdTiHnLcIO8px5rfQ/OB0bpcn4SXyOW8rNMaq/P6pJmHbeP0QVZfQ6YbvhvZdzDAGWfSlcqYHBfZtQ5xJLg9EOaakzfKPX/0Myl/AHIzhKeHcyyeHtVs9M+CsKuPYC5sLqPpD54ksuh0GLy+C5I577YF3Da3ijfyDsbH8aZxM8id+8HcY18s8ug/0XTB0UXp2OcBu6++S1/iKrjRDtvtECdUM24+kTryFIv51KWnudKNabeJ7JuRfUOXz5oQsPzY2LDcte5UuW/DanDOIBpFEDfqQNXQtCFqMzYlw5BNh1fJz97+v9AR+3KHdcpc+0Yd3ytu2Phg+W+f+r/y4dufKk887Vtyw30PsS4aYzoTplmf5kh+Q1v9oGof6/HmGnusa5OqVuvY+Xs3HztrSlfnTt9rPD4b7XYQtuKDo2k+/hWB2NrNp8lVtz1KnxZZCjkPYl27CpdmeAbj/XjK9kBj2ppw2jY7CpdHxiF4/PJrgTb3MfsWa7WbMY41m9q79Um+WR0HP8h9nKIQ+zyA57In4MWs3QpvfF0c2nwV7xAt58LbmMvr6hTN5RsD7Ta/V5yI+Sq+7+Co3Lb2DDl8cJEM4y+DYYRV0KWrPzhgsSo3hP36q72XgWA5C9ez8WKDw555EJGRwUX64hsdWS4b958mf/bV58mN9z8E3f6wbpW1w1oDogUp5PVx9YNWO+XT2vvcipI/yDa9oThpYYdVcEPtZK3+DJJrbQ73Of/QaNoOt0tRNg7gmbTszJ3UXaMxHkCzL2j687xtiPFYN453Bp6aqH6jKNYpzPH700QO0YAooUOoxx/olScLZkIh9nnA7qvvrh3L+hJXu+rECdXmJ7G18xTuimtKb1wxmZQGVNzvFY++6yq+Y/dS+e76k9CJo4NFInfoIBl25yTdlPMOPnXvBzojcvXmB4OYuFZOAuQ11EmOg7JoaAmIfwhvACPoijuyaHCxjAyMyk0bHopu7jBygyD2ISVRXwtXogt+TdhVq82aVFf504zJ42YS/uXQiMWxE8hT9EwbCrZJYacdpVdMJY3Pwnm5zq5n9nh8Uv75mmfiyTHwd0X4O9ggc11np+CIVpud+z2Q/Hya8L2BMpNP0p3YCxtBfeNBUF8T1BB78/HXSRbGcjzkWT+EHcNdzaIn4xfMBQqxzwfYgnqHDcf6b7Vzx53tJBqlX4tV/2rj4i0NddzIAUP0Yz7GiQHt1DduXQUCZkdOCd26inXsmotxkds7p4CcMUuHe8tuM3Xqo0PownHA6xsCxmk3jtzw0LAsGlmKCvwDqY2A/FOn7pLGdMcgmD/bXRLqegmIqDXeFNQNUbpyeGMz25el6nmTxnZS3SQ0JOTqc9j+8z5Crv72I+35SRg4CTfgS7wPJmIfge3dO9fhd0II8KrKkWB8A8aMwSA5J1XBHOyfShMaV6PKU7FTnwTtsGvnBy0Fc4JC7POAXV+8q3r959d5+qBOfSqLZ9tytXwVspsKKY5bL3BxI/sG9S3guSBcU1+3CZ06nCG0V7U1dbUhapuvAltrpuTWPWei2QSh6zo5u84pdOYjqvPSAuLs6hhjl8c195GhUSWzNGYmqebx7ryyK7+29h60Eq3lpl13518a0G01KR62ja66ild2m65sG29js+DwpNZulznIvVtOxhMU4B+WkshJ6DyineQhHZ4CuQ/SeH7xFCWZzp8EqU/sgI+ACoLZbgpyuB9dce32KZZTYsfcw9jRgdKxzxUKsc8DDq/bpZ0oybzqwgmLebxpd8US1KpuVPu/FJtOHCEW5vbYxu0r0Xm3deT0qXt08LruPiD3HjoRLy491wTTD4Cwh5Rr0no74jjQvRt1m3oIFcPa1XOs1yZdSTW2q6vNsSgtta2x9IbVpltF3xgafsxDes2X5w1jGItxXZIahPB+8bEwvW6bX1fAcCaED24kdV5zC1o7eS5lUxPgVpXZYmwr6q1rJ/BYqTSRQzHfqGOcnbrLIP+kKJgLFGKfB+h6OLXaTUlr5SpteR/fFcMNrGRTp5qqyEXLWnwTXSuF5FhHDhwckcOH+IMWRjhGmFkzDlu7c11KSLFK2GVSfM15AkTFgzl1pmnNmx1e0t2dNAiJfqOD9bXytI5bj6k0O94o1vF2rZd7zPLeGXeN8VgeE4Vz8j6aH9fJ41xtWm2r9XjOId5B1z4xrjVpLX5c1m0J5zLyOVsFtRoaRzPKk+Y7KjUJHUN5pgyeslQfhbEYb/qUg2sRA7nn1xBEn4MgGqcd8xaLce4LZQV2bmoFjIK5AF8GBXOIXV+8G7c8ynqIdsst0ojzVmMWV99zXqtBs7M4ZhsfkM072a03OvFmd44jPsXQYWuXXuXQZMpSkDvMtMtaa+vpWfgmYRpM0q2tQ9W6XhLn6uU37Rhr5tIbk9ogJrdzLEhtrZ02pFmTu/Fmrle8JniDUw1yx+OnHTt9ZVqKgQ8ylRE7T9FXTUIfhvb19t2QeDHHxjTT+p1xkfFd0B6MhQ7ENNzIZxc3fLfxbn3Ud7ZgLlAe2TnGwbU79XW98ikXpqbGBTEVvNiTDvGGTejChMc957dUhMUt3ENwU00QhLGOjE+ATicGQFph/Rw2idzXz/PauvvUIB3a/PIUGEgetWo9ukz42oGCkNCx8Xx0dnKqUc+lF9WIuU5r5tTsWJsx097dQqo1auareCX1+m7hviW7qdtkuhyF+Z7zxC4dEutibc3Ho8px2q3zcYO+N3bsDq7OGKmrGOGr9hjPuiXJ1573Wcr4NmwbXTs7b+++8Xzk11OOuVinnm2L6xo7yZ3zwi+YE/DpLphLaDc9KKNrePoCbG1hGYuCpyHGWm2iivm/5Gsyx6sA4X4vISp/34HFofu2jhx6KPuu3U7CvN6QOKB+cPkm7A4PXBA6NN++dK2c5E9NkoZU2mN1Xe/iXZirz1GXKt+Utu571sI3Aeg4h76hBb+7Ji1VxVjSIO8Q03E2tia833jsqPkGSn3v1lPwuDawGGJduz4HLvT53FDzvHbwsxK1Iz1FFabz+fN6GQhqPBZYzF2FOVRjEyB07AyJfTVkyZqUKzjqKMQ+xzi4Dh07DsjTfuHS9JrHTbekrhv/W+KWo8Q8/5nNRLJTfXJSvBLGIOyUvFuq5ZK9Z+/iRDZKJCZIVDZ17NZBrhzIbyANTMGiPSUXLt4mP3Tq7QhhLnbr3oHCr3QU6+aDZryyu6W2vk6JHTHt6JvomJb4tNKcN+fCWnozp3bIZTvp1JFzPHRtThOL62cUqEvr66lev43aBhJ4FB7dTeH6Npdk9DVwhDK2HdvmWjufFwT09WTCmL6OqC3vNR7H//StUwjfhIZ42YKCuQCf6oI5xKG1/IFKdOz6gxvNow5aO3Kz2/IU1mgd+nHTKe7hFNdczKsAOK7qsZAL/sQkvzRkXTgGpW7dO3SP+9kw7OKxTZ6srl8rxRToEAf02jKwEX/hGd9AmAc1u9PYRbd3002punHr9kPO4/W5mn5d9I0JbxRtuZnE39iSn7rtnmvkIZ621+zaSexVTRLW2Lwmus3BIX0Mq869I+u38q+/FvDLSv6yoY7i3TtPcPG1dn1dGGjP5BN6eV8ascC0uwrLq7LEYZI7dm4xRGMWLzjq4FNdMIfgS/e0Fz9WLyvA13IWzdm6OW2Pc83dY8x7DT948hqbN/u48c4+J6MQ2cdNtuvxg7xkAMkEgbSmTpsEYx06L+xlPvkc7SMEXTpIvgOtE8FWQdf+1FV3yy+ddyMO5ik0nOg2MV9aY+/W2rW77hLvZGGzBgRIO65LV3H3qX1s0FZTG5vF66p8rqt11WnbcY6mXxfM6+NVV9uhpHGMNe5TjlvHDl+/watPWAtGIZHU9TkKtsd5lqGfwXikMrYD+xDPkMFzSF3r2qOEGEzt1rmfjI/ynahgLsCnuWAOwY591VPPt5/Iw9GlZwL4Edci2nH3qGl24+yYTVLOUunGAFvPfYtCNGy+oUwMaheu3Th2IXfpKlUH72deaBeoXbp17uaD+VMexb+w5mvyoBVbcRyPK/my80yaXXilSVa5W2V3GnTq1kO+Zrf5Jj5PFBClvjGZX3XSLXOQaDXXjIOMa74JbH0ztHj+66CrPvnxr4fUrZPkma/iA5OH9f4P4fHXGB6nc08Jv3gUQcKMLx1/nqJN4XPkp5DjqVJxzOQTUwdb4uZgX1WaYGwXdoQdO9fXWdJWV3BUwKe5YA7Bl+7qp16QbDja2Jid/VlJ6si7Y6FT93npeIxdktqMNeK1HJdPQewgF+3OQS6+hq4+CkgsOgjdeIdah1UxtJbmI0Ef9klL98g7n/RBOWvZJus+XbwbrTS7d+3gza53ydaxhlhtjZ3xWN/0g6Tr1sCG6HzUGoOwxmLJtphKsGtxlzBHm0ybMzE/d+4Wlwmutaf9PffkLfoQt8oKCImcYtD3dWrkWaI2P0iNXXt6umbnj+2EhkOx56x6fZl4PMoBxHEX5CTzWVcwJyjEPsc4iI598Rp+UkT4Ead9avDRr1obrHF0xrW8duTMmx1zKg50zvavK6dLOdPHeYGuqjuvd+u69KK7SKPq0Gtr7LDzNUvomz5lyT55x4+8R05Zdn/q0qcTsEd1Rgy12SqwNRb8Wj7Ge8daO3YQTdQxlwW5IZBrLc5YsD0ea/I2GlptknjwNRY694HJMX1M8l8v9vjgYUhocqMTO2HPmb5kqN0G9OXkxH6k6OBNhhKh+xSEEzdj94+k9XUSO/OLz9GhBUcffHoL5hBnvuTRZiWybr7WU8ziqKpyId4UqyNMpZhK6OCPULRDh+EdOgmIGkwCSQej/jVgZ8Cg7VKt7w2Mqx/qoXXtHfWnDx2Qv/mJd8ovPebfkQI5TSvoUm0tXLtyEprHVZp+W5zEmAiyuybZ3hUnbUQa4kmasfp8sbY2zrpvj/XSKqE2xatt6rnr1PxOAPeRHfsp29JzxqfAtUmHv64E6Ht1Gxi3HH8JT89S8XlmI74t/hpSfkE2BQW1NXdqyF5s+FyzcV80VzAnKMQ+x1h8nnfreB3bUZW6cj70FPi1Lrzq5lNdimmuy069edKVbQY2mGrqAujxVI93pgb4RcV6l26b0m1R2KGzC2dMO3YIu3TU6d3xi1CxlppxrYE91JEzl+2Wlz/mP+XRZ96pZJ2689SJ1oUdNe59j3j2MT7HcaequoaQENvica6eQoJNdrML79ndx+253UurYBvZbgg6dnboA3iDTFfJBDeeasRONLhxgGcQ8nGnY89BL9HnkksjEZwvztn0HVN4V8B+tQvyNW32Xmw0rj2ueiJnKpgD8CkumEOc9ZJLVJPg82vcpLm+XvntnfoU4uhzzLca9VMn7XUMJo0bDtBBJtFWwY3FqzV1Ei6DBOdFV651OiAJO3HGfTC7dPVhD4ItyCysgc+uXets6Gsv/4A8+ow7kUpdqHakaqfuNHeytXwVz752sW5X+VjXFq+kueY9wxq42lxHD3HPhdigzhPqZtBVp84Yx1X70Rk/DB3nmpBzTuEvHKWHPWuT/LQpswOMR1heFW/Yscc5aM/GnziEN4Vx2AjyOZpWY8AYng/8l4eNWRyx1U9GoGAuUIh9HrH4PJ5/bO0SjzzrupOEeC2HWK2uRTwPncwQy+Iwn928d/R64HJ9nUswgHfjBOfMnTpiJHDfTcZpM6ea3TtrzLccY3k8tnnmit3yl8/7W/nlx31WzlqxDWXeOVM3umiwSXccdm0M34g8dyQS52wREFDVlTe66hynVLlp1+gb0rPLN5GJ/Xgo+ZcLH0pq/g0Hh89XmwADvKojH38Xf64cFteXB3PYjJL7A4H+8DUN3GRNo0UfgvDn/NQHFpdTHecSeK34I10w17jlmX8re6+5XfzHqqsfsKbf/FHrJIOID6um4IBnzvVg0nqw4+hXEqDwwFWNONfD9UtDOIKzHeI8e4WaB/p+sALjEHbZegEpdt0k5WGLo35AbcT1AlPoKjWPuM6NtmyEOs3bYZw+tIwiF388G8Ry/97V8pnbL5V/uOlHsc10D/huobZqcAE14/rj1ObrnbR77LbWAV6v+VR/1uqtcuaJ29Q/C5rpDbvS5W9vuoc/nl3VUydUfsprMNlErrMYXQ7I4SrvqKUVuoUqgcPR8xPj+2TswBZsRhP6/5xTt8mX/+GKVNADnVuTtumSpp+mSPPTcM3nz78E6nHHdP4gmHr4BHOQ0By1FUV9l77Di5zPJRzE2K1f+q8pX3DUUYh9HnHLM98he0DsTtRJV8Q9DFIfhD0MexC2x53sM7EbobvP3wdV6uGRS222HsBO3JnITbvEvBM7fc7FA1591FA7oTPOWCZ4q1GiR/uni/XwR1hr+WEj/Ob+cCdxvP/vf3mFfO2+B+ve4w6le2EE7uKEXfdxj62Ok6X4gJyxars855Jr5LEP+o5cesF38nZUN23IfbtOVYL/+Fcuk5u++4gUxw3n53yuE5p+4irGo0oGM1VdBYsH5k3Knjdg/PBuGTu8I/l2mL7g6TfKn/36+9Xugs0jd0J4OiN9PNw5TvHJGScYY5fPc+B9WSail+969PSkI4l3aci1eBN48n419eaC30lSMCcoxD6P+M7LPyxb3nNT6sa9Q8+ahE3xjr0e5xuAd+qDIMdI9NSkmsQz1Ep/WSuBujgxO8FqLOnOITAyXg5p2QRETIJGrmPkPsBPVbFfHM/YAMi7g3EDSt4QELfHldC1U+c81LY921a2SbBGsuze//HGH5FPf/tSJWveISdxLr7Qn+KdtFgk9jNO2C5nrt4hj3nQ7fKKyz+p82Xynkk3hCT/sS9fJn/1+Rfo/Lo9ai2gavpKVVAeNzCtCRbAyNriDWiYj38y5PChbTIxtjeNm2J8QP70194nL3jGl7W+ml+9BPrroMChaR4INDergI7leT94Ng3fDBwed4TxNYycjAnxQPoGeulbFos88oCNx80j/hp/Or1IUwVHH4XY5xH3/P5/yr1v+g8j7Aahu5+JPUns6NXnmrP6Tu7JJqVUhM6tgQrZdfMgqhFqg2CzRvwwmRw2lXbsnkfO3xB8Du3SKSRubJDac+zUSeTauac3gt7bhXB/SbJGtCT4r224UG7ZcIFs3HuifG39RbxXmeRJJKeDxM9ctUMuOe9OecyaO0Dod+TxPfVMsYbct/MUee0H/5d86a6L1ec+KLgfydDbjBzvBdb3qrDZc7oj+/eSoev1N/7Dm+Sc03j93WlwL4TfLOVQSnOzbjOOp0U1xZ7+Gnr5rkdWYSxbfkD3FaI504zxDWMcNUvsUgTE4z8lcuJTkl1w1FGIfR6x84vfla8/8/8l0m4QevcSTJ3QU119Cabq4NM6eyZ2bCt36/RrRGoE6xLjY3ZkI5Y6cYt7h490h9vysdqJs0tnjh09ayE8zp3ga9u1edT3OIVxCHc8arM3gdxj7gyQeldt1LONxZz7RIwDf/XZn5W//uzPaAB7C2UJ9x05ro+iDq/lGxH3qlGAHY6TE4fk4KH7Q3kHnfpX5E9+7UPmA7WBARsh8Qq7AKfV3cPDH8fxM9q8H1xnz9szuN8rPrwcjxe6cacR1RB1TR+ELOaGAa971p6kC+YE/lIumCfokgLE6Ff9FIOtRx5j1FU8SbRNrJ45LgPwX4pDEcjrB29+9ksUPyvGhTHfBM9i4TgVBKmZY5q2nb+eYnwDSGWpjvW0mTKjl84C2PGeNUEbcsbKHXLGCRBqSK22TYimjoi5mG/GzX/Vj31E/vN1r8J7EN5IKTyDpeUslpyDjme8uN3UNbsxn+i1dfDYwnb9xIff3b2/beLgQ2s+n5pkmLZajUNU44+uDJ/LxdH09ZRHBGqCeNQk9Rhbci5uCuYSdrgWzAf8XPZ0vvqAnpeur/WaMFbFUw1r07g01nPB5z+3a8IbbDwX04ZQq4QYblJ9EMZwxGvcl3Zg89x21eZrHPl0DRnGUqi+TRi+bWoX+k1pxmfy28Tnb4rnmnXutwjPqvnc6381n1/eKn6uedPOUp2fnoV1Wls/f31yfJ/ZJPYUU2L3fZ1OeKkAt23/+XRFn9Cn0GPU/IuqWefSjEcf+5jOV++lURT1WT+PQQVziULs84gla1bLYv0lJW1vVWLnzjj9JKGT15qUr8aaTq2y2ey0aSU7wXIueJPIOgtCjA1hS5zPz0W3ORjTOGG5dI0YbIlh3QWLp4GN+WchhO5H0I5efpuO0gu96prxhpDc//BFf1vrrFs79xhr5s2P57s3hV385Pje1KmDPVPHLnL2qTuxI9X+9BSe3WIPqSO7oY7PnT7FjVqF1zXRjOMNRwMao7aC6fRJPwS7YC5hR2vBfGH0XO/arWPnoUutMb7uaSc/SdOHYAxUjntXX+WZ5E1SqauGgWbJAg3Bkc0ckSZUlZJU1KlgijleetXy7OQ1reNYYOJDfG71bVzMu9BvSjMea3vpNvFxLr3yzXiLPOdx18jjLvxW7qxr3xptEc/xGi96rZeQqwtzIHHY42MgdbW9g5+Q//bDX67fB9/fNg2uTc8JhIDGe0XyPUY0x5Kjacfaph+FcaLWkUOw792aeQgv/HXSU21gwVyhEPs8Y/VlF+CYiK2Strum62vv7iepd/BuuzBGK8+b52ccmgTrOorGoKgpeq45O3HzOY926RTuEbbLLwrpOZHDiEHrN5SSdDrcL9hTaf9FfdeYIO4HtdvqA7ov0+jpEGujNNHMe020HS255zz+mtRdg6ianXb0cz7XgeBb40EQm5o8gEfFXgkgRsrPXH5ztQ9tQrgNgrZHM8dqLzfCx0Q0T3eMNW0+gf1VhwSeNc2oGVdH5NxfpFEwx/CnuWCesPopD9LXOo8HdtnUqXunthhEa8xPMdqpltrzlY8azJ/sqpOOkjuvXNiIedx3hgmQTQe2jufNAIqgJyYHZXIS25wYAhENyOR4EtqdCYjmzIag6UQMbwj8IWN07uC4aptRuJ3p9HQSa2eqj/npalvmfOyFt1knbWLr5HptmrZ1dBft2nsJx6Wxk2MHMBceMNi8/jrX1p9w8dq0H72k8XjiaUva9xvCmMabvkucw8fN5OvrBYFpJdQsKZfqnQ8UYp9n8NrssRtPbZS3UlWs2bEnmzGvrXRXPHftZsYY3gCyjuIx68xVeKPr6/bXgHbu/I9/6NInJxeBe0ZA0osgo1kYn5xADMK816g9ARsiGhsGsbDjx36zw9d94YaAXroNsSaKo5kn3I7iiH7MW+yrt1/U3WlDtGMHebXlZhQbNzVxEI/JOGw8q4wPdOTXXvjF7v1oCkFtXbc+X655w+eNQt+Qfd5Q+PIB9yrivEQvX8US/i4StQv9JeehY38xKwvmGHwqC+YR/AB1VM+OASFDpnBEpY48idtRR0l1bILo85iBxrzuKxin0nyyUyAKjuTo84B2TVM1AtyYOtSMETy3fhzEPCgT46Mq4yDrifFFMjEGUh8bAbHTh4ZMuYwNQw9rfII1h1ELmaDouDR2agJ1k0M6v3f42uXHfTTNzl/j1m2qHfI1m7oZj36beE2o/fR1jw+ddpJq7Tytkx+JxLHjep1zbATCUxyf8PB7II1uPexL1i6NH8/Q10TI1x4fV7xxISNEv018fLZhsBtXDeFGXLswX05znDcM4E92Pj0F84ivPv2dsvvqO9MXj/TLR9T1b6K2f0Ep5qn5tpB0/OJS97Vj2JCZT2n7wlDzS0McpPGQpx1qOoODMoYOfXxyGXwQk85HzTzHYf9Qx0sO6MXDbJxegkC/qYrN4H6nZXrk+QUnLvXYNvSPDNokG+z3IOt437gdvR/QvF9abzHWWn3S+A/tS/z6GHAeuowR1JwjPVBy344T5KY71qh91sm7Uh44+5Td8qb3vES+dge/CQvoDkakN1mGNT8DOJpHn06jh+GA7Dp0v0zqrxPhfuH2fW96nzz+EetgAVpnuhf2Qdp+EtV3qDne4wRtfkeNb5KOmCe6fEw23PyCkhqpVn2zH/Y6kYf+HpMFc4xC7McAO666R25+xjuMoI2wKUrWdQLP30yF799I9TyvGTOIo7D72jEkBRJjOqj8W6g8njWmREgCRUA1fRO3SbAkS2yrw89IPd7Q2BqIfbkcPLxC/QHUO8Hr3NjeoBF2+sZqIn69eqT5aVzy0xsAhPObOJH7G4OSNmLpjQr/GbeY1jlRUzNufiJy+CQvH8sHBfH7dq6UT9z0g3LTXefIl+60zpI5/rWA/6hWvWrRyXh8h823BOsUfJSxHdXqVvkWrcOp4TIwPnlY9oxvSwVIPP+HvyFv+bXPaFYRx/dAhxeuJLkbqvkNHN+AM4DW8THE09VV19PHqKHwlVVOpmaL/zPxHaNgLlGI/RiAv4N63YVvqRO4XSOmurSAxRudeiR67dSN2NXPxA5ixNGppIUDKhM7fMYT0TlxU+MlQCKsaasjObfmXad59h88UQ4cOhm+dexG3Nqds1bjsLkvNmfyJ0D83DF0qbxEAebTcajX+UnA9DkO+6MXGTM/zZviSccYxyFu49I8DR96057l8qmvPlT+4jNPQgzxDDqJqPnAqYZ/0qJTzacXCFxBI2XSrXGaoxGoqomO7B7bLuP8ZSJ1O3LV379Dzjo1XBsgFU6P+yBcZ+/auKHaYLJjDeMUPC0ZzTm65sSDOMRrTViil156nsizvpvsgjlHIfZjhK88/Z2y5+o7lYi1EzdiTyRfEbjHUqfOzrweH6AOhO4Erz+lhoOUFKM0Q0LDdjPhK+G6Rp4k2tRqhzrP9aifnFokO3efI4fHlytpswtPRA2tRJ9iKc4x5jOvGjGr43zVuLSNlE8yqGOwXzoXQrx/yOtSDWs5v+Vzx6+xFB8YnpR/uPoS+avPPY7JxD9G2PpAKcw3LB1aJksg6QEkuuub0GlbdBOHJg/I3oldiQhR8NOX3ypv+d//kZJtA4i2iW3Vxn2bLmkaZhPqNur0za9tKca1w32+S3KNjAGNUVsy6kv/SeRBL01+wZyjEPsxwt1v/IKs/f3PV0RtZK0XAVNdxZJOdfmNwIi+IvKkI8EnYmeOGsTGg44Exx0gIfJ4VI04Ca9Vz7bO7SnZtfs82bf/FJmYHMW2jaiNoAe4FIN9qNbik9Y6XbKxOOtsvkFqHUMxX3MprqSu3T59zANdkXuqi8T/vq88RP7yv/gj43xEOMY0GH8QRLWYF7UCJvHYMcr8yMCIxt1PMGJ35PiRY/vYFpnUDxpxv/HvC3/39+jW7UJZvaZlnDvg+f2Q7RD6mKp1HOt9p3vVxRqH+824EjukjcxdL10j8pP3JL9gXlCI/RiB6+xfe8bfJWLOxB06co0loq/InbpO8G0fniaCJ6FDcCQmvkGXS3KkrzHYJEYjvt4aR/6s6txGPY7z8cnFsmfvmbJ92wVpW9xX1jnxYj+zjzH5DUDfBJBnPcna6lK+Gq/dfi3OMabpY7/Tkgv3J8V2TQ7Iqz76VLl35wo+DPq5H3Ui81FZhm4cLgfpLSZPvrop1pp38IHm4RQInnl6TZ2BwP6pfbJ/orra4Xt+/6PyuIs3mAfUBgQ0J+YVB0juDsYizM9DYOjUNl7jeLhS0GBjsna4z/vK02AjkatOSvXFV0Ben/yCeUEh9mMErrNfe+EfZ9KOH4omXfe1g1c7ED3jsEnijDmxR+0kHgnefV+qmJ6wZ8q3aLVJqCD48cWyc9ca2bXjXNhLQbaJmEnsrMuETs1tqY847lsi7qT9w9YmwaelHPj8y4SahK9xiL1J7AWh/9mXL5Cr7zlD6zCJ8g2xbGAJCH2p+cZo5ClVkbgRtHhVF/MBfKDTBJXugbHJMdk5QUbGfqHwVS+4UV71whs1l9Ec32tefu56COJ537lYlzZT5XyeWMsa9x2xPkK/oWxoI/Vl6NafXbr1+UYh9mOIW3/pY3L/P3+pRuCZyJtEb3bbWnwi8kTuJD6tY4ykR8JzYudGsw3pRexu13zUzeqNIGgX+IfHlsm+fafL1+9+lKzuLFFC1n3hfhoBZ2LnfkNznBK7zsP7k3T6CwCaJE5bNaRW15GDiP3LxiXyoW88iPccqIh4CP9WD6/AXeI6k6FG1Hi0ImdFJ5tVjOPSGwGsIyD2rWPb8AxN6LjHX3yfvPuNH7cM0Bw303y8DnvcLhW07g71NL7XK/DQZ8Q40fT5miA83tTs1h9RuvX5RiH2Ywgux3z1GX8/i/PVW+IQ/2GO5tq6ay7R1IgdB7BqHnUaA1DTk5ibWm3U82BW3ci31Tfin1r3IPnwNx8tT1l9WC5cNCxLO4tk6MCJyHGfuaYN7URtOpE5fczB+6PzsR73Qfff8tjGxPJd8o3di+QtX+NX1xNjpevcEwPY9QFZMrgYnfpiuIhzSlOp3lWyNR7qHF31nq/VtSUqvWNyl4xN8RtFIo97+H3yrjd+TO2MPI+h6UfwF5N4Ag2nJ7wWD08X4q4Q0fd6zzl6+U7shMdcs1v/qdKtHwsUYj+G4HLMNRf8cSbw5nnqKd78olJde33q2ElwzNUJvovY2eWaVpIPxDuzJtFiuBI79HRvDC6N+P+88uny1c2n8dWnRPLQlYfkQUsn5OzRjlw4skiWTPHDy46MdhbL4f3L9S8PLsVQs6MfXLYX+z4l44sOyvrOIcwp8rVdw/If61cpqXTC8oC+us0loa8cWFoF8IAwnVHz9cFSn9V8pDJSINe7241c2KUPTh2U3ZN74HXkrFP2olP/hJx16l7kAlge0fQjOJS/FY3pu8oaO+c1vkcKOPzMAS+nOhpjaz4H+wQej/oHS7d+rFCI/RgjLcd8BeTsBO0E7wTeJPoYJ3FX+XrHXi3N0M7kTtGDkTr5vQi4XX/vxL7x0FJ5xX89Q+7bz19QjkA+ouE2A9z7FDPtxEwdSocHhkDoS2SR/zZnqPPhqVwfmCqf4XGvc1jcQdfmS+A83Mu6Hu9MyPYJ/m5p8t91xSe1Y4dboTG1oi3m4LdN277/4/sTNeE+nr4c5xe37DT6XOdo8zmOQng+6l9oDiqYL/DQLDiGuOB1PwwSGtBrvfi1YVzHeMw36913OwmPWbOxHfpG42orGKOdr5PuOuVUd0mjFvOr7blWXZczF++Xv33652VRZwjCl6BOBAmmutEhBdYjfpt1B/fYrktCvUIWyakDy+WUgWUyKkMpZ0Kb12apfDw6Zut4m8OlHmdtqo/5gXidFLM1puOSPz45JtsmtuFxT8tO73r9J+RxDwWpI50fo2i734x5nJpknK5CkIRwOwpquXu09XkPWsWvMzNbIdriFHbrBccMhdiPMZasWSWrLrsAFp4KkFwHmtc0V+3S9FuE49tjIFe1qQlodqqu3SZBu35Awv1v0+25M5cclP/7xOvkxIGlcooskxNksSzRX8EmKxDU9kakGuNapQJr+KHoioFROXNgJbr0Ucw4gD8SSMJpFn1kunzMFH2I2s26lnjMxzoV5KI/PjUm2yd3Ygx7d5F3vw6d+kP5iafufLcQbfGm+Jkw9YejDsvr002TGmPd1zw7dp/TMVu/Kee/BDcFxwpDVwBmFxwr4EDY8slv4yDjEYHujgcgNRIqGjdb42lQzpuAMUI8QeNBt8Pq9cbqfAKimqyuHW3xbHO/TCvcF7lo9U7ZP3BY7thyLgh4CNQ+DIpfJEsHRuAPysjAsAyBBBcNotvGP94qCWM83iJkMfKjGLMUY5ZDVg0sgT0io4g7uNKYNoeBsFOL6j6V3mgNSTrVmJ0KTFGjTuO8C3ge1EzxujDM9rjSvLDXlkl+e2hKzjp5j/zlb35WLn3oJk6Q6lw37Ta/GbcLQhL2EqryhNdbjLvIOrr2VKQxhK+xh3pFm+9w2/UjQSnnPtecgmMBvE75NBccS6QPUd8W1s7jWnrSM6+5V35zrT3aSvo4qpPm1itf2VLXzE2TRcPaeJfulZ/ObvE/s+4C+esbns6dmV/gAcAeGPBg8PFgoBYH0gOlSPHKr6E2no9p0mNgy62Tu7Tk0odtlH/6v/+mdp5mOq3zqVchxtmt86Jf7rdpShMkcuYJr+EafbO2l8+xPj/hmmfCPP8ecwqOFXgoFxxjcDnm/Nc9Pa+bT3UGVfvaeVw/j/le4rVJcMy5jSORx1/SnqtED/a4Po4xOqDXmjlzedwDl2etuUt+/xmfgDPPwJ1mB54Eb3pT2BntsNmNJ1Gbccu1rb27xoNvmnXJPjB5ULbyC0iIPfeHbpN/eg1IHSWzEhJtWzxI5yA0nwMiPh/UPj7tSqU5zmo9rsswblOsrqfvsaZ+8j/hpuBYoxD7AsFZL7kEt9WKbLTrMtTDnlmqNsvATlS70aCVzGcSzEWdf/WoqZkLfn6TCONq+UF59Clb5J3Pe6+cvKz6av2xAPYGRO1kzz8ooP0RNDvnQ6z70e7Ivqn9snNqD2qn5E3//YuQq3F/sYGZpEmgTfE8unX8AZdA38E74dpsfXpRoy5u1E9mQjqdvtqGY7Y+5ZQfEjn9MkYLjjFwZBUsBOiHqE89P3XdOHCTti68ppHLvtlNYQ3y7NJdg380R90l2H62SRo1waFf0w1p7SqbtfC76qxGfyEpxc5YvF/e/IxPys8+8iYEDNyp6TCneT4gdcndPYVPAB+w9ERkmZgaly3o0ndP7pOzTtoj//iaz8hzn3yn3sdphY+RP07x8YrxKCB2bl6fM94Nt4Pob8t6DkpvEIt1tTHMW33Nj0LEMRRu57xX46ZgIaAQ+wLCxf/40+AO6/em0drNq6+L4clvCHsx9pK9cq3iHTzeCHoLxtd0iCtZN/MNnfO0TQc5Y9kBeekjbpY3/cgn5LTl6N69teyFY5xntpKOHOgclk1TO+Skk3fIK59zs3z2rR+RSy/ahPuGAifKXropjMdc9HnNdXTrvm2H2iFQy3GcGo045yQxE76tJppx931/dqwQ2XwHjIKFABxlBQsF7NpXP+18JW3tyCG+Pl75novr7FWsWR/F41qD7eXjFIY3pTnhJDKjgCJa4yax04x2FHbtmuNcSS459X6QO7r3RzUuiLVAMYE7sGVqt4yeuFFe+exb5LN/9BH5lWffHO6j6V4yUz4Ka3kVR3+e+NyZVuHyjMc9ZpK7c/pxTC+J9dGn+D4fGhbZBmLfxy9dFSwE4C9LfeoLFgjS9WP+QbovLdB99kv2IX7NmHT1x6nsV5cYaDlDxs+O4RGrNjs5aG3tIDOdHdOMz+jbfHle6lDn0hi/6cAy+fxdPyAfuvnxGLDwsLtzELJfXvmTt8iv/CTIPD2QSYgj1US0HR7jeji/lISHpwbmm7E2P9a57984dcxmHpe1p2KfFok8+UUiz3szswXHGIXYFyC+/MP/ILuuvksJ28k7X7bXYr2IPr0h8HICSUci77bTkVkRPBF8BvTSAahrIdxpfbUxPhP4NITenCdLvZ4E/7k7L5LvbD5XvrnxLASxt3j5DoTlkvn0d3cOyLJVm+U5T7xbfuUnjNAJ6l72dNrRK07g4RA7Ewb/c0m2aVBBczepCd1l2B7XeZiHzh/AElaf0ea7EBtPENm+Mv2s4Y/9b8hvW6LgWKIQ+wJEvDjYTETeTeyNOP5e9t9ErUg9+ezkeYTzQM9ETq02NcAaJ+QaMc/k42XVi7Cni/PNRucJ8S4RuX/fMvnPOx8it246R755XyL5+QCXXFau3iZPv/RWecxFG+XSC+/ng1cJEXUvO2qil01En6SOh1iJlfE2HTGdT5tzRWJ3tI3zmNt7FovccVoidcrzf1nk8nLRr4WAQuwLFN/8pY/J5n/+CgiYnXcLYbf5LblkV0syvChYWpphLpE8iZxHakXwdT8TapOQj9TvimMz8Y2gKaxzoldtfqPu/n0r5OubzpJvbzxbNu9dKd/ccDYGHF0sXb1ZfvSx35FnQc48aR8fmCSE29F33cuO2jFTfBzPyhhc+rjrBFUutxgDuTP3OvrJTPCBfn0YR7SJ6PsbCnFwWISXRnZSX4qde+XbRR76QisoOJYoxL5AkX5h6W0g3mpphZ23LrGQkGtr6hWB19fm3Yf2zh1HZ9LBxzwkTB7nrcTuZDoTcWciDjGNYzpsKxF4IPJe9VmsrjVu8/i+hfimvctl876VSvK3bjhLtu5ZJd+8l9dn743TVvFi5iKnrt4jp6zaKSet3iVTmPvUVbvkJy+1sz04P5EeqCREm9/UvXLEdDEHP6jkmTC4mzXQb9Z6jDraMUaQqNvOg4/wODXr3f/amSL70LE7sT8S7xCvvs+SBccahdgXMO5645Vyzxs+VyPoau288jPh1+KJ3H1tPnboSdxP2pdefH2dR7B2fKqTZAJtI/RWH8OxL0lbnPNMS+ShftZ5+D5v3E+PB3/T7uUpDmzcs0LOXLVXzli9F3WsnUaI6eKue8Vno4k2m6RuXyDCvdC4puDQj0OanbrDj3KvzR28zZvRGJc3wH2gTbnrJJG1q0DosPkD5Mvx7vDYbSKv4K99FCwE2Eu8YCHirBdfIovXnIRjieef+7dMWzRPc3Tdca29uOWikLabMWVAYwSTaFM6FNTNRus3S5s5xoNWm3Wmm3PUJOR9Xp0DtorV+bwx3vDPWLkvyQl75THnbVSNB6C3eJfaFp8u1xbvJbG+aQdS16eFyvP0qR2wmdecw2wdl0wF3svrpM66OC6Ctb5fW5eK3AZin8DjOYEZqR+5UeT0J7OyYIEAz0rBQoVeQ+b30jVkauemg6Bqumlnqc5v93PcK+1z0k917OJUsG3XCounAxwHc1OTfPI3SF2bMJf9WGPj8niriTHVIe/bUO12rGvE23wVG8M4Jd+3FpkuN9fC/ST5tuyDno/OfMy5TW2SnzfXzboYixLj+nhB9o6IfPGctHyjgsfwrF1gERT8wIsQKFgoKMS+wHHWSy+R1U+7AMdXIuDcgaseSsTc0sVPeQfvNTaOT3nUUaq+ri7s8nMHjzeARIpmNyXG2SW7jrbnm6I51tJ33ZA8j9uNuhiPvorXmK11jOGuHS2JJOl2jDXjbTUeJ3k6ebsQ2GX8r8NzRKitdfQ+iHO2rdcTYazC94W44czUobuccFDkwdtFhpaIPPSlVlSwEIBnp2Ch4+H/8PzQWUdhl814ozsHaeWY2l7vNS4+tqpJx3Uic+/gyQisU5M3mSBbpBa3WieHWqxNYp2Jd9217jvYXu/duMYbfjMe8y6cR+9b0E2Jcdptdc2aZqwZb+YoJF5+YYiaYI2jbaznPUa4HSWOI3rlmnHimrNENi5Pbzbs1BfBeOKGVPPgF2hJwcJBIfbjAFySedg7Se6RlBMx1zQ60GRD1E65yUZ9tQTj8boomVNMKcGrTmPVIenwoI/CWC1uhJlJ1exYl2NeQ23xbHvOamsxj1uuzY/z5Xyo0xrL6bgW4X1ui38vovvUEmM3HWMQvZgXJF7UKz0pZnuda6vPebM17ss7nutl+/jbVot8G0JSH8djdOIBkR+/O+WGRkWeXi7Vu9BQiP04wYmXnS+rnnYhjiUSMpdcmksttgyjMRA4bV2S8Vy9Li7F9FqW0SUYSvODVIoSPOpIiNTuU+tSR7A1FyXmWGvxrC1eq7W46xzzuOdm8H3+rrqYp8bdjEKiaxJf9GO8affSTSGRkjxpO1gLYI8q3RxHxDrE9CkzO2vGrS7HiabtPnTnthOl84VzsW+YkMsva/aIPHOd1SH24J9LtQULCuV0x+MIem77BW+V+CUk1/HURv8CUludauSTzS8nMU6NMdD6lmDj/dTHRBJG8xZTn4Hm6Yz51MI2aannInA+TbGRr40zW+tCvGu82+a73ZWPOY/3ikEIt5s+0bSPRAN+ES8Ncd9gZzBIHzoerfr4xzrAylIdDcxbI3n+NRCRB6hXYRxv8JuXyeQnHozxeH1gwsGn3Cdy8TYkMYD1lF/+rsgJaziiYAGBL6GC4wS6JPOPP4PjqdFhowufYiduQnpu5rM2W7v3nE+a3XGO0VfhUW8ChjCqr2K5s4Zo5xvsnEtzV3asoW7J+/jcUXusEffxsa5rHGyNxXyzLuTbYk5kTTFCfsDCLh3C9xNsJYFzOrzOkl7XRuqEz8F8rnPwrwFHHNuwO2N4DW1fKuOffCgeXjwGK/Am/wu3iTx8B/YVvi5nQT/8ZYXUFyhKx34c4lu/9C9y/3u+nL941N2Zpy8ope68Hs/fRLUcNS8GljS/qOQdeyWxQ1cb9U7vGmdnqwJ3uo48a+R7xsP4OG+sa8bbfNU2T5ud60I825433ZWDEFH3ivfSmCprtyHeadPN+RbtriI6bvPNgXXm82HtWuaJ8Dj05PrVMvZvD8Fz35GhH9wow4/bYDlOmGpkZLnIb6TfcS1YeOBLt+A4A38fdfQ8/+ISpdGRoxP1jhzUDGG+WmNPuop3zRMFdYkZyBaxW0dcmR7CGu2KzVYN0U6X2mKqWduW97jXmu1ds8dUQryX3zVPj7paPOZdN+ss5gQXheTZFm+KfyjpgukcNNWNeQoRNN9r3FY0t21z5vn0A1NYmof2++Hdt8nk5lVy6NMXy+CDd8qin/u6DD/2PtR53mrp/9g7OGvBAkXp2I9THFy7U6678K3ouv2SArEzN60dd4847KrjZ6ee4t1r7Ul0nVW3zM7dOnYNJKpXzY62JghP18E3812CuNYF3+083m3zm/Xue31NM95mB00mdL+rNsSJqNtiKFVYTF2PQ+t7pNkONUONp1kX6xlT5IKk9bK8tHk2CzWhuuFDpg6OyuEbz5fRS++RwaU839JqVDip2Y96schPvjP5BQsShdiPY2x899fkOy//cI2wI9FX5A2/RuRJ5zrGVJOsqeukTklLNOkoz3179umkeCZU1b2kJc+5ZlqKmY2vOox3v6Z7xPVOed5jbXlova9Be47QBwRgnCH3o45xh9c7Yt7rqeO87NTjuFhHUB/iA2uIcRYGf2r/4kTojMV89FefK/Kr5SfwFjoKsR/n+O4b/0vW/v7nQLoVYWcSZ+dN36SN8GvjMoGneHPtnXke4eSNrrNjTGdyJ8nV1s6j39AkJifimti42frcj2xTez7U9Yyb3czr/fFcS7ypvYag3dC5006uNsKe1vE5YdrRjJuOnTs/51Si9zxxGEEuoajvGpiN70s3BPXIYpHfLevqxwMKsfcBvv3LH5XN7/kSCLoi8hphd8W7Cd39rg9PBTUgPp4W6USfidzF/RBPBAtXdVMYb3TmJMO2jt2J1H2NTZN3X3XTb+pGnvM26/S+NPKutRFuxL2e8DjBbUVoLcCw1zs8RzAf/V5gjdf6psawgyR2R1xOqekQ1xj8WMP8EOb6tVvRsZ+X4gULGoXY+wBcb//OL39Edl9zZyJv68idsHOH7h07c0rqKd8keO30W9bYvT4vyUCnrp1UUCd2tZ04a517g7hrwnzDd1vjLX6z3v1afoZ43Ndsp1wHMuAEznpo50F+pkBbl6R0HKNWx8PKfeR8DOfkY4NoeoxoaD0DEIfV5Dh0rqc2O6QVtBXjmJQ/hkF4klAbVR5r81VsJs+//N9Fzn+qhgoWPgqx9wlI7jc/8+9k7N5tDfKmToRcxc1vELrHk9CuJBO7ET79GpFT3A/xTLiqm4I45unOM97w3dZ4S979Zr7mN3Ujz/2ezqfW+9TQrNO56JtN+HiH1zHk89F2reNpGHy+XmDex0XNs132LYINrYc3NRRR0814w9fx0M99s8gTX6XhguMDhdj7CCT3Gx78R9MQd/BhO9FXa/H1utoaOwkdpKRLM/S1Vo9+2CRx0oL73JukM7mz9mivqUff5835mIPturXedM43/BDXDr4Zp/b5c6cOwM/1fBy0nja1+WrzBr7dsl4153Fi9vEt8BKrkoF9I+jY9c+MFPCBagfNOO0cN19tyDDmePYfiDypkPrxhkLsfYZDIPcbL/qjRMgg7LQE4yReJ+6qk28Suo9LhM58c+3dfeadwJXESWS6JxWhtXbuJLaeSzOMT+Nz3mxT98pb3HOM1+rDOM/52Oy7bXHC89QMNZZqVDvBMx/jBMfmuuBT53pAcxaP8DpqPHyqvWb/sMhhCPOObKPIbdVtPgwS/MioyMs/JnLhU1hYcJyhEHsfguR+w0V/aGQeCNwJXUk5EXfu2jVvdcwHkq8RunbuEGr6GudLiESeSDxxTIPYgdbz3Dk2+m5rnL4Rfy/fx+d8sHPO4y311Dk+gz+truy0PI37jfEd0/oQeA3BGGG+3vo4zsGp1DfoWBppIj1svVATGDcGQiexm287ksAyxr1efSDH1Ut6+UqRN9m3TQuOSxRi71OQ3G/6gT8E6TppO0lHAq8TOvOpUw+2+sgboSux6zxJnNhT586XEm1SRSIo9V2TNVhDUiO5ZoGv8UaM2uO1caE+xnOsURfjXh91jgfb54h+1m0x07yPOi9twOfQ+66Rbp+g3VYHN+VgkKipIzSPG35Yug9dNjv4DNR7eU3bBmLM4yefI/K6b9IpOI5RiL2PkZZl/qDq1GuEDuKudeXdee/aU4efpGtJpmfnTppwn3uTYqqVdClwOeaB+KrhZ9t8jzfrqLkDGov5Zi7mQ65LuzTivM8xT5/zuIZKOtUpV9PF+Nyha8A1x3kghPFP6xmYHJTO7lGNZ2i5FbR27urV9X/7A5Gn/a/kFxzXKMTe5zi0bqd8CeRe68JrhF0RuktF8BYPflxbd3LXjl3HkrxZQ+rgy4q+E1bQVCRCJWPKEfiq4WfbfI8366LuaTfrgs/70Yy3acLrm3Fq7pPaFqfL+kjc6kOaeffjnA6eAbNrccoTrh3qo6aZj/EVK0Ve/l6Ri36IwYI+QCH27wOQ3L/+zL+W8Xu3gUMCkVML/UDo+oUkfwNo+EriSeclGCf3Hp07iSOvvSspGbG7r8TMImr6cQ3dxf1ecUgt34j7dqjb6tpqomacyJo3sF3XxphNxDih2s6Dh1DlzpvQOMcyaXMAWh8IPtczsWtUYwnw9XD2AsBzqplXr8JFjxf5zX83p6BfUIj9+wQk92/8yP+TsXu3hk6dJJ2IOhM545bv5SeCT9LVuesbAXXq3MkkSuo0NR9tAi8/EiZJUonVfYu5z2KP12xqr4v1LXGOy3nYXpfjjbqmZp77q37MBVvvDzXgfi1PmzdWB1XXoc7jCo8zAINqNp26o1m3CG8IL/srkcf+tAUK+gmF2L+PQHLnpQc2/MFnjIhJ0taptxD4tL6ezw5y1lgStds6d9ymD1ZJNRxT2ZrXAtgkslbCdgl+M885uuIteW6zmY/bj/6sdMPm/DFOxBoi1hHu06iNQZRltGlwyWbK8rvZqWsCwkKNVqj5IU998ZNEfuNfk1/QlyjE/n0GkvuW935J1r/pM9WSDEh4+o491Tihx3FO7Klz5xeaqpjHq87dNOpoJ2IncVFDGCT51gjZfI0Hv5nvituYGM+xRn3MEbGmpttipgkf34zTVs0bH0c7aI8T3C+Cw+I8BM96Iak7tMZ0NqDVD6B/6jkiv/3JdOZLQV+jEPv3Kda96bPWuRuRN5dlcmwaXyX9Nqr7vjTjHTs7+AG8EeQlGGo1uomeJKZkHwnaSVbtEFcdfaupxRt52jHusTY/7kceG7XZRFueUB3rg0/08tVI8dyxE/yBi73hPHUvSAMTwnAF9Wkg8l/6S5GHPjnFCvoehdi/j3Fo3Q751o/+pYyv36pknAgboh15u0/CroiecbOtY89nxzAG8U5efWUZ2tx60FTqp5eikjttEqsSOn2zPa666cd4qM92o66XH+Pcl5h3P2qtN8m+19OmwHdbdcgT2W7ECfq89C4vFdCETZuAmkj0ixaJ/MxrRH68nML4/YZC7N/nyOR+L8i9rUMnMXfFSdap08+/vMR4FpJ1stsIPtFOG7EHX2uTbiX0Gnm7bti53nRtvhBr+jFOZM0b2DVCd23SjBMxTnje0ZaPODxkl99lguNCQZhG4f5zQOYveJ05Bd9vKMReoOS+9b1fkvv+8N9Avr6GTmkndM/VP0xNeSd0ii7RwK9In6SdfFKTr60rTWmOMEL3OJkqE7QJEzUd4mo3dcjFeLM+10yne9jczxyLvudp86bNpxHiDvoHQOoT3ME2oCB06AcHFsuSF/22yE/8ivoF378oxF6QcRgE/+0f+zNbmql35InYnejpVwSfCN+F8UTg9BOpt/tpbT0RWv4gFbpXJ68E3CTyps45avO78iGu2mua8VloIseCTagOOYJ51Ulln8j1MBg+NAxSz4k6wrBDE8vl6+PPk8d/6q0WKfh+RyH2ghpI7lvfd6Ns/MNP1Tty2HWi97gTvEv0E4HT7kXwZKja2jq11hGmg18j8kzEIa52Q/e0G5px3Qb9Rk51sL2OOuei73W0eTOT7xpxrqf7j2Q0gbTWQW/Zda5s2PpQ2bvkB+RpN75G0wUFRCH2glYcXrddbnvWn+rae/7QVJdcugk95vkFJV/KUfK2zjz59aWZROC0+RIkwVOZdp+aKvrUHDNjZ96Sb/NjHPO35xs269ryRJdNw+qIXj4NrqX3XHoBUHbn/Q+XTTvOl8PjKzFiUB77gf8hqx5/vhUUFOCVVIi9oBdI7tvQvd//R/+qRFwndF+qaRK+S6rLJA5GqnyStemcZ45bbSHyHn4m4EzEtKmbcehe8aiVT2ehtd7F/FocNtEVDz7hmuBhyMvuTpqvYAHnGpB7t58tO/efIht2rMHjNQQZxO4MyVk/c6k87K0/q9UFBY5C7AUzYs81d8jaV7xLJmzt3Yk7Ert36upbPhJ7snt37JHoibjW3svHTdatxB1jMd6syzVtupdt2rfv0svPGqhpxNmh87K7Dew6tELu2nyubN9/shycWA4aH8JjkAidxH7+cx8sF/3pK626oKBCIfaCWYHd+/b334Du/ZNKyhRea4aEnJZenPBdKmL3NwD3a0QeCF1zIDq1uVGSJ32a2adtOvpaZHq2SzDKpS3xabXZhI9vxmnX4sEn3Gf5GCYJl9Xdc3iJfGfLubJ132qQ+TJsAv/YoZvm0suyxQflokftlbM++CEbVVBQRyH2giMCCf7On3gbuvctIBqScjuhq7Qs0UQid2JPpB67eY9zi4nYSZqJ/oKOefdRpwHqNiJX32JOzLmz9/wsNFHzPW/iPqEx+G7T5B8mRug7DpHMT5ct+1bJgbEluP+JwCOhUy8fPSyXnH+zLD37JFnyD1/QsQUFbSjEXnDEILnveP/1svnN7N6nJ/JKUl0ibmiwW+WTnCutSzQh3krg0VcNaD1hpFpbinG/EaNuvgGo7mH73LVcS5yIcYLaDrftBxfLt7acIpv2rpAD4yBz/iOB21ILl1y49EIyX3Py/XLeSffJ0kUHZfzcR8rIn/+bzlFQ0AuF2AseMMa4PPOB62TLH30chAQinobYSdRpSSa8EYAEa0ROkm7GnfARJ6q1dSK9dKulGd5yjGkaGKsB6tyhN+Jt+S4N5NpgM59jDd/sA5MDsnb3Ejll+bhcd+/JsmnfCtynisCpV45OaOyM5ftk+eIxOW35bjkVonM4fv43RH7u1eYUFPRGIfaC7xlj926Tne8Hwb/FCF4lEngk9irmcdUgsIrQKdFPmj6Jjj6h3Km+afdN04h2JuNmJ9+lp8uZJpz4PU6oTSPF94wPyYb9izTo/3BHZOWicVicoCNnrNjPAdU4h/oik6tOk6HX/LnII56YAgUFM6AQe8FRQyL4a2XrWz6mZJ2EBE+Sri/FuFQ+CRo+iE3j0M2OvYvgdavMmVYf0DpHd53yKeeg36V72Q1NxDrO63b0swZquiWuCHHiF39d5BcgBQVHgELsBUcdJPhdH7hWDl73bci3ElFD/LTIiuhJtu4b0XuHbrFE8Elrfc6jniRIaNzBnOmaT4Q6jFFn1tqE2+yKwyZq+YZPtPqORvy0s0V++60ij3xCihUUHAEKsRfMKfg7q1vf+i+y5wNXZfKOogTd8JXUncBjxw7yc9LPca3jlmibNp/gGEezTg2qrqWZYLOgueSSa2KcApuIcSLmiBhv1p1+lshLfk3kx56fYgUFDwCF2AvmBbw0we4PXoMO/lY5fP2tINn289urTh6+kl4kcOrYyae6bFPrmLRNtamNQFPYYvkmxM1PRA6Q8AnGMX9NEzlGJ9jRJ2byiTNA6C/7VZEfL4Re8L2jEHvBvIMkv+dDX5R9H/yCTK7frGfRpA68Eif69o492U3CT5o+t0LbdCZQjxEeTy9/NXmDwyHHneAxr+ZUnJBjLPg940BNI37G2SI/8TyRZ/10IvaCgqOEQuwFxxS8RPC+D10Fkv8vmdoAko8de4PgnbiTz5oQh9Q7/CQK+Kr0lrWm1XdYnIcDdJVLfhKfz2wtivngE808ceaZEJD4Yx4n8vJXWbCg4OiiEHvBgsD4vVuUWA9xqeaGW2Vyw/0yfsM3EDOCd0JXm9rE4iTQ+htAla8TeUW87tfiVBoIcYPHNeHifs84cBaI/Keei64cpP5T6NALCuYYhdgLFix42YLD139Txm78Jrr5TTJxw9dBrhVx9yZyt7t9Yibidj72XK6zRG0cHQ1UeTkbBH7ppSB06FeWXzMqmH8UYi84bsD1eGIMnfz4jV8H2d+vhN+5bxM4NRE9L8ISO/hKMw6V3wiI9NJ3O3fkhlwDI9lEIH4SOMh74HEgcdY97rEQ2gUFxxaF2AuOe0xu2Ayy7ejyzdT6+5WgJ266RWMdEL936537NqoWaBKxE78S+llnVIQNaB2Ie4BxErjj0sckn914QcECRSH2goKCgj6Dn9BVUFBQUNAnKMReUFBQ0GcoxF5QUFDQZyjEXlBQUNBnKMReUFBQ0GcoxF5QUFDQZyjEXlBQUNBnKMReUFBQ0GcoxF5QUFDQZyjEXlBQUNBnKMReUFBQ0GcoxF5QUFDQZyjEXlBQUNBnKMReUFBQ0GcoxF5QUFDQZyjEXlBQUNBnKMReUFBQ0GcoxF5QUFDQZyjEXlBQUNBnKMReUFBQ0GcoxF5QUFDQZyjEXlBQUNBnKMReUFBQ0GcoxF5QUFDQZyjEXlBQUNBnKMReUFBQ0GcoxF5QUFDQZyjEXlBQUNBnKMReUFBQ0GcoxF5QUFDQZyjEXlBQUNBnKMReUFBQ0GcoxF5QUFDQZyjEXlBQUNBnKMReUFBQ0GcoxF5QUFDQZyjEXlBQUNBnKMReUFBQ0GcoxF5QUFDQZyjEXlBQUNBnKMReUFBQ0GcoxF5QUFDQZyjEXlBQUNBnKMReUFBQ0GcoxF5QUFDQZyjEXlBQUNBnKMReUFBQ0GcoxF5QUFDQZyjEXlBQUNBnKMReUFBQ0GcoxF5QUFDQZyjEXlBQUNBnKMReUFBQ0GcoxF5QUFDQZyjEXlBQUNBnKMReUFBQ0GcoxF5QUFDQZyjEXlBQUNBnKMReUFBQ0GcoxF5QUFDQZyjEXlBQUNBnKMReUFBQ0GcoxF5QUFDQZyjEXlBQUNBnKMReUFBQ0FcQ+f8BS2txnE1OwY4AAAAASUVORK5CYII=;" vertex="1" parent="ptZlQ6mGTicB-fKNkLHr-6">
          <mxGeometry y="50" width="374" height="317" as="geometry" />
        </mxCell>
        <mxCell id="ptZlQ6mGTicB-fKNkLHr-2" value="filter: url(&quot;../../media/examples/shadow.svg#element-id&quot;);" style="text;html=1;align=center;verticalAlign=middle;resizable=0;points=[];autosize=1;strokeColor=none;fillColor=none;" vertex="1" parent="ptZlQ6mGTicB-fKNkLHr-6">
          <mxGeometry x="27" width="320" height="30" as="geometry" />
        </mxCell>
        <mxCell id="ptZlQ6mGTicB-fKNkLHr-7" value="" style="group" vertex="1" connectable="0" parent="1">
          <mxGeometry x="827" y="155" width="370" height="377" as="geometry" />
        </mxCell>
        <mxCell id="ptZlQ6mGTicB-fKNkLHr-3" value="" style="shape=image;verticalLabelPosition=bottom;labelBackgroundColor=default;verticalAlign=top;aspect=fixed;imageAspect=0;image=data:image/png,iVBORw0KGgoAAAANSUhEUgAAAXIAAAE6CAYAAAALL9kIAAAAAXNSR0IArs4c6QAAAARnQU1BAACxjwv8YQUAAMM2SURBVHhe7b2JgttIDmVLKVcvVdXLfPD88Jvusp27Unr3XADBIFPp3S5nV8BGArEwGKTIIwikqM1BMg0ZMmTIkBcr27RDhgwZMuSFygD5kCFDhrxwGSAfMmTIkBcuA+RDhgwZ8sJlgHzIkCFDXrgMkA8ZMmTIC5cB8iFDhgx54TJAPmTIkCEvXAbIhwwZMuSFywD5kCFDhrxwGSAfMmTIkBcuA+RDhgwZ8sJlgHzIkCFDXrgMkA8ZMmTIC5cB8iFDhgx54TJAPmTIkCEvXAbIhwwZMuSFywD5kCFDhrxwGSAfMmTIkBcuA+RDhgwZ8sJlgHzIkCFDXrgMkA8ZMmTIC5cB8iFDhgx54TJAPmTIkCEvXAbIhwwZMuSFywD5kCFDhrxwGSAfMmTIkBcuA+RDhgwZ8sJlgHzIkCFDXrgMkA8ZMmTIC5cB8iFDhgx54TJAPmTIz5TDYdYhQ76TbA6S9IcMGfJd5UtPrU3aIUO+TEZEPmTID5GviY9GTDXk62RE5EOGfFfpTidOLYLssmuh66Ya1h1GdD7k82WAfMiQ7yZ1Kq3scyBH6GKYHwP6gPmQz5MB8iFDvkXq9GnMpVynVPlZ7oFO1ROA91rS+0OGHJcB8iFDvkUKzg3SnE4rPezTR2QBuIuyBfND2tJNd/mKvi0FM2TIUxkgHzLkm0Snj08hKaxt0Jbd0NaVG+yRBLZV0AbcwLws9T3M5wWHDHkiA+RDhny1AGpOn9QG7mNafUvwE+C2J2FRg7zaeoAPmA85LgPkQ4Z8ldRpA6AF6jXED4+y0k35WGljccJ6SoA3kMviD5gP+QIZIB8y5Iulg3iBvEXeKODeqV5qmyC31rIFaQCOnoYa6CjtaQ3vBDiLj3z5kJUMkA8Z8sWSAF9AnHICvCB+eJCPqt5QX4O8AI49Uzm1wV1aqZce5iMqH7KSAfIhQ75IgLfUqRROHeBcEXfBG3svK7+s+6AsJ2NAE4EL3Ie0m3PVSRvMM0Kvi6AN5gPkQ5YyQD5kyGdLnSpYgHwM4sD7ThaASwH5XuVNRuSVJ3c0DrBLBfDtpdoT5IY6ETkRex+VY5EB8yGzDJAPGfJZsoK4QX4E4oY3IJcebsK30gbMc5wtIM8IfLoIcG9epZ9lp1uIyOkrgBv+fUQ+YD4kZIB8yIuTTx6x38q3fnyPdcghD1o3Ph3kKxrfLCJxovA79blR/a3KgBwrNeAL/BqtInKgbXgL4k2zzu0Anr4AHZhXZF46ZIiOhAHyIb+iHD0qV9z68UdurMCr5Y9XiO5V3MvbyRbI76fD/nbabG5lr3ViXasOiJcF8vQF5hrMcAbSl1Iicezr1IrMqQPm0rr4ubjwWTrk7y4D5EN+OfkYxPu2j/Uree7w3nzsFr62iBx1o+fhALwpE5ETVQvIeWfKZkM0HqmUA+CWbg5X6quIXFB3ZO6cOakVlkUS5NsO4tMblRPmB+pQgA7I8+4WvwEMmA9ZygD5kL9U4vDrQJTu+qjsy33Tk6NXyz8Z86MSAzwF+zzwJu9Q2TK20ylzXnzTLm4qGgfkewF8ugqQHz5IE+TukyBnXQDZFzYrnSKIN+1gzgVQR+4dzJ0vl7av8ntiYYf8LWWAfMhPlU+Bdz4cAdSyf3Wrum6xRb/o0zU+K/NCAfIo2/fic2488uKRUtn4ThVATpRN7huIKwqfIhoH4BtDHL3SXGgj/QLIieRlAPKWPDhRNyB/K5+IXLZgPgH0jMoXMAfkvBEwu9Sac8mA+t9KBsiH/FB5cnTBm66u/L4bdYsyuurX93FbP679rExZH+ZPwN18GxfxicaBuE4UVUY0vtlUbvxeNiJxp1ME8s30XrwviMunnvYNwAfmisgZChAb0AVyoP1bgBygA3NA7lRLReXqzx0sdUviMZiXxOYcl77fkP8JGSAf8t1lcUQlM/q6cqsO29fht7bSj9WjLoHctFR63b1fIjB3xN7wL4u2dJc1wLHkx7fA/HHaboioH4RR0iqA/Eb1CXFH4sD7vf2Dy7RlaoV7ydvFTsHYtxiSA6/USh+VF9Ar9ZIwN9ABOcuTKz+SYjkq9FlJbfSQFy8D5EO+q6yPJopxiCVQsfyzS131+bjdPynHGGA46gPhy/Fd4fJaKgovlmGoi/IBPNonAt8qKkc3h51BTppkIzCfbLjAeS1bEP8wbRPk6Ha60kTJmStq564WXxhl0lLDmDtSALTUkXcCvEFcdpswn9BMsWy1nL8NyhhMmOgcoMulvN7c2kjqyy9Zl4e8SBkgf+nyOS/fTzhZ+2mUW3UYg1ZO+L1NEEv3ovVB0aUhnfUAvCAe/rIPlu2Lco0Z1oyTrg/xDVct3Su76E9T1wJv43HaKhLfqu92Q258J2hLHYkL5AL09nBlYG+nDyorEt+/s++o3Bc9uWOF2w/ni518Aog7UAAxEXmlV4B4ReZAvMqCPCA30IE5bwDdxU/fX86YqbW51PV+SfOP1Q15iTJA/lLlyMvWv5Rz6mAWWo/Vf60spqBhKcccYh14FAO+2e56wBv+fp/tWYcfNuDcrPvKV8+oUxk/U86qcp39tDEnedrm2jfefGntBheJtrOOtw8gHvYgcNO2FzL3hvh28zCdbu+nk8PtdLq5EbQVkQvaJ9O7ALn9SK1EzpzUCxAH/jvNgy1hXYAcIGd6BVATffsCJxaIr2GewHeKpUCeMGc8rWHecAw2ttt+OLNvW/WS1mfIS5MB8pck65fK5Tj5eBn707DO4ybrk/QrT9o4XHJZmSpjqql8ioZwwnYJ71SVHx/DRt1memQZ+Y8ofd2melXO5aWVsR9Wf7V9vD3gek5uoVqFBHeUaY7ylsBWdQFwLJE5AD8I2o9SovE72bvpbHs7nQnkp0Tih3fyicgT5o7KidJJuZBWudP4pGPIj8c8Ir8tCBvmgJwUC1F3gtz6mxSQF9y7qNzLAHMUiJNaYfZSWySt94F8bzSWyiyj1V7S+0NehAyQvxTpX6ZGp6gzxI+ee1nZGtX/K07Y+RCJ/gHF9OVWa6RGKEcUjQ9cAbCBi7otAG1Vp4C0fI0RdZ0trf7Zh3E8LutFWR9j5+xm5a+E6dbmCsyepbY/7kpJiMtxSsUgj3TK6RaIywrip4LxuaJxAI6eb66lH4RjgVwAP9sI5IL6CXBX29Z3rNxqHC6Mxq2HvGlYDHIiaSLqjMorF76AeUbmC5hnXt3LaXk/i0VKiqXBXKZtMMKGsc6ySOf7WMj+n3lcDPl1ZID8JUj/EuFX0T6oChj1QhdHn+HMSkWdqGU/IXGIRN8AY0XgsebyATStBe1HEbiAW2COiHuadiLyjnp8t2c9y6kP7dG2tAvYSw3xWqfWXpZtiz1Tc5awCYa4m83SllZRH5iGOhrXmgzxLTB/FKR3grhArmj8XBC/2FxNlycCuQB+sX0vC8z/VL/3QuuVsJppF0XjWy3Lt0BJ0TAbcuT+63QIICYy5yJmAtpplB7m0rotsUXl6scXiirFsu+i8oJ5U0TWG5wb6TcSqvFpS3U/7JCXJAPkv7r0L4+JWdZOK/My1ulHVaQQUBfcfV1nKbuS+bCI9oBhQTvKYRUFi54GaKctgpa/0x/DWQ0A2RCnXv6D2gLStFe9/K69b2O8pWrdmqLXqxlGZK55qS6s/uIzWTbF4JZji8qVmm0a4UT2RAB3OsUQ309nWyAuFcQvt6hAvv0wvdpeTa8UhV9ILxPm5wI5oD91RH7bQM7YqPeY93nCtKJpPxxrFZn7jhUUsGOBOX6BvEuvAHLG8oanWrp1FbR58iJK2RG56mpHeG5lh7wUGSD/laV/aUwl/QFUe6CQZQiWdVHJORgno5FmQin6I2dAB5+44baTdXXSLlZLQe1V5/QJVn+8eq0WPLX8teoqwm7Aln1QXYAZv+rSV9+w0Y8+O+DtsdLP9p1WCtjVxRAH5qpO5ROA5pW6p6RN84y9vaUFcFnvnojG2WMzyAPi50TjgvjFyU6wvp1endxOl4rGgfibkw/TawH81eZP1QXMLxLkzp9v7oVoqcZixozPbBrISx2ZA1bAXDDPyLyi84rIDxmRH6hXv70gfkCBuJR3tT7FYs11sJFbRe/eWJVP+CRAnZR+rq9lMGmH/PIyQP6rSv+yyD8IcJxXB2hJm68gYqVZxhgWQSkKeXJysgrmJzp5EZ+4EtrVT0ukUDEL9YyJzDlvbKRLDHHVAdOAd8JWFYazrGENtKX3hjeg3sqPtnvReifwPGiMgvwC7ozt8WcbEE/VLJmDqs0ubOTJ9c/bR706IOaV/AK5gB27ChswB+KkVLhf/MzR+ON0bojfC+J3Avf19Prk2hB/I3C/2f45vd2+U52AbqhfCeTXAjkXQx+cWwfidS86O5VpaY1aJxNKda5cr0+LytGMzK2CODAH4AZ5RuToXsuSnnlMkK9hboijQDwtEDfIq405SOvY8HIsP+QlyAD5ryj9S4LPf25bK3JahTCRc4OvNkDfluMc5IT0yamCLBA/GOacqFHn3nmy5pIhqovDIiDv1IkU+LAact+OhkVUYNqiZUAMoG0BN7DeTHcicEB847r7x7IF94A2dUTfAfOKyClrXVp3QXyGeUTgswa8mfNBMLYFnq6TVV1BnLoFyOWza3yXivxIqQjmJ4/ThSB+eSKQb28E8Ovp7cmV9MP0++l7QfzP6beTdyoD9Ui3XPhCKHe2AHJBXDNjb3tdrNiClxMpkBvsiq4Nc1ItgnV/N4vTKiggRxPkj1oWmOsNctK+NcS136yM6bEFa8DNl4lONfYJlnIp/VLxLSzP/Ib86jJA/itKvSRY/vcQd/5CyIKaBrl8iEqf6B54KHCfRrTlaLyDOVAG9vSvkxXfZbVxWPR3nvSrj5x3gBuoBrwF5h0AJsoOQBfAbQWVO9fL0lf1VvrLFrwjCi+Ya33yDXTWrXmxXqtmilUXAxwLxAPmatB2Au8CuQNf+7OSbgqYh/LlHyAed6vsFYlHNA7IHY2f3AjYgPy9If6HAP7H6TuD/DdF4wCeiP3y5FYw5+6WncYB5BoT1X6OPS3LPtc0cmL6r9cHJSrn4qVTLB3MKzqv1MoeVbtBrmWA+U5jAXNDHMvY0oL1SQFcy9iqfCqLb9AzB/W3MlPmhR3yq8sA+a8oBjhaPrCGaqgQZoJKHRJnuZaRGBJEVUCck/NUICf6cgQmpBTM62RV2VYCrBkFcDMcMMdvd55IH/THkbLoWpE38O7BfetyRON31AFw1+EH2Ncgj7x4wTzLrFPzoezcOHPSVAviTq3IAvFScuNq1naFuocA7U1sEKctbA/yrQBOauWEi5uAXFE10fhrgfyNQR6R+D+kv5/8KRsw/131bxWRvzm9VVR+Z5BfnCi61wz19uldHCD3JOI18iSjnBOSAlO9Tu0HmQXdurDZUi0qP6q8R9XnUVoQt9V4DeSMI+0hjp5pDINcfkXqHCt1EdTzYW6YtEN+WRkg/9VEL4dfEl4Vk1QQauEw0BYJH3bTQeTcFMSxUr2YMYapoRMRkJ+digdnDeQHX807CZDTRydpAb2tVmp4i5YGuCqc95ZG2iQBDpRFXUfZhjQAF7jl3z5IsakB86gH3sDaKZb0HY1rAgVz1tnSKfY1J5X3misXPFXdKZG35q3N8fzxDWyserB5gNxson4GefgBcm4PBORnJ6RWuP0QiBOR305vzwD5laLvD9M/zj4I3n9O/1Qk/k9ZoP7H6Qe1cQEUkN9Pl77LhdsWGXPjOBt4B8iZEhMoUV0DOVowZykBtnLmTrNIicQNcVkgbpCr74PG0Ztngzo7hLG26oeeAHBUbwanGgeYn0tbugXos24tZ6Az15hv+EN+VRkg/4WEl8Kni14R34WC8vIoAjbAAbbzF6KhYB5Al19AN8b0oiasAbkhfqETVdZqoGe7TlggfsDyTwQ0GPUnom8uWgrkGtrwFqS5OIk60gbQ0tuH8G8W8BbUu3KBnH6OxjUukXhE4MA5/AZwbTcRuN+/NCfqiMQNc5fxAXikUGgD4ACH/LhjcjgmQBvm6XsHA27KgFz9NgI30Xjkyfk2Jxc6yY8/tLQK0fhvZ9eCdUTj/zz7c/qXIvF/omekWd6rTe2ndwK5ltvwBkB0r92tOTFLfS4KmLNyJivfwjRiQunrtfGE9VpZ9boBct+dAtClj2uIoxoPgNtK65ZEg1zLGN6C+Dkgl+JfvNaxoPbKm/cwtzLHnGfNd8gvJwPkv4jMENfLwX/R1BE2EDfARUXB2vb+fjrcSeVvBPaCPMsGB3QCOhoXxM8BuU5SYH5+brBXZE5EbojrBAWOBjkA1yAVgRMRB7z3fu/gfeRWIXQB/OZemsDGv1VEaJ/2ppFeAdjYlhPX+gLguU7Wrb3AXChjZ3DLwibqNN82Z9WhUY+vBdmR2gURoatFtqLvaEvf8JYrP2CeX8nPi5xngvgFFzkVZb/ZXk+/C+R/OK0Skfi/gfkZPiC/Uht3s3BnCxB/1LKK7DUDQE5aZWtYM4WwAW87qYg3QiYhTGReQCeNAtC5sOloXHYnfdA4hrmsXosWmfuWRC3DG8FJRuHnAjcQv3gjXwrMicwNc40NzH0XC+tmfhqHT27aXQPkv64MkP8qAoQT4gDcYM9I29G2o+8A+HT3MB1u72Qpy5LnoC8XPM0A0ik6wQXxyRA/n7aXOkkvz3Veq84gV7ui8n2C3OCUGqbS+QJmROJapeAtUBvWAHwvnQF+rfYGdCJ0RYSGOcslvCsSjyg8YK0uuW7NQb6qIy+foAbkM6i3nqPLavcbkesj1ULuH99MhD3y6RvgLivFmlEJcgF8AuAC74ZnqjiSfpjOFZFfntbdKgL1GbB+n5H4f6d/n7+b/p0R+T8F8d8E+7enD47ILzXGucY70zyFRLFQ8bgmQzQe6RUU0/lYJkxdTFwKUBPI5M0BOgD37YbSAvi9FIA3kKvsiFx96lujjsIF8jMg/lbHBZpgd7pF/QC6Qa7lepijnuuQX1EGyH8FqZcAgItUBrlCYwPcOfGIxAG5SDodbm6t+HuATqolI3JfRCMHTgQOxAG47ObVq2kDyKkTzPcdyCMKJh9NBC7IJsCdQhGU76VE3y0CB9yAPOGNXtMmS0SO74ublTvnTUGsjFSKpqt5xoXLAHDAOSNsytoE7QH9E7gNYxITQDqsswb4gqOXZzlB3P3EnRng+FiNah71NlX+VsAF5ETjROU85fDsVJpplVe+yBkg/6ci8H+RHxfI/48i8n+fA3ZF6U6r3KrfvSJyblkE5BtnuCsaj4gc1epUF5NzIaymEX5qD3MUKPvWQlkgDcQBNsoDFgvk97K+FTGXIRXTQJ4QN8h/i6icKN0gJyJHC+apNR+05jrkl5IB8l9BeAmkfikAOVVAPFMqzosr8nY65VoQv76JiBxfofKeqFz9wRwnmm85JKUCxF9JXwNxfJ3MFxf6VE5kHlE5SwVUI83hCBwAO30SETgwN7gNca32bq/yYbqS34MciBONE5Ub4rwpJMAjjZI5dzZT29jnuNlo3+6ID5Rd5y0y2OOTg/aLolMNZ4h7i9X3Uf0q3RJApx9j00+dZXtw92B3Otg59AJ5pFVOuVjJ1/FJq5wmyJ0bF8jPFI0L5v9H/r9JrQjw/1BE/rtTMMB/r4j8YJCDwVOicUDOSpmU5umoXNYbaF+Gtiz6zzz5bNNoDeSyANzRt5r0WgTIpeUDe/rWbYynGY2fCeCOxgF5+oY8faTA3LcrSitf7jlKmS92yC8lA+R/sbD7fVoAMUJTInES1eQ46g4VAO5I/GbaXwnigFx2IioXWQ8PKN8gzPOdi5wC9kYQ37zWiUk0/kYnqkC+V/3BII+ofCdIcKez+BsA13oBty9eAu+7ZQR+dQvEBW6gboAnyNU/Lm4SjYslpFE0nu9EkQ986yv1QNoXI5mvPHPCtdoXhq2bAsTWSP9E6uTEc/YnCdU53SJQsvXR3sE8+eO8OX6N3QMdmAvivnNFED8RhPk2ZlzoVDR+eieQx5eA+tw46oj8LC5+/kOw/13R+9uTnUF+rjeFM80DJSdONI5dplakBUVNJSTLTXIjsLyjAXN/JFGZPDi+9ntE4mlR2ki5FMiJyE9Io2Q0bpj/HjA/ow7I054w504Wp1eAucZB23zRIb+SDJD/1ZK7vyBuoDulQhhbEFc0jgJx6f7qejp8kCoiN8yJ2oG+luVLLocznewFcgF8o4h8eq2TVHYvmAPyx1NF4ydnhuJOcHQOW1oplEqjXAvkROBXjsKJxgVz+QVx9FYwcTpF8AiIa+pE49okR+DaPlVp8/RXPPAhB0gFO6E3IArEKcMMswKsSwxlwB3QftRc9/q4z69m4gfUFaUToXd9gXilWjxWgzia61+APNIqROQB8vvIjxNlC+K/n37oQJ5plQQ5EfkfXAxV/zcG+UFvAuKh1hcXOvXGqnkdBTnCBntjS7LeUm3eoFT5AJwdSzSOsrML4gDddSxTufUCORE5IE+In8sSlTvlQpv6OL1SUbmW1/y9fuZZ87Y/5FeRAfK/Wtj9wJuUiq1iVS5eCsxOqwDwm7tpryhc4XAA/MPVtMcK6IDcsG8g1wl3rhOQO1QUjRvkb15Pe+kBiCs6Jyp/VES+U9QFxB8Ehlut0qkUwzkgTjQeAJe9JSqPdMoVgJc6lWINmMetheKHNO5AkWpOQDywLAXWgmf89mUClJSGlG9V1hdz4JUZZk1YG9iC9+bMIN9t9IlCaqCr/tH9Qh2dJ/sM7wXMZbPOEG8wV0QOyLcB8gvuQDmJC53cOw7I/2V4A/L/ypIvB+6kXW6n33yb4uP0SuOfoYLdiV4Pg1wr5B8gj0mUlvQ+0pW966q/lmeH1rsjwCYn5ndNtet1CZ96+upYMMyJyvWGDsyJxq0F8z/kZ6RO+oU0C/lyR+UZmWsbvH7mX288A+a/jAyQ/4XCrvepwCtQKZW6Z5zbCgVoLmY6L/5B0TgAf381HdAEOamWuq/cy/NRnrtVLgG5TsgE+SF1f3k5PZ4L5AL9vSD4IL0XJOIuEwBNqgRwC+BE48DbQA+IO72iOvoY4ioD8bgjJXLiKFHxI99I9XYCS6JdQF3g5vcvC5zz/dvRTwuxYxxhM1ZAfDcJ3ILKAyA3zM94tqDrAuoRmUe6hWUrMmc8QB72KMhPWG/M60xR9Znz46RVyJED8feCeVzo/PfZfxyR/x/71F9Pf/iCKODP/LjGJzd+ormgZMsrIo+NK0XK9qI6Tk1Dk72IpV7L+9ObXJTInHfNgret1Ja+ArCfkJjpFcM8UysoEG9ROSBXVG6YE8EDc5ZLkBviOf8B819KeFWG/EXCKeD3USnnhE/YhPmeC53cieLbDuOOlYjQBXdH6LeRLyciJ92iiN1Re0bvwL/q9uTWZR/Vb6eofqe2e/kPWvZe5duru+lG9uaD7Iew16q7km0qil+p7oPstWh/ff0w3YjitwrD76T3dw/WB72p7PVGtH8Q9XcP0+aR37eU7u+m0/3tdH64mS4OV9Or6Xp6s1G0u5Gd3k9vp3ey76a3m/B/26S/uVIf+vPs76vpYtLy0+10dtB4052fZyJ8SwVhK2+O+QbpvVr+R6R1UF/7YQE8oe+WNyIrVxPqqoKTUlqUdsqxbt6kav1h/cp+heRyhridNElw5qZ1TXoj5EKtdrBU/qlUb0RLX++2+oQx6c1p4pf/N7eh/lFoHTPoo1SvkZX8zD71wLtDrpM51Hywn9yxQ36WDJD/xUK+1JG5lPRKqSN0bjsE5Anz/U1G6NK9IPwoBehlgfgj+XNADuANdAFc0TwQD70WzAV0AftB9QD9TvZW5VusgX4z3byXyr8G7NSp363WcYdqPfd6Q3nQJ4ad9FFvMjveaHYB7+nxTnwJgAPvs8OtAXwpeAPkN9LfNh8C3Ic/p9836LvpH1tFt7KUAflvhvv76fWkvgL+K8HnUnougJ/zUCqBlDgdkJOmKYgbOPa/RmYIG8yUidgFTd4srOVj9SmifZKgXy47a/Au5vWZAiR7UJZlDANcrm2qP2GgCfRT+WdSg7xgLt0C8wQ6ENdrYojrNdJBlao2vX466KRaBt1jE+asz34K8xzyl8sA+V8sc3pFtk5govKdIO7IlhQLtxgGxK1E3VLnzgF72v2t4C015AXsx4zCHz/Ip/zhSgC/mh7eS2Xv31/LXsviSwG57K3qAfy9lnnQGI7eZXcad6fo/lHreLwLPTzopN/dOfLeyJ4IAqdE34LC+T6i50tH4ABcQD68F6QVaR/eTX8I2P/YCtwTIP+vrFR1fxjmROVE5ECcaPzaEL+Y7hPi8axvIO5oWCB1zr2Dp+WTnFFP+uTrAKeQGIM6YA64w4avTwCA2+W5PvrLFmCfiFcU7sekT1fgskhMKLSNI9U8vC7uhT9VFalsrFV1Z2pHTwVjg12A1v5zZG6YA2/BHKvXq8HcV00T5NpefTyUahxDPNeNdFMd8tfJAPlfJQntOi9dJBp3SoU8uU4ccuUttQLQuYOli8ptl+UCvssCMHe47K8D4qHk1VUWsFGgvksLzHdqf/jwwaAH+rsr9buW3mi52+tputfJLt08hG53N4L3rRgRkfeZoHAGwA/X1leHiKbfZhT+x/ZDwJonB26lAvg/tlLqVEZ/V2RO3xniRPNAXJG4QE4kzh3wDeLagQVddqYt7kJ64jxDn1xmHmv2I+IvYGNr3f36C+ahIdgnk/m0OAfdJpRDdGUk09WRYlEbZYBumMuepT0F5GhF512axTDPyByIE51b1bZXv4rIC+baxphHKSbtkL9MBsj/CskDn2jcOXKdEL5bhUgcmBONkyfvUytE5QAdmDtCx89y5dCBOGkW65wbN8wN7w/T/v376fHdu+lBurP+KbirTrp7/+e0lz1cfZgO17LXH3SOf5g2t1c670NP7q+n0wfp7no6F8TPHwXtBPelYHC5v55eT1KV3wrgvwnERN9E2L9P7wxsw1vR9z82/zHE/wnQgTkQVxRekfjrjMKBeACcKPyhAbyHpj/NrOUoX5KCq7a4JbC1up0xrbUOa4C7tODdv5mgDFB2qUjZknW5E7Yrj5GYXfY1xFVGt6n8arRVfdaROSDv8+bbVWTuSLxUdU3Vh+gcoLe0SsK85qZVxhyH/FUyQP4XCsc/yklgEDk/DsxJqzxOG4CuSByAE2kD7PLncgIcqKvM3S7xUC2dhETmgvlBEfleUfZB0fVeMH98936aVAbqB+n+/TvZP6eNAD59eCcrvX43ndy+l76bzu7fT+f3H6aLhw/T+YP83fvpcnclaH+YLh+l+6vpNXqI9MlvKDAWuCP3HfqHYP0HEJf+C4AL6v9MgP+hKByIF8AdhTuVctfSKI6C2VeGGRBh5/W41N7kFhWpm0rmDrO2vpTTIq09RC0rmD9ZY5YTbk2Rssek7/e5ov4swkotKuAb5FiVDXIVFmkW1TtnTjsQT5ATmfdReQGd7/vbdhAnKq9ceUux5DYXxMsO+ekyQP4XSUTiQoCslQucOjnWPyCxfxCguRNEkHYEnjCfLRF79dGJh0+90ytc9AyQb6SOtBVxT0TdgvcGaFv/nLaC9/bqv9PJ9Z/T6c2f07kAfn7353R5/266fHg3vXr4c3q1eze92StiFsANawNbqoj7t0kgFrj/kOUiJXluIu0/JiLwiML/lQD/lyPwTKU4H84y751GKYj7F3YAuKNvAVO7B2ax13hKY4uJe99IDW2ygHpXf0zmjrmicFmq1u/RXB9rmjvOa+/rLDblp30i1T/1uX61E+JPTkp/rFkG4Aa6LCA/K1/HlS+GYgVlfbpxVL5IsyTEW3oFBehAXEqKhXW3awD4MuiQv0wGyP8i4bgPmOPkH8Gc3+Dk1sO62GlLlP1AZK7IW5A2rAveqfj+EtGOSF0nnvVO56dOyJvraRLIp+sr6QdH3IA7AP7ndCI9FcDP0ds/p4s7wVsQfyWIvxbEXwvibx8Fa+nv+0iR/H4QhLlg6XRJp4LzPxV9O9oWxIm4DW9BHL8i8MiJa0x+Io0ofBt3pVwIKPxocaVP2C/sHhIYjwfF5Ae1lKqHM+Wq30sP1sCpAS71nraV5O627f21rPuty/wpO1emTW0grjokbVVZ9WdRTv2Y5OY0Wwu0yFy2pVlQ1VWE7rSLji+i8sqXA3MAbpBL6+Knoa42q44vIO48uZRPjsdSLEP+Ehkg/8nS4C3xcZ8nwXzroU6SR1nBfG+Yq4w1rAVqR+AAe7Z+8qEjeNoBPRCXkl4B5HdE5gK4QH4iuxXMt6ROiL4F8TPZs+v/TheC+OXtf6fX938a4G8e/ju93f0Z8Jb+sU94C+JAmjz3Pw+RIiHK/qcjbvmb/2TkHVoAj1w4qvHaBU2i8EijzLcURt4ZIMdlRaAdXwgiRkd3AvnuEJc8fckRiHspAM4uTd97WrKAuXzsE6W+a0O69lZd5aooXTfka2s/OqQt/zsIm1XROALEXSctkBvulLVetG5T3OjYqTRLi8gL5kTiaZ1eQQG6+hfM1zuglYf8bBkg/8nC+dXSKaV1oZMTgRTL6kKnUyiUBWqi70eXO4gD+0f5Lu90fvJFHIAOyInK7/Tp+Xba3l4J5h8E8/fTqfT89sN0dvNOAH83vbp7P0fhsm8Vhf8miP8meP/++F9BHGAr4jbEFXEL5P9KgDtlUiq4VwT+rxP86FcQ/2PzPiC+5TcuuSMlovBzwQJUg25Q4AicGsEavT+cWx+sZ1aD3NH5qfoL6BWVa1nUAyWcZ7zwCqS4su/X183qN4W+7PHlNpv/VPDryRD+2ytS9juLptUUMcxR+agjdKzWX/eb80WiypeTYiEf7sgckANvqSHe+YY5CsQ5XjuY17oQ1w35mTJA/hdIHfPzsb/Ji52RI3dUnhc8fR85VhF2RNsAG3Cj8rMv5Y3sBpDvgfm9ztEHqSC+u51OuFXw7no6kZ7eXRnkp7dcxHwfqZQujfLm8Z1TKb8fBF3Zf0x8Ued9ROJOmfzX0TiA/jcqQP9b4P4/Avi/Be9/A/KTOUL/h3zSKL6gKY1cOFE4P1KcqRTfBw4ShHLBuOB9J709XMjOaqAL/bsFzONGQMfya5gjDcT4VLA2FCkrqfYFtJlTqIG+T6t+hncuX4vW377mad2xtm8VzSOmojNbjgGOpSx1agXV+gA6ty2S+wbkdReLwU0knumVypVXVE4U72WI6Jk3Y6DyvTMYV8UhP1UGyP8iiWOePxSAtyI5R+YBcKdUWspEJxBpEyAOvKVzNB5lw1vK18UnReNbjbPdy/INS2D+cDudWm+m0/ub6ez+ejp/uJou7j/EHSgPH6ZXuw/Tm/2VQP5+eruXyhrm0j+kwPwfzokTib+zAmvATsSNOhLHukzOnAufADzSKPxkWp9KOeWbkQm1iMJPHW3PEL9sGiCPyPyeqNwplkqvLCNyg9hEAboePrTaWh19ZFwX0LZVW0Xihz3jhu9fMursXK/+NSR/eU1bDdHr3Drr18qRZdmM2JS02QffIJdDlO7IXOo0i+ZFvtwplgR5D/NeK8Xie8ux0rr46Z2VMK85fNP2DflSGSD/SySOdg71gHnEfaZBplb88CxDXCdLB/VQoK3oWydPWMEQX7b5QBywC+onVkHzUdGvovMz3/99O13IXuyuDfJXAvirR0EWkEvfHqR8icfKHSqCMQrMNx8EaMF9w50p7w3s0n+cJLytADzTKAlxf81+y1fsjWEdgAEAIExkfS8wVxTeQ7yHeaRYMr2iUViO5Q1y9qTAGjvXu1aSdOnqrUhfdnvCOcc5KPp2NC6YN811hSbEvRw2UywM6JUfsU368rptLdX+sT4SYB1OwLt8XBe1PGe9I2pUx1NF2YC6QG4LxAE4PgCnXv0AuQGOz+uHIhr7yTYO+RkyQP4TxdBOmc8rIvFQTgrffugUi04UAO7oPNIrAfZIobR0ipZxRGsbYPflP51kgPxkBXN/hR6g801MKUD3l3oE9Vd7gVYwf8U3MuW/yS/1vJ34Yk98ued3dCsV3PmWJrD+h6yfk5Ja94QThfsLQQL4m63Gr3w4EBcQ+Fo9Jz3QZNZ+mqEgfccX+wXtm/2r6QZriFPHF/T9JX1DnNy4Ic6WJ8Sx7Fl8g9mWHe29nT422ylnP16eAHIAHNtDO1I40n2q60JnoDOkMR6W19el2NaQaD0ux+pVV4uUfkwWFz9RylL7qAZoVvNCATQplkqztPvIBe+6t7xgXmkWYG6gs20o0k/uUxMd8r2El3PIT5SI2GbVH59zTqsI4vXFoIrKI32SmpE4dVv1rwg8ovJoK4ifAHa3R2R+ogj91MqDrELP9gL6XiCXXugERRXzCuTSSeCVvlZURioknlQYTyskUgfOBenfBHbfT96Bmx8ipm/cVnijKFzr2PKclDkSB7cQxxc1VRspleOROBrR+HyhkztXWDZgDnjjcAbAjGuM8IeyCylVdh3+rPGSxFgFcFIrROKPpaqzpl8QL22vr1cQkAvfjWEt5Ve5ZNW+bj4mR/tQqe2qcXCbquw8OVZzbJE5kC5ok1JJiJdftyK2KJ5lpTrWAuiS2Inhf9bkh3yrDJD/ROnPI8SWE15nf1w3ki9I8xhYX+xsufBQflW/lG/ZOQ+ukweIY080iNCSmkDH6oQ7AfT003KnOhEXQFeZr8Cf6yQ9B+j6WH0p4F5iAbvLWKmA/Gp7J7gL8PIL1q8VcQN8bNSFP6dS6iv2EYnHI2KBOLONu1MiGic3HtF3XeQE7vf7TKfs8wKnt0wKaA3hPJTtY9MvqXKrS7/6wiDKisSrnyNyw5r1RBTuNw+sI/LyO6AzFMsyqF4Tv1l3K/HPbCzqkN5PMQyxUXxejnVSWZsQ27hqc30tw2x1LGEL5k6voBmNF8RtKROJS3XcBLx1bGLbeDm21zPkZ8kA+U8XAKEDvalqsIqwHdEQleM7Ai8NkG+BOABXPyJyYB2Rt5Emq3Zb4tOAuVCTOvsRscuXJcscmea4SxvYlhI9nxnA94b7AvCKroE7fgA+lTq1kUJxBK6P6eeCN+oLm4J4Pe6VWbIVgPkBZU0CdlNf1MSPGTkK1ywrxWFglmq8AHrs48aSqmtWWrxBuvZ4OWQzLx4XObUXAXUDd8x1h7VSr20wzAE/y5LzB+WxMn5YwxorClU5VohWdec/K62z/qNZbJKFvq6/FdG6LrNDdIyhFZU7rVJaEAfeK6DXcjquYpzauf3E+skM+REyQP5XSJ7AlRePH5HQCeBIOyLxSqn4dkK1EX1XasV3qABtq8BuHBKNC9ZE5Y7Ms07jUxfP006gqy7iYKngij0F7mBS/QDumdTYtC/Yl+rkBfBE2GilSwx6gzvqATi3FbJMPW7Wz+7W+gO7CPCMaNcwT0g68l5c0CQfnrMHrB4hNEmk/YhN6QDX1WZd9s32AHjOKNtcFpi9LgO6IvEA+KwRmQPznfpGykUvoTReYuJvvc4U5BneWCt1vZb0/lq6tqPdsnLdxvrbRVAJrot0zPnwCUmvT0C5BznQBt5disVAl/rOFfpqOaLytn2MK42dIH/Ij5YB8p8ldUDLtnOoDnTqOAkEbF/MzJz4Zidgp43bCaUCvCNyR9QA+yBA8kKqjmhX1nGuTswl1Cv+1XgA1VDNsbAqn+rjNSAHmdRxbzcgR4GwoZ6/aQmcZ8AXtFMN8ehjiOfyMQdvuP4BTNU0AGqtVgHSkXfAnbrq4zQKe8/AZZi0MZpZRJn9i0afqK82K5LQjrrwI7qPKLxF4qyfqDvhzZvN7jHfdB71RpP1ROQtKteYLSpHtd1E5IacLSvtgPc5qnEWVU+ka2/SFVi+pM1BWjsHEOv1NpQN8w7oFYVzT3krA3l89WNZL7fapvZCDPnRMkD+M6VObM4bTqY443X+yAfipE4yEvcv7WR+POrmaBygE1W7zMlDhK4TyTCT8iMIvjWxTi6fuAlRYK8T19G6bCwX49QyvCHwW5r1xuByq9O6VVdwPwHWwF3+XDerl/UYWpfXh7IvvDtc8ltNwdMKDCmrLbWgC3MQbIwljR3q+bNdflph01zG/VO7ulLSKYZ5Z+sipyPvx4y8DXNSQOip9SHbHjqYR2TOaz2nVMIvqHcrb1rS+5JVcZZu2Wf7rEUd2QlI7RDNyTvEMOeYQRPkLZWSaj8hbtDTB1vLpWrbfdzZMjl0yI+SAfIfLXkgB8DL5wCnTZaUikEumAJwP/zqIaPxh2n7EHaj+m1G5gY4OXMAqTEAd3zPIwAdP02mFegkdTpUvuutnpSUOQjcXZ9Q6gC6xmM5+aHGbfoF+4j66yfPwha4841AGuPJZ34MHFMLwbeqRhq+1q3p+ZG1UpZjzEgJ5fiCBXn+2P5ZPcemsbzHsI2xWafXm9Beqv7LemszKndEzqcDQzsh7mhcmuWIzMn3A3OBnJdVYzWYO2pln7Py2PcRycp6QmVT6GfNchMqurZSS18hbfVI1SPaTv2fhXrWX3MqiBNxF6wL5IrK6xksVrUZ/iwj6+2q8SSVj0dcP+RHyAD5TxIfyzqOsYDF8NaZ7nvD+Rq+NZ6h4q/h3wNv/IK6FHir/4lAHpAKkBk7IpTrZL0O/LW6rfOPac41ykB42d4ia+sMaZdtw19E4GnZAW39Ug6+HtYGtnyATXrnVPbMVlG/QIGe4QsedYFWCG1tLBMXcVGBHNWcvF/QXJemM0tMy1qRf0Xi8emAtMociTsaB97Su8e4EOvI/LGi82NReSlwA3Z6zQ06Vgr4UE9g1ib4vT4nq7ZFMQseQn8W63Blquah189z1P5cAL1PsZTStsl2gE6axduF9uMishxYQ36IDJD/BIlI3I7hbXU+XAc+oVvlxB+kBrhOCj+GNnzXJciJxg0o6wxApxUAKL4hCowDyD6BrPilVSctWbRLWx3ObGP80PUyUQ/cZaWOyL2MmmmjDmXuzFknPdA9FdyANIA+RwUGYTJuiUwbXwWabSj9AHvAPS+NCuyp3k8Cu9bDutq8PF390X/gHZ8I9B+QG+YoQA+QPz6SXsmIHICnAvMC+kPmzg3yRVQe6ZS49Jmg05wCmD30eh/9XFn1XRSz8GQ4KvpK+byGNT9rB3Pt6xngHcytHcgN89ouqbZbf6RDfqQMkP9IARQS+AfMDQ4Oap/dggpRuQDtZ4kTjfNQLPQuIV7PFX+4VySuaLxF5oI5QGcMQKUTJhirqE//GmjzBAKinKQ2+mNrP/rMtm/PeteVP9fFSb+ul2ZdrC/XT52Ugy0sGqkQAxz4Am7phaBwKThw/7rvYUf1cf7VNGu1lV5YZ7gH1OeoHaA7Stf66g2wIvNST7VSLbaaZaZWKq2yy4gcmN/ttdYO5A3mjtwrKuelFrr1egfMFYmjAE7aoN7Uk0jb6arI67ys6NwshnRtz0q/IMr6BeL2RgOgAXVqAV373JYHarm+AN5BvI3Zy7o85HvIAPkPEkfh4TSlpj3dEKsI3GkU7F1A3L/BecOjZ3VySIH5lqhcMK+o3BdABQZSK/WxfE5vxLpgLYQyVFUX8I26Rq5FnSxS7dVmybpaJscL6Mc6ms1ln7wB0C59AnHrTgB/EMAD4sD7jeD95nAzvZniEQEofq98AYlvjb72t1AT8nwBiXvYG9gL6JFuKZjH/tOccrNCNWkBuCLySK9oCadLAHlG5KRTMrVy99gDnfqIyhvM9fIY3bz+fq0S6ADPftRZmYT6LVXVMblOO7erelJZbpMsMG5Z+73mPDy/jLDJgRfIC9y9GvalLJPHZY1V22ZFyg75XjJA/oNESNA5wgErD+OcuE5cn9nSTKc4J84jav0bm7eCtyxR+K3s3a3TKpEn5wJnKCDyxVENDBiBUkkBtD9ZmIvLrpdQEZWd7Zapulqm71vat63VAsBlsjyDnFTKISPxR4P20npvEL8RlP2Ml/bArnxo14Zf319p1vNALj+Ui2+U+rEC8XTF+s3POUrftcicOQTIUU0QiMsGcyIar1y5b4vkrhSBOiJyjbgD4BfTbapBvjuXXzAnr76xVkReOsNbxwDAbMDr/Cf6MTnSpxWrLSts0vdrkz7C8Yoyh5qfwQysZYnGN/g6NvH7e8qBuPuguV21nW3d3bqGfFc5+b+S9Id8J3EaRda/zF4nh7R96ad+NCKj7sP1bejV9TShH67C8jub/ETbzY1/HMI/EmGoS/c6YRLqAW5ZnTDkyU0mvUVveJveai5OCON7UmGbH32XSl1Xn+PN9dLFOFWHlallPRdZxFT32452BRZYOj4W3OYybbWQl9hwq2Nou2+9fVtUNu9Zjy8phR+3QnLxM+6o8YVX1qwBGRM9qMA/zTCltciQM5/75+w8Fy6o1q2W3E8fc4r5+P75rGt38OT6uVvH2q0JiVl0UgXeWL5E5g2RLAqzuLpr82tiJ22Ki1nngwi/sxt+Nw57kr7s9iz7+IHn2Z7L2OLmmDV2s0O+VQbIf4AsDk8AHle8FE0L5DtSKoI4UfgtKkBf3xnihw+h09VNgFx2c6OoXBqRukDOLYmkWLgFEYgD8IR5qNbZ2XYePVG1rYFc9VXX2qijf5U/Vh/L+82FMmPEZBIhALvAPUM9wMUC9NzYc/oloRkAD2BfGOT1bVIsAC8F5MBUkfdWCki1Bq+dVfiPVP+prblZEp7933oT8CcJQ7mDeYEc2yBOPfOt9T//ZtLW67r0PyrP9Ikdm7IozOLqVRtFD6k/BBtNKGNo7LWHtCwQb0p957tMv1SWx9Zq+v0+5JtlgPw7S0XjcXETR/9Jq3TpFH0uj0jcECcaB9yhG+mhReQqk25RP35E2dE4Fz3Jsftr+gHxORr3DOL8wQeqzZdWXUF2rd0yS+3qaqwE9rKu/OyPL/X6q4BW1I0tgMtWdEqr0x9AUwoUASZRryHuZ7kUxO9Vjy/rNvWTAtr6QhJvKgHSkESqJ9b8hdbfbNEf71/mJDXMpb4rxm8a8eYRz5MB6gn6nMP8DVtU2xeDt7W5qJU8hfm63Em+6YRofx+TVn2kvaoYZtHcjyvfG08dGq9MQDptg3j5qbGl0daPsRgPHfI9ZID8O8ryAqcsAMd3SgVbOfEHQ3zTovGbaf8eeF+1qHxzI7BnWoXceUupZDRO7hGIAxejCGBx7gAsaYF2cQ5aaVvVtf5Szkm3dXWtX2f9c2HrurSdek4uzNb3a8uPL+SoAxCnTpqxuoaKSLYAbkA7Gg+I80TFi5O0aIKdPsCUqDgi4QA5+4F0SswhsFwAp778kEDqnF6hNZfQWP6kIIg7Mje0440joK43nQXIgT7bwvI5F8ZiXI8dEraHeVrPeSULiD8jennyz1M51lZFr4+CXhf7qF9EudThowBauj1Xd3zB2+kVQE6/hLn9OjAwNWaWmx3yLTJA/h1lcYgmzCMaPwTAubjp2wsD5Icr8uKKwB2FC9ofiMoFdHyidEM87mDh7hXfR26QowCcN4oCOSffDK2aSDvvaF9DvK9rmnXV50m/3l9r1+Z1y895hMSgBW2Uod2lQZwegJK0SoBxhnhG49J6+uIM8Tu1RXqlngVzsq19E6sueCdS9RLFGuONJdoCkmhIebUUkXVm9hPSM8idVkET5Kw/PlnwyUDLSz2OrQfV3Gp9iXDqwutkXe5E+++jsmg/0rmCj34dnpPEbUyIMqpXhzfePgKvdAq26gri27QN5IzFK4yP1LhDvlUGyL+zOCrn+LeVAvIdMM9o/G4XKRVA7gucQLxA3kXj5MWJxPMulhaNHx4jP66VRI484BBElM95U+eHNGAq5fypc6jZrK86K/27ct+vb2v11JXNNrdTJ4vLhBIOhpSaAuIFcuoAJYtkNC4A+gKnoBwwB+IZkffap1UMcSLygKij8VipRgxQB4KlXGiti63Z1ivL+Q0HK+OyWqpn5MorvcJcM0KX9ZsIlqg9YV5vAtYcK8YMLSl/rpPXd+iF/fhso8Qg/ogs2lfjtCJOFTRzDjBgvk2YowXvjSLygnrBPre2LdsfnChTyGNjyNfLAPl3kmN3qnCb2YZonLw494o7Go/c+CFTKpFKEbixRONE4i2lIogTjT/c681AyxKRG+Ial/UtonGsJxBBjzXrunOp2Wx/Wq+6j/Vrbat+vS2I25fqT5ioIKUS+0nFArpcFimIOwdtKEZE7gudC5jPEXpAHOBHZLztIA6LC9Yg1bgViBKzXVvNIBGbEEfwZg2Yl1ZUHjbAHlF6WOq8ZkMcP16TBnIVsL14N2H7lnUn9l2rXDci7vC8LCAuqWKt3O3duC5q/7BfDGQ0gW1oJ8i1T6MOoJef6vFKU/KYGPJtMkD+nYRD0cc+f6zy+2j8ntsNE+RAfBGNkxuX+qInaRUice5UCYgTjfMN0HpgFjCYUyoaH1vnVp0X1qi336yWrfIa0Ou6vl+1H1sWu/ZTgwv+M/81uPUPW6p/TwEZFzpb7tk2704RvNudIqRSrHFx06kLVqO17bUDAtgn+XjcVL6tqTo/pnaxZjRmGjNus/aAM4DpGXOsfH7B248Ctuaa7as/82J5leddFfsx1jKLy9qIZf2610eEjV/LGt4lrb4fv/y11cx9UKHAGUhXFJ4gL7+HeC3TDkjp4mAd8i0yQP4dpR2S3G7I+SnrH052NB73jR9uAPnNtK/8+PtIp9iXklJxaqXuGzfEH6YTXziNWw6BOLhhJQUHVsx5EecG5ayr8ybPI9cbwlLOub5uAexVXRtDZbf1/aptpZ6L/mMtBSY1ehiVpP7KfNTKEpGzXQG/uoe85aHJPwNvoN5y0QFQR+HMR8KIAXHAfeKvA9WvEPGjFcC8/XizdYZ4XYy1eriad8yTOfpZMVqXlzKYQ2dwM6f0aVNf/HmZGivGi7FjLbkJWSqbJRv9cZ/s+ERqSbU/16UajrVTxxAF+HoBbbsXmIPLkTbgBtYJdC56ap/a5yDrQc7A9nEZr3TIt0ju0SHfJDrgl3esoPEtTp27jsoNc996yIVOKUC/UWTOveQ31OWXgyj725w7f4vTv6avcfy1fsM8AIBwHrT1lvTnRuvIH/p1ffu6vm/Joo4+3bK9VD/3zfGazGXmOgOrA6IgB3ydX07soqB2fkjWnfXSz1lZPneF3wT1V/PdHv1QlvNvkwrdjr31JhjPWUnosh+5t7+miPJaoYCcO2p8V41mKa3H2fohWo9E9PkNT77VubucbnavpK+n692b6cPDrFf3r6cr6h8urbe7/Cr/TjN73OQdqQeNi+r11jz32nbetP2aY6U6CEL9Ro7viab2PiLrYzCLTao+26q91aVWPwuWdZZq3XwZrX0dX1b72N/u9O94ysdSh+oNTVuoeuZYqjE5ANp6al1DvlYGyL+n5IngO1WIxgEwZypANsQjvdLUXwi6n/bkzIE4CujrDhcvK9DpJCAnXuN7HToh/FVvxCfFM1Jt2F5L1r7Lz5xYfai46IeVVn212Uo6G64AqrEC6BmhWiN6DaAH1IVLaz3lEEDPTzuM3xM9E0QANnE3v0Naj7INYPNm2u1Ds4TXSLNQ0bswpx+qGabvyDyBjs9dLvX8FZ6EuPPX8eN5K7eC+bVgfv0gcAPwh7fTh3sp1uWA+c3DhYDPV/lPtdyJlq/nlx/06QCY86bNV/n12ksP+ewSw7wpk+/Vk11qv1GtXsWFZH0v1a/fMRzP9rFav5X1JsgL4PXcFdRl2ih3865xaj1xQEgoDPlaGSD/RqmI2B+L5ftbnJI9EDfIdVLylXwBeo8a4gA8ovE9MDfUpXxRqCAuW9F4gCcPfNYhbcd/OgAxpGx3jhw7SWisDnNHifr25b4f0vzsV+W+Tz/GMWs/YS4/gB6RstMQtoJxlsNPFRDK5/G0BrU0rMbJ/aP/5kX8GDIRtdbSgIwyBa3ctnQuB8TLsqzeahLifqytH4wVUfkdz10RyG8FcqJvoF0R+fsE+QfX0QbsBfMHluONIGD+UDA3xONNGpj7AVuGoKy22ZOy9n5pvzEpnbsUNjLdEu+UTgB47Cj9l+8y62E+Ok7rNzsBuWGOvQs11NXH0Ti2n2+O6XFTh3yTDJB/J2nwQIEuB73UPxyxSzgL2KRW9kA7o/LJIBfQHZGrXM9h0XJ89OfEcYRfg4t8Ti2m4Lpohz4hUVfLVMVHpPpUv3X/dVvf3td/oQiRqUjM12Vtb9QnoKte2k7+5iaspb4jxQ+s4uJmQTc0yhFVB5Q1mpXVaga2vY+NPl5XAn1+RjnpEWAskD8GyCu9cnUPvN9O7xWVlwbMAXlF5meOzIE5aRayb7xvP+pPpVlCdTy0yDwsx0Wz88RnrX10rM6qKktXV+Kxe5921iPNdE9E49JKsxCFG+IAXX4B3n4uw/Iej7FYQWq8+EO+QQbIv1F8DPp45GBPBcA+I6WkRxyRk1bZzRDHNqDrgL/PPr44qpNDyzoi582gQF7qdQK1Z4SGanzSKZcvOTbIetm+z3N+CXVPlHVKsUTh65PX9dgolnhTpRhDVyCNX+3hiYQowBZMZeP3M3lOOJo+kMUHlrIFdwO90iSGM6r1YL0y1qvJNJ82wV/L+E2jwTzSK0TmlV4hV34tmH8gVy6YE5EvYG7AkzcnZ84yROanUkXlDeYZmRfMHQHLGppRp145OSZOuzdAymRz4uW3uk5bvYolbqqKrqGWbTbm4zkQeTsST2hPVS6oJ/CJzJm/5yWt8es1r7GHfJUMkH8nWaRWAK8sOW5SK1zoNKSJtA30OQp3qgWIO6WSEE94V659m0f7kwubltUJsILhQmizHllmXWdR2fWSNu6xfpLPWW8KjLTIFi9jRBDvGFyIKBvABrwAm8fDAmWAzSNjb20V3VoFUnSvyNh+1N/uBUtp/YoPP6QckXm8MQTIcyIJdXhDmV1eEXkwKIDep1gMc2mDuaNu0iiAOyGeQH9nC+S7NIsjc5Ynwg+gOw7QyiNn/qj16bgwxLE6TrI8Q7wsmhOvjSh1fRYtVZe66IfmWLHhoeU7Mo+5BNAzCq9IvKVVql6+r/x3Y9hHWMeQb5EB8m+QAmukVTjwKeg/EOcEBOJE5JXzdloFiANzHdikUjIv7jaAT3+dxXFHBYPVoBGBg7qo+5R8ok8MlnKs70fq+mUrmj4m/ZtDLmOIW7WPrPTQVskC7lBuGwyA+5ZBqSPsg4B3OBeYE9p7RbWPr6YrgfvqkSj41fTBVqp62lD61jPDDXMicyCcEO9TLLW7UbMG37b6SA37hLnUvxzkO1iIrjWvjMqv8g6W9/e/Te9S5+g8YX4PzDW/B20XkXmfZnmsyDze1J9eAA27hHjv5wa1DWM71nWrsqvSt1Q95X78XC9RduXKKxIvvy56GvQo89Wybafi5tgcE1Ue8sUyQP6VArh97NWB2FQHKCDnIVk6+QLioXsAntCOi59zOUIwTgwsYwhpGiJWkY5OgNn/mHxOn2ekTqiyTT5jzIJ6KdKNIwaGyPpBVaiKWEffsgB8hwLxSQAXxBcAF7yvrAHt96iAib57DPteNmAuUBrmAfJbwxaQR5qFiNoReUG8onL7/AnfqpfEMAfiROS8AbQUywzz+LGJgHlc+ATmgBuIF9BnmL8XyK/uM83iC6AJ890K5gKh0yyVo840i+EIKJsy0bJt4itFyq6lr5ffHXs+tksZt72RFMwpJ8SJyisyb239HBHGRruDZMhXyQD5V0odeovjXIVIrQjy8dnYUXbdrRK3H+4MdJSyYZ5Re8Cc6ItxIgrzChhXOh/uqqPwqeO/2j/Wt69f92nL50Y+1/4pUT9DPJXRKBfM9wZ5ROHx5Z0T7gI3wO8E8BsB/FoKwIm0C+CA+93j2+nPndT2N/vvUt8D0haVKyInvaI3Bn/D0wAm6q+InEmtVX9gjozbO7+ic2AeIGfM/nZErfMh7yvXXEixVFT+7v736U+DPYFOGsaRud6oHrTNgnldAPVhAcx1XETOXMdLKnB0vjz9BssG3N6vjcgNqXKrS8WUVPUT6cfO9RawKzp3WiXr7Kt/g3i/fLdefI6RIV8sA+TfKMEmqMTBmAAGxkC5AJ3q6FvqdAoQr3KmYLwMbwJ5YMeQ+pPr+VQ0Lh6mk4qUjTMl3BIDej2mygXuY3J0vLXfSc2ln08qPQ1x+UTjROKGeEbhNwJvD/CA92tB+430t+m/qOCN/Y8hXipoCuwVmRORG+SZyyZP7mjcKRLNo2m+EXvHa3KlasPG6+FJqx9KeiV0hjl57oI5kTZRuT4dVI78TiC/m6FO3Ye7jMzzbpbbgnleAOXwqS8MGeYGOiBEC+bHlI2qiddG1kakujwX5zq0NrxftrdaB3B2egVYZzqlovGKzq34zEn9vEMlNT5Sx8WQr5IB8m+QAmsDLAYYJMj33HqI31/wzAjc6s/OAXGdoU0NEw8WUfh3Pb4/d8Dqs7bPyZN2zT/rtEfCUdmRuI66AHgod4XvNopAN4KXI3FF4QdF4VKnUKTv9oL3/m3A+/F3g/s/u9+n/5f6n90fLgN2QE6KhRx15cjjYud5l1YhGo8UCZF1TMyTTb7IKWs/bZrq5xy7UywBc99frjeL/otCROYFc9QQF9D/BOqO1PNulrs+zaIxBPMHwXxnmBOVx8XPBnPBsyLzpQLMXplozb/3pbVB6zrXyyCux9ay3nBVlGUdgFrrbhF4AT3n5G94ot2ylhoPy0qGfI0MkH+DwClDXDqnQqLO0TWawI5oXAey/VCHWgV1+jJGHdDSGr/0hwkrQr9Eqn+/bPmVK+9FZbbAmj4Q320EKmmlU24nReKTInEgfric3h8S4oquA+IRff8/wXwG+B8C+O+O0tH3FY07rRLReOTHBUaBtlIqhrCt5oNqUmaMnWPKpGsjqIo3gXYni6xvcexg7jtqiMydL3+dqZSIxlHDXBH6e0XlhjkplntSLFrWMCdfrnF3esPT4eIvmhXEKxJuQFcHa/lsVNX1G9mrtqU2KAoLl2MyRBX0d0PuBO8sxtT4ZQvmlWIx0JlPzDPudumW8XFS46Z4PUO+RAbIv0JmuMZx2CCL4cCvqNwpE5UL5tS5Hj/Ke9pZnmUy6qs3BNe/cAHaDeJYwZu3KEfijsYFcUXjjsQF8VtBnGgciBOJv9+/ViRe0fjb6T8CNRAn+rbKr/QKaRXnxg1xUiqZGwfivlvlrEXjEUUHzINvse/jtdBk0fI9+Sxj/VpFXbFxefEzUixcWJ3vZCmYA2vNsZQ0i1MtCfO7zJcL5oD89oFxIioH5HE9HJhLBUMDfAHzVEe/ZXttG5daPsIGlY+k7+Mxfe8DlDopYGaMWmdbf2fLN+hrHoyXY+QxYkXKDvlsGSD/ConjLP4uACA1jHXg+6viDdoJcEfiROY6qDMvHmcnJ4TwxhBY/as3h/6Yxv+mY/xzFv6mFZTEILEFiMpUAXHZllKR7qQPOgzvNwFyovGrKe5KeQfEnQ+PaLzSKc1miqXSKb5rRQBfROJ7LnJ2d6oIinUPefeymSnBtK4y31hD+3bsrA3m2jjUEb/XV3eyFMw1L+5mcaqFvHgCPIEeUbnmnymWli9/0Budo3IOl4PYOd9fHvnyBOUa5gXOBlAmWjYn3ZSympBFfavM8mrZGtPKOjMar4jctubT+1puvQMptkkM+RIZIP9KmXlnQoW245KTLeGtk84wtwLvqNsb4vMBXNE4I0W0H/qXyryRH5dumrihsfBc9inviLyPxsmNB8RPBXGB3NH4xfSetIpAHmmViMYrtVJKPRc168ImEPddKtwx4rz4haNiQ/yRlEfmxQVb2OFAM/e79zf+E3hn3aI+NPrHxkVkX1F5vFmQM+fCanxZCJiTMtH8APk90M7ofBWV+4mJ5MrvALmWE8wfBPPKlwfMuQYTGwHMHRk3SEornWFN0LqPNzpfDfx+m6pNvjcqrX2Z+JNC3268/FTgusqRo3Xx0z5tuUyz3ToW4w/5Ehkg/wYxqhYnghQ66AT3F3o40RPm3IrYom+fgDMIIu8ZyhiMW4qU/emi6T0rwBCjP8zYSriNprT6zucbm6GCUt5qyBd+nFY5ZG6cu1TIjR8AeaVWUhu830zvfM/48n5xf/knv8XJN0BbJO47SwCt5oFl3n69ZKUxSVf6tTkG7mP1NQbLu4rXU/vAMHf0r+1jHt0FUKdZBHRfACUCd7qllDpti29H1PbcB8i5i+VhpzejnT7FSInKnZojRefIPEFaMO2h3sOcCfYAXu6ANLkxlvTdv7NukvWbg9T9ZL3+jLwrMq/USovOa5laN5JjtvVVecjnyAD5F0ofJa99F9E84RugscCbky/LM8wjDRMLA8N+XMrl/yR5bnVZjykNaCe4s7KA7u3I+vi25qwF8QB5ROOVH78WzInIAXncrRIwj3vGpfYD3h/kzwDngmbeKw7EHQlnFJ7KvPzSwI7S2OF+LUKfqcMu6rIs9Wvkclapf+XMfSeL7wnPnLmfrRIwvxGoic4D3oL4Xdgr8uTS60qvJMzvFZXvHjSmWOhceR5PbFCLynuYN6ijvV+qZQ3StEy+bURpVM1tMtUndpb+s+x67A7gjwl0wzzr2joZA8t4OW4dVq4b8jkyQP49pI5BTioOPml9ZPcJniAvmDtSb+0sU2OAQSThmPLTYb4Wr15wbmeYtKaUc7cpgBuY+KQxCqDhA/EAOXeqSA95oVNR+Q33jgvi14f69mZc8FyowO2v5KttzoPzrU/BrqJwQTMuanKveKQ6AqyaE9zQJL1L8a0q1GtnMGKz3nW97ZebtR+v+BSRud64ci48w3yG+blBPj+Xhbw4ANc2OrWi+ju1G+bqfx8ReUuvwERH5SgRecJcEG3ReQ/OAqzhWrBFc9Lthex8l8svk3XewOxbG1xjOhJn3di8j9xWdax/AfVc1oOnenzp8jQY8hEZIP9GiWNuRhwAL+XEN7zxG8x1oslGfpOFY5kYCBNjYb87wL9kuOrraQHx8EtdZ1inAsm+bHALZOrntIb8nS1pDkGNr+AL3kC8/xr+DemV7pucoQHva6vApjbU8FZ/onBSF/GFHMZmPdKMigvg5kWzbETu49r/7XXAp+Oq7li5q/dY+u/9g2oIv4Fo2/lE4Dy91E9kBOa8CTlvHkA3zJ0/B+p6owLi5MkrIk+Y7wTzx3Y7Ip/8tDKOLVIsUamVA8nUBvNS2nNHNM26NvnUfoPsY+ifZcMc1fJoW0cXhZf6vvKs452olvH4jImqWOtBvJ4hn5IB8q+SOVRoAPexyB9UFZzYCetmHe1VZ52AjqLC97dDJQXxKv8UYb6oJUEsLwCe88j2GdT40WeOvhOc9gEpmtFoQVbKQ6v8JEPuHe8gzpMM+TanYe7IPIDdtO4AsUb0TQql4F1plAbvnCf7vjRgi89rkerysl/UlaVflWu5LK803sAZi65aPyBXBF2fDLwvyHcTnfPUQwE9YI6Saon8eWiUb30rorZZ/bnouZM+MiZsJCL3eiMqN8QL6KgBTUepbVdnK6190GAq5QV3XSplj087xaxr+0PjAOca0+vKiPzxLnQNd29AKsvEwPrf2Z94GrxkGSD/CgEGAdtOOOjy+Gs57/4EJ2qyzci82vhvjTHxn5MAawrOuu9Hlj0qAt1a5iHUloUZ3gFGW0Fp+fCoGVY73/cMWBPaKHniBG8AmDs5pIK3H0lrFdQMdKlgbcXPPs59C/qL56XwhpFvGgVOzxHeWGOfGuDy57SWN2y+KO3O2NSqs13XH/GrLPW69B9tzQylucWbW+wbUi0P/EpQwvw2YW51SgVNiEvvnSfXdldUbphre51e0Up8jLGihKmhnpDs9Vid1TssJ152pW3Dsm9T6rEap8EZaKca6KRXCuZlc90s6zcJaa2jxGMP+ZgMkH+DFHw50MrGMc6JFbBu4LbO9T7h09Zydex6rCbA9gvDkm6sZp+TBvMA4GI5aavrYe7zFnDPEG+AyvRB3HYHqALaQNjgTjWce19atte4+yRuIfQjbQGgNdZX6/d8PD/NzSyI1yT2MZCIuoJt1M1+A/xzqtfNdjHGEc329traZ065vzI65wJo7Se+it+ic8N8ViB+I8gDcqdX2t0rehMTzHtWsx2RK2euCcjWoeCana2970l2yrb0vnR5QHR13XJtXQnqArjTKhmZr390otYfH2NW6xnyOTJA/k0SEOSYsyfHP4icJ3IDuMvlq1tG53wBiPRKHLcsG/pxcNP2sfZOGKq3CH5fTokqjev2BLbLgLsAGX6kUAJIe0XeewGpwNQgbjidOh2ARgoh1D8+jPWteBmNypIyqR+L4OKno28ATkTfwbvdRsg8PK/Q4AAVsf8dbXvi+GpMDV/1LYLF0reAPtd5w8tfaNendNU3YF7zCo39ljnzfFOqNEtE5rMGyBPiuR/Zr4AciIdqPLNY62N7apv8xqMGa/kAtuBZAJU6t13KRKnDStsBI2X7kGbLp03LePy0Hl8gdxSeEDfUb6UAPUHe5pTrjm/FSbGpQz4pA+TfIIau/m/gXbg6Brn4xMGsUp3InFQFdbUF2PNE90JYY3MlwEr9svQp+Xg/Rn+6hlg9GxAFZpHTifOpgJkAMkANcABCmegyUykCzAxxwCMgEVE6usSeT/Go1ovpWvBGDXMBHCWVQoTuCN4aEHcKJSEeUXfOkX2b57z/aH9WqsQPcFSHKtMO1AvU9cv6MVDU+fWqZbKvoV993C/1WLn8vq7TchvMvd/mN7+4oyX3mxSAtzc5gz72Kzl2lmH59jrAQatWkDCPyBzleGwdVuWCaK9s82q7UR8g0hqXPq6r/qiWN5wT4oZ3ghuIOzLv6p16yTn4DYUxJfW8nlKvf8hzMkD+hTIfW/wNMWx1YPvk9/EG7HRA6mSuu1TiBAMSHLOcZAHyppwPuSwSZVekzOtbSs0opY2x6k99P9y6LPHqpLMVIFLJhxvqgkcAJKNwRYWRsyVaFGz48kpCmy+zkBbguSHcgcFjWj9YucWOOzSiLn7uLIA+w3wJ8foUULzwGyQT1b6bYZ2vAa+FteqqHAv3kG5KHQPTp9Rl1ft161XjVuTrfjGPJ6o+BdawmjOsgnV+EwyNi8H5JgjQe5jbjzL1jshzv8froNclx/Q6tF5/+mtzQ73CKPcAr0i4h7z798uiGrepyj44sq3G9BjUaUw28gnIKxKXVp0tfXIuHqPG7tY55JMyQP6VAmSNSh9sYQvKdSIXwEO55TC+JGTY08fLxRB1wPpNoY3pqifyTPXni6AI6L0FOZijcuqwBjfQnLUiP6c1sAC9QVxw4eFOhviZonA04X0nFbQB9/v7100ph3YwdwQKvAJojlYdicd6vVtyv3gfeR8mgKXAuGwPb6vr12X10xiUA0hZdn2UA2ixnuozr2Pu25Y7orE8htc2iyjDsR+1jRGZ8/zxhLk1IZ62LhRXFO/XIF+XeJ00pmGufeS5S3W8zVAu2ALaKvfa19UyVZeTjg3plPb0C8b+xhL58YR5QbtBHaWcfeoNhbHiHbpTTNohz8oA+TfI4vjK426OxGUT4LN2ZfqgGsRQMkTDVjQdwwdYv06OLJtlj+0/rJd++k9ZfkS+Ud8gjiUyNjxSnasVeFK5o8Ig5zGsFYUXxO8EcOub6R3WQM/I3DCPqPzWwApotfSB1lugKkjNoCyoJpyBl8GaZdd1msvRx/3UzsC0VZ2Vfus6xqb/sfondb3SvtRcbQwnhjky17ayzb7DJ2HuTydE4gl2gx6Y1ycVvy7oPF5F5gHxWie+G5fqKLiz1uqHRbV8+R5DZR881Fdb9QfmgrPTJQVyoA28Sa0kyJ03L4iX9uvU8JZ0vvYU+JvIAPlXSAA3jy3c1IrG4/kXAe2COQCqj+QN4pT1P552yGDAyo59pEoeP+vmyl4CxhZsKZKgXki21znZInHOoYR5qW81BKgCzF7wLgvIIyIXeFpErqja0XiAnIj7/V2AHIC/E8CtCXZ/izHvmfbFvYrIGReQJ6za+c3+kUYEnGAWXLauCzAXvLepDfT4pdkPMC3rcxyp26qs13CuZw6yDZTR96nGXKscbzJSQOvjoJqAOJ86BHLrnGYprYu+FY0/uWsHTQ76zU5+vOnlSmiYVyhfHY5CfKUxSKrmPR8wqqo6xpPGO1JaaUXllUJBd4J4RecGfvXJ9WEZ07oSr3vIMRkg/wYx0FdaoAHeftYKJ3vC3KoDfb9TH05mL4MJ3yehB05gd3BO01mduGgsmg0sF8u2ql6yr/uXuBzrcQTuMdH5vuwADSCXj2Z+lhx5wZyInI//cXGTi5qRMqmUCvA2zG9RReX3PMa1i8oFc5bjjSAi0IBVrFNzY99ov7YUhoERNqD8mOAOa0hTj9/qWDbKBeUCetRXHTujq6udhrZ11jxSO9+wRrV8LRf1MWe/MNTHFKXdfgbk3vbQuGMnYO4frOCLVKqLL1oFzGt5v44aj3VEkBDr8Do5Dlm/V5jALL/0SV0tU/U1pvzYiHlMll2MT2SOAmlZgzwjcadWVO9IvSJxNMfs7aION+2QhQyQf63kAQWE6+ISygkdMI8+BrchLt8nk1DLcdlONvoxUgB4tkfkSd8j4vZOWpllunV00KZPwDtg0sDgaA+YBiziVsPUhLlTAZVeUUROVM5XylEew+pnhzgif5VRuABuC8Dnr6OTijHISa0AckfkgCrnovO8oARI2bcL+FJPWRown4Fe/ap+XdeibdcB+aqLdS3AX6pPXdVmgHU698l+ft1R7ejs02ArN3yZfKP0NYHctwX0iNLL137JL0JpDQq+tRyvn8bgsET9mjIuBdZjO687OufcbQFpWtdlvSdWy2a5xmorwuJmn6YAPCNuoE36xACX1t0q9rM/O4Mx+jG5JWzIJ2WA/AvE0M7jC4k7V3QCUZcaJycnZkTg7USVX/B2m/syZqn+dDKXNL7XU5I+HbpFlkuvpPq6U4Ib139kEuIAM9IrAfQCy8GW9AptBfNMs0gjKg+YO70iEEdUfmF1Djwj76VSH19D94VOR+SAXONp/LhHmrkwR080VPsQUPagNpCf1M1adQXZVpdjzXWUO4BXn27ZGCvrSlsb9cd01c/riG2JY0KblhqR+UbAlhropFuk+YyaeFZNgpxPTn792DV6/bRMHHOlGptGfFuUlaQtWNv2Sl3fvtYaR8qBZEt99ZcFzrYCdg91AzzrvEyNob4+OKU+ONEhnyMD5F8giVDbgHocdJSd524npeqtau7sot3LxTKRSpk1oC6rv7PQdkyO1DMeCy8HiGLVW1kXKjfPJ0e/CQT71hniDeapkXIB5ETmJ3FnhUAOkP2EP0faAfS4+BkpFz9vew1x32LHRc5Tp23qIqchxH6SNqiigkeAOoC7FTQKlAFl6iMyd9l19Ov6YLvxSqsPCqTCj/ENrU6r37G2tRrq3pas03rmY4Uq7V+/eaF8IkmIVySO6rT182z02sftoQVzVONI22usMa1U2rIiOrEy6rDUdRb4WrtyLDxb11NmjLTV33W1vKxBXrbTWk/19Rg5VonLQz4lA+RfIYC2x2cP9TieC9iRbglY03E+0UKjPixtMQ6juw7rNbhb859KzmbRoat7srDaci7RFmXXJUhmiIca7D3MS1WeUy6KFg11crp5yxxQF6Drq+Z8kzO+IBTKxc0e4s4Fa6x4g0BZj+ao8zyi2A6cOvmbLuoqkl7WRWqlq3N5hn/VFbDn+nWfzvb10hjvmM59tdNaf0OdF8LHi5uSrRGV2+p1CdV+Wflxj7+W8zETQy1fW/ad/rT1UGYFlFlhWs8rwepy5y+0W47BXe7qvC4t5+VV91g+FoDXONLqE5OS341TYw/5LBkg/yoBkoAvgB6RNQeg/ucJ4zx4uztBVtoAH10Wx+neBUZDGFvGWnVI+LFYrLlJ9asxa/nsZ1d/vN70rQDaJ36qyg3o+GkBdvnY0IiYY9mMFgVfR48AnejcEXpE6QX1+SvnlUqRGuBovBlExK+ppPbgCWDOaiASp1IvYLQIW3CIyDoB7vqAd0XxpVU396tlYx1RH28krWyNul7ndtpK+2VKc1mOE1m2LY6TebvbJx/U8FYZja3Ty6B979e31+71rRdcY8U+zLItulhZ6ALg6bu+Kxu8qAfL9hyvbYv6esXpu13WPn3S1nrpp8PKSl8s4uWkQ56VAfIvlPnYigMrjjH8OgIl1HGS6p+b9Kesm2lPXSwnAYpevquPuvT9N05W+80J6VxJLc+fGgNLHXNbnvQ+t3pY07/8Os+w1qxL38t4zIC7AURknRAquMc90nmBVDaAH9pH4cEN1uHJygb4DEOVwdgM4YSkwDCXC9ay1Ll+BepFP9XlOK0On+VZJuuqftm3/Khftq/bWD7HyIugrNvb6TLbGjBXU6q2Vvu20igaja3Xy5FqmHdC4ZhqLI9fB5/3ayo+HQzasseAS/+0rst+rMBjpHo5WfdleeqyX2ldyMSkG2N0si4POSoD5N8olQ6JAxWdjz3bqtaBHzbaSiISR4BgHNFVE7aOcCSP+OrwRLJv196GL6FcdVjDUuvEsv5s91yyzo+9sJa/EeBibdbWHjqPgWXsgLtTBYBaUAfuBn0DOG2pzIdzPiHjyFWDGX7agQXKAHJAeAYm5WVdlKPOYFefRb/su+jHsmn7uhrDMK76KlurT9Y37eq9TeWnui22t5TiqipYbNV+QoF4gpyXbCGuLNUfq/x+wLYSgFtl+U8UGJdffbI/g5bPOLQhfZ+mx+pSS3p/yGfJAPl3kPX5g8SxqZMxyyGrnkBOdS0ybhL1SNTnidp3Sr/6WVyXZS+QivRlzviu7HF7NcDL14iyM8RjDTXDArpQ7YNptqEBdv3Bcn7jci5LzQ77Gg3I29JPncqynJYPmBfwQmd4Uw5YznWCteoqoo7yfjpJ2yJ0lqu+9Ksxqt66rqM82wbwVr9aLnVeNvrWcuyEgDvbzTYTkcc+0HRi91ljrzdbLxOW6JYXItX10nBYmIKE/drqUpmD/Vphp5rjk7p4cWa/xqm1YmqFVe9lo6qJ24Z8Dxkg/4GyyY+OPl43IA5LXWJOvtMv1NfJiUvZksv7b/hzY56tEpbDd7G1d0Jdq8/lOPvtH1O1NI26KsfMO2ir8iQtZfwTndwoCYDw1aadQLsjaytz6LSDGGwIq35WgU4gqKi8wdB18jtYtzK2+h52rjupetuoM3B7W9rKQDbKBeIWZWddzC/rWn0s99E6xvb4nao874d5f2CqyrsntV7CsDPcS+xX52roB/DA2G4lXhHlXqlfl6tv5+t/1GUfKjAlzc+2qshzxfKcP+RZGSD/zuLD0n8S0ByIeTAa7NI6fEtbH7fRNwGvRrd3Qnv0QcpGfZOEbyycPsst6mRq8PJ17oWvdkXHFYUDYY8gHxsgL2hLN/vpVHqyeZTtdLss94AP4AbgARjrDVDLyboAfsCzB3WAMcpV5zcN1S9gPVHerQCuur3qtFzUz+pyP2b6hrnbqg4bOs9jrguNOc4aYz3tH34Avu/Pti9hyOc7F6nxC5KKcCaX39eneDEPlQPwWrd3BVmqXcbP9dpKNZ9FasVl2qv/x5SVSfBjAsv6kipzHvR2yGfJAPk3SsE5ILwsl2622s1b+ViVt7JzP8ep83Gc/6ijZNVZ6/PA5RCKrmpO2vItLJtuSfWxxti1DrSlUKgtKzW8VdEgLr8gXiA/28oK3mfoyW662Oym8+2sF1jVnVkFd98RjQaEA7bhA/GoY30Cm+pR6k6wvksllzEMibBZPuqjH7/V3/lAfUKrLvQ0bS3r5T0e82DsVJcLwLVe1tn5qTOwS6ttLgfc2a6CuKzLsfwM1k79wqXML9ss9YKtpRa15hjl92Nja51t3TkXrJW28ru6heb4nqQcjnVPlrqSnCxtyKKtkzpXhjwrA+RfKZU2KYkyB5wL4rPUB6Cwl5Z6Q7vKdRDrAHa9z0j6ZFk22pAsI9kvJK0bw+e8eSLU9Yqkb2D3vtyy8TZT/groArch3gAOsB+nCyBucD+k3tuelybMT7GCKkA3XKUGOyAtaAJSLO3l29I3gN7gbKtx01J3KnhT/pjWchG9l8b6CvBle635LdMlodEuNZz7+gR15zfIV1vBvNfudVCFlZfM0r9A7tDZXligaS5d/lHtIf2cL2WQ8pt69PD9JpAT8nnQa07e54TcWg5x25DPEV76Id8g/rhrK8mDEogTgW9OTtJqN2c0HjZ8A70OYh/FM8RxyvfYSAf6qgxDfUmOFQsv1Pnu1rbqI6E1+sWBUblsfJfVmJuWED8ExBVdE4UD8Yi+H6bLE+kp9n56JcWiC7BvHgR0dAZ6D3WrgRdg7dMnoQHdtgy+y+hDqN8wtA75pZSrjj5ln8A9x0cNbwHZF0vXKqjN0Xb4EZE/1YrCZx/Qh1/lGfZSch+GZvgu63XgtTpy+Mz6nNTrbeVP+VIPnQWvE5u+66q+U8+v62/RBJhDLe8JHpOqx7LMSmu4IZ8Uzs8hXyB1bNnqYCPq1iEnX/+BdpLOkKYsiJNaMcylW5ezXRrjkGpRO+UGa1n5ecra0redK4j71pzobycllgtgl6rKfdJ3H/2V3zRrDfHy1Rl1JI7Kd2rFaZWEeaZTzonGrQHu16d306tTYC6beokK5gX2HugBUoAeNiJsIuuIrgvwPXTRAHRE+vjnqMY839yH1frCn/WMOqnXrf5nk3wDfYZ6vZmURjS+0/4J39bwncvVdlwF44I2vrTqDXjX1ThR9nUE18frYNV+L53fafsXMBVRdVOkL9cBVX7Tdbng3ZfT17zn+k4RjnMm4uOdYzwnm8e7/tArJfuxaC4+5POEvTrkK8XHmg9QAM6BqXKCHHAf0g+ljTrFlSxDf8q5vI/dPHjLesBYyRON01niBVMxfTnrnojq59sJGQ9bI8/qKTcF4LLqCLwL6ieGOPnxjMgViV9IX6EAXArM3zS9nV4b6LfTK2C+vTP0idJnoIe2iLoDdkA2QNv6qmx4yzewpY76BeuI/rUOKW8gF6jqWK/X7f5lY/lY932uL3SOzLEd1A3ftFb8vrzWdVuUDXfDOsonqPyIylWX0TjKfs8jJg6/eEGXL16vvbBY2VJxuB042D4v3/Ll6rTOk2P7vpQt+LPbrCGuCTHpmhx1nAv47lvtQ75E2INDPlPqmFwfa0uIR/S9OQHmKmckrlA8Dlgt6JRLHtRE4pyW1MfpGQPXqWpfjhU/NYS+0R+JZedykz4anxduZRiAYH1fuFZWI1XUF+9HMasoB8RDFSGjGY1fCt5oQfy14P3mTHp6Y5CHD9CltFeUbgW8ADVy7A3u8tGIsvED/A3cfALogG3VOvyG0anXeXKjud2qT5TjU4LK21vBP8aIdWtsgK71zFBPiCewe3+ZTqFuXV5qpFIS3m0c9QXgWg8QjzcN1QFwgK5PQW6T9etR2l6vsPFn9rMYkq+3BX99cPV1/GkH4Brc0mpv/QryKMtHkydmyzmQ6llhpT438N1J/3PGi4lLqn7IQthzQ75I6ujMY6qpoMzBKOIFyLfT9vTEWjCP9AoQ1wIJfQ5e4xHY+kCey7apIWlpy0g6ZkOfVoh22/BDsJob5eyn8z9qseX3moBgVg0YqigfkAAWR+UnispPiMgL5kTkgvSZonBrAvz8dnpbvhTIo/Q1TBPCFUVHRD3reUbvpGYMbWkDtd8cbkL9poFeaz3XWueNNHwr9Wp/bXvt/q+sGifH9fpQUi4F84zMQwFw5s87nVMjx7QDd9YZ4MC6q/fYjsRDubWTVBb7u/Y7MK/XRAN1qrJfs7ALUXOzz6r+LLSHc1+X9Sxkm8sC+xJcJsJxFxMN9YHE8U8ZoVw2Fb+GanVDjgnn6JDPFOfDUzm+fIzlAVb5cXLgOssC2gY7AA+YO9VC/7La/XXBE1tjBsSxlGkP6/psc507VTnGmRupz3KvkjXMbcNYPBKASNtEFQFwNkHtArgvegJycuSoIB7plS6tktAG4L8ZqDdpA7AA9a2hW1AvsC/hju88O+2ykX9nmQ7cjOdx0avp7fm11nU1/Xb+QVo2/N9dVp/WP8YpoLM+3iwMc3LqUtI6kbcXyFGgmxH2rNovT6Lwqus124B22QK4IEl+viDuiLyBHI03UmCu0D5er3oR8e3otWt1aZF6SbuXNg82HBdtXNepKzuAW9MH3muAo0yqaYLbtrSrjyMux5Vb4rYhH5OT/ytJf8iXig9W/dEB7Kcf8qTD3V76OB3uH6f9/U52N+1v720Pdw/W6W43TQ9SHvG52/kjNj7RmhmvgSMfqpNVq4gTluO5bO/HSetlujZXUh+NrVy+i+4cpuxiHe08U13TKItgabVs1h/Suqz2qm/LMrZsRJOyrgswncjnDSH8yLvPtzVG6qbeKOqi6pnfMPQJQNF/aKR0Ls7CthSPytS5nWWy/7nK57Iecys4WwVONOHpKNivQ7we2h16nbDaPv3n9Z9TUVFfSodFXevLWBpXPqAmKo+IW+vnYi1pHT558GZ4zqcavRFe6A1LaqtPNa/PY7v45ON9wb7yGIyJ1jw9DflhnxV3RGJLugpJ+X1brxKPje8DInRzKj2Tnqv6laoup+n0taz8kzdS+ZRPVL+9kEXVd8tyfHLVGARDjFsH6ZCjMkD+laKYW+ewjl5B3CcJgQm/AiSQTw+yD4AccAvgt7K3WMAukAN1gfwgiAfIdWKjPgHjJCfSicCdMutTGyuSGgquxFIXfhOWs6XdXvZBqx+fLJpr/1nlnETta0wpkDaoVRe+2gxvytkP2KOsM8uOJNW+pR5wSw1wQ7uHeIGb3Dspm4A44OViasHY4MYKaq/OFLULcK8BHGXDTlE79Vl3SaSf1mNoLD5BhBbQC4qCeYKczWwwluV/1EmzLkCdZW9y1aW6j15PXlsUmEvj264Bcl8L8FxqzgK5wR1KauoNcJfGdqgvt3yynzzXGC/WFXOuuTZR2VKVfSOf1pp468JF/Emu6vCpLF/qd/Es6zPLtAXiUiBtUCe4DW+BvPkCuWEOxFkGkPsgCmU8H2jokGMyQP6FUueARSenKzBE5ETmROSCuNVReChROZE4IN/LbgRwYL5R9O7IXFFZPKAoTvaKzB2QcKLrrKxD2UDtfdp6m/VMzLZXpPNb/yhmQRuUtkXS5ae6D3MzkOWXTTXAfR4KKtnmCFxloF2Rt/UkwF06R94Jb2lF3oCrLBGpo1JHrWiCO6NYYEd9wFxl2QZ01GN1UXmq5wHIPU/N2aDForV79Mevf9TzfwHtarPSBsDxwxryBm6mT0jXaJ0Bcs3JqSm2pQP4xc305lLlC+pjGy5OY9/4Uwv7VCvzXL1O5ikpi8j/qLijt7LTkiwzhsepNmwCFzWIS4FzRuQtAn8b/hlROfUosM9ovEXkaI7pcbFDjskA+RdK3DeuA0onosvYVD+xjoi8YE5aJSPyvdMqAfWJSF1tROOVWnFEzknOyY3VWRgnulcSZR/L5YdyRtGnQcb1/rxApXwGoCEV8UDYKJYf45cyztzWzlOsAY3VOtCEdkuzNKv5u29BPGwoED8Y4r7rBZjnBdNSAGuIC1bnZ0TdcRH10n5A3FG3I1QiceydoWeINxtwt3q5imYjmkcD5lLmogg30isAPCCOel9j8F3Msm3UGdbVF21tvK5RV5+6HD2rPiJ/QCyYE41zIZc0EG9ABfJKqzi1EiB/pf0Qnyh4A+DNQGO1+TKXeMmYjm0vTBF50oCsKylXXWf9ouPKOlKnjAJgwdhROXDOaBxgn1ZKhYg8QU7KxVF7RuSGuQ+iXEeu3wfkkGMyQP6V0g4pn7P6I363iNwgF8TvBXNDPGBeaRagPj2gGY0rKo9IjaheJyIQ5aQ3TDn51ZbHsdvqmG626ujr6myLs9V97KQiizr9qTa0zsdeq75r7yNwn7tVZ19zWakBLugb4mWlpE5IZwTAZQVuR+IGbEbiQAv4FsBTe1BjK+1giBvsBT4gjsYYBfJ6s3BapSJbQzxB7n0a6tcZP8xCqYv6aA+Al+1VY+ZrHW8SrCPWd0o0rjcRp478ZnO7BPmltg/r7ck3NN7k2H8eA4CH1nx4uTw/bInKC1k0ShYHTIn8J/XY0u7gcCSdEHdEnrAueDeYA3es2jfAPkHuNwEfTKG1jrb+IWsZIP8qyTOBE1P/IleuMhE5v/JSMK+IHKAL3nvDnBx5RuSoL3qqLxc7Sc+QYvG4nORYqU9QjmP8OJ7DL6WRsxWNdgs+xn9cE3WpfV1Ulr9SVm7V+CjrEYir3mNl+wxu6qM//hyJS4G4UyvxrVCnVqwVjQuoBnhBLaBFBDpDXJA26DpwNz/BrbqA9wrg0kqp8CZRKRXWbYgnyH0htl4DXmP99+us6JPnp6tZL5U23nXRHv1imbJLnaPx0FiXL3SS6+ZCJ3l8p1ViuyoSf3uJT522Ac35kyP3ftR4EZHHS6TdG3OSwTb9pHiJZ2z6Hgdfa2t5c170hHhLqwBoUicVjRfESa9QB+SJxgvktSxjoRrXMGcVue4hT2SA/BskfhlIji944kt950rlyAE4UThAT5ATkUvrgifRuKNy0itEahrQkZtOSHwiQs5KjmGgggDIPLR9+pQt5Y+P+Vyu6krjfBCI0j+mfV+D2WTIeuxKC9ou5zJef7YV4OOOzIB4y5FLZ4iHOkrOaLxAPqdUEs5OqyTUFxCPSJ3ceQA8ljPADXFgqXFJpRDRAkKtD4ijRMh1kTNgLMFNcPul5kcwDHR3mWGeNnYXNvywROJRtwR5pHL8xSfSPSeAmrkDcKLwm+ktkXgC/dVFbHdE48w/96PG87PfF+uNuS9kXT4qbLW3PK20xvLyfTtCKoQyLzgwJ7IukBONE30nyAvotkC+UitdWsVj1MGUOuRZYU8N+UqJe8rzGMsDzcFJ3SfOl4D8haDwt6fxpaD4YpCsqKbTTX05+L1g6uzT7qhPJ4/7ogCE+ipLFudmFdJGvxTqen1G5pFXEhsb/kLmupoZb0LAihQFt8eRtohvbO6mSwHIFywFLr4wxD3mvs/8/Hr6XfrHBXrV2U4vU13+YPu79Xr6TRr3h8tvGveKv5Ff9s35jdX3sVOmvte8N/212rmvnG+J+k6Xk7u4p5w0SD4qoL+nfL4PPK97WPFTq4/8+NYmqjEO3J+ejx5gbKDOG401PjH4zcafGrQuPtHkG07/yWH5onZ+Na2bP6r602yvWccn0BLKdQz4JJByrDjXXWCWtoibeo77XlmG4z7HQXy8DfmUsNeGfIV0h3AegGF9u59AHl8Ikp/Q3uaXggLsOu3Uj+euEKLGl4LkUycvYvE8LfOkcNk+645y+LPMdbJeGBt1ze/rStw33OOy6m/p6tp42m6No7+2HFzeBbJEiqeogF5PSfQ3QAUqno7oLw8J6DyPxVA/B+o3BvHvssDdalCHAu0Z1oKy7NsEdHwxSBEsypeG0jqSxxrM8aWfKteXgFobdf5C0q0B3r4cJOUBW/HVfQF4/e1OQXrxBZ+mAu6iPp/dklF5e+iX1LdDkmZJ9S2J2mfk0Od7xjVegzhHTb4q9Xr22sux9mdVf47VWbS2am+iOo5ng7lgLdvSLfhSgH7S5cObSnw+MLbMYuwhz0nuuSFfKz7OfOCG+kmH0MvHb0TdBfN4rG3BnAMa4GPVbqBzSrIg0C6g17nSwdyVaJSjLnQBc2zrmzqbRd2nhfFizFlinU08FnX8BeapqtVWzTAX5YHRuWDk55Z3QH/dAT0i9RnsQNoqSJfWt0atWqa+7m/lXmwArHGt3A1iBYoAWVb1/gJO1alcsDawq5zf7OSpivWERCJoR+IZgT+Bt4EOvBPg1c6PVuQysXxE9YY40Ga9nlvMr93jjpL+0X6LWw3nVIphrhfbqRTk2OtK3cfaS6rfUeVPWrS7PhBtdUzkq17gBtgVjTt9gp/Hvq36t2gcP3XIZwl7bsgXCoerBRB32o5BYC1ARxpFbcD6VKcaQAfi2V4wN8S1YMA3wGyI+4TgQFe7fdZNv75/1YUfQHdl1lGuttJ1XeeXLT+lFZuT82uqecpGXfhog7mWc5Suk53ZB9SBeQH9cbo01B8a1FukbkBLBfWwCXy1Y+nj553banmB0LflGc6RA/cjcg1B0hKyRMGCZ9zDLag2P8FKfxTf5Uh7RDvLqw4QJ5hbWmUBb6nq6hkrBnf1Sz/G09iMjy4gnkpO3z4g13q1HeTUHY2nxhHAiyPLvuYliuKsJWv/qOrPwi/NcgEcSROWNYMVlOO7A3jzFYlrD7rdfeIY15+VptT4Q54V9t6QL5QGbsuh/atnkZfW0w835MYF8LDhR5QunAnigNyqMeMDMi+L+kl9egqMALI0pE7dLOtg53iPY36uK4l+tazK7tzVVd9umeOi/p6HXPfF1/x88U/z3ktpl0VdVht2o/aN7FZlBeQ+jXuoE2UC9guBtuXSBTUi6FJ/xR4fC9zkF7DjWeTYAHXAusCpPSuwOq/brJSbhB5ny3cBrNx9xJ1EWMGZZQrGNd7sS9XH7Qb4MhdeaqDjyzodk28M9aYRz0fXdvlCbH6KyIuyfGqpqNy5cu2n+gKQX0FtQr1Z+sWxpSGlyt9LS/A5F1yXlvIiEs8UijXvTLGqvWxF53U8Ih4ndchHhT035KskjuYCekTkpQIWANcBGgDP6PxUB21G4lUXBzMK0liGy4MMiA1QP9EepMCYsurD13+r/KyzH9N1OZbr1JL9rSluY+yU7F/ram8sWOqANz6204C59BFLP73JdbrVMih3NJ5o8pWCOUvrVIzL+9RHW+AfNt4I6nGvTjEAaebLzpSKndb9o94sd5tphz5sp4cH7MbW/n3UP6o9lGW07C7gHoAH7rPGl7mANTnvhDjgNrwBfkDf0Xi+sfgCJxD3G8+D1RAH3v5EkRDXp4y6y4ao3Hf1AHC9E8Y97rHNHD2WBnG12aYin/I/qfwpX+p9jFKp19UglgJl3qYNbnxgnXexNKBLqWeZgnidP4w15IuEPT/kK4VjjmN4TqsITETiFZW355GrjiicaPwsrYGu0w9VX+fHUb0kvAEYiBqyYMkp2+rwFxrzwM+JSCXVgGjZuWO2V99FW1ePVP/Svi6XZV4GddrDXvMv+3giEIZGfdSVTipvBHgidUO9VGP5bkaBouDeQN/qsVLxVGxLZQ6aE5rQftwBZsW/DyfTw/12ur8/kZ42e3t3Ot3J3mGl93eqR9X+IKjvtMyjIL9/0NB+MwDqWrF0gybMicYX1hF6QN3ReQK8pW/ItzeIkwsP9bc6mwLziMojR67lMk/ui53aL/OthmnrNSrbK7JuK6lyU/154nfWr3+257FgIPPJrKJxK7cVEoljS1WPAnxjiGVSLTn2kM+S2mtDvlAWx1hFEj6OtUsbyOV3EC/dnOkAxs/I3BE5YM8UCzD3YJymgFIeVniIsuuWWkCNMvOb/fgTY8S4CMvIlPbS6rJv1+51hSONdTrKxje8OxWg97YB7QC6YufUw071KO2yU/Zz5G4lYtf+AvSGvcquC0s7sJ5V6xOwUcMbCANvKcA2rA3ss+n29my6uT2XYs+m65uwoafW29sT9WVZRe5SR+oAXVG6eKz1aSc4QtdekY3IPDRSOTPAZ5BHfr3uUolvc0a0DawNb9/vnr40IvJKrWh5cuSGeIK8tF6nBYBd87wtWZebdA24Vv0p38dR6iL6RoE4UTjaQdxtqPo31fI+tkqHfIlAjCFfKRzHc658PhbrueS+0Am4rfzIxKkhTlROmmWLn5G5IxGnVfLUVHkPHB2hZHse5G6nzSeQ/uO7Lfx2YtWJhuaJV8vYp9n+XGcpf1U3L5vrA+AN4jknQ1wWKK8i8sedAN7p4+4sbZXntoPge8Ba8TWu7H6h2kfqF/BmfKnKuwfFugJ2RN1nAe5U4H2N3kivz6cr60XYK2z4tN9IbwX4O0GdNwAidEfn0oB5RuaOwMsK2C0KB+qZarF2eXGUaDwhziN1fZ86X1zijhtpAb0i8nqmSkXj2it5tOgVNlxL41WP1+o7ancc5RrC1rFJJG6kJNCBdfvavdRReULd7Sh9GWs+vmeoS7yuIZ8S9t6Qb5B2TDsiT3WqRBAXoOv+8S3wlvKLQc6POypXG3nzzJFzQjiilzXAsRpaOAhISg33XKmBnkq5NOoQWTlxblc7IqtxmiKLctX12vUreGf/GeDS3n8C8bCPAq2tdPdwZvCGpi/4LuoX/bp6wTXs2XTvlAjABdwVdQvERNgJ5QB3wPqD9D16dSktezl9kE+bwc4yROoJc9ItEZlv5sj8UfukwVya+XNH5gl0p1OcE49oHK0v/MwQB9oBcX8LNb+1yrdSKyL3hU4u5G65yKm3/EytxONy81VbvGZUdLakL/f9kCovVH+0WXEgsRavKXy361g9AGSO2QJ0gtswz6/g+0InZdqqn5bxctgcmzGROp+GfFLYe0O+Qvq7VhAXgbcgXhF55cn9c29OqQTMDXFZQ5x+tDu1ohiLAxqYc0B70IRjr6oD6KyacoOpVYtY6YdE+6zZjvR27Vfftry8akPSxvqyjyN0AB4g36tcICeV8ig1lKUPAnLT+3NFu+e21oco399fRP0dCqypw0rdLlXdXeot6nRJglv26kZQRg1vgVpa0H539Sp92Q/lA/NLReeXBj+ROW8GAXIifSJ+Uiza1IzKDXLDHKAKrou0CrCVtWZKpdIpvqgZ97oHwBWJG+CyhnopwCc/Ho8vqNw4yqs8R+Pda/QxRY7Vo8jR+jgG/Kdeb+o0C/s+bgvOgLpAngA3xNNWe6VVCGQYyzDHZdwhXyI6BnwqDvla0e7z42vZi4rGeFgWTz3kYVn7m/vp8cPdtHt3Oz3+eTPt/ns97f6/q+nxP1eyH6bd//ug+qvp8O56EjGmw/XtJGpMota03T0IAg8CwoNP3I18cqMbw0AnsvOkgkNFZk3VR2czvn+UQr6fg4LleSf4WF8h1JztR910ojrOJdpcJ/9E2+e2LMt3AIav5X2hlrJOvmC5AI6vxr3awJdmEaq2R7VVWSNGX8ZJ9XqxlO2z3qyrcmtjec3HVqouDpDV8KjKB+t2etgrktYby73svd5U0Du9qdzrDSXKAjRl+bv017p71BvOTkqZN6M9dXpz0piPvGkpIuWNi+1GQ+TlfvdrQ34bJd9NpE3EzUOwXt1Ob9DXN9Nvb26m36W9fftKfS4F9wsidC1LdE6KhchcWx3PNpeyA3gzse1Uu6opsra9rOtamRdcAmwNXACc4HbKJJ+nwsOwTn+fpvN/KFj5p+y/pP9OS1lK++lvGoLnr/AsFmAP2BmPsVkHLzLrq3055GMyQP6tkpFQ3XtskOcDs3g41v7qXiC/mR4F891/BPL/J4hLHwVxg/y/V9NeID98AOa300Eg39zfT9PuTlzldjaALgu0BXFHdf5orbJO5gXEwaba4ufTgAg+dvaBYcGlgZG6ugWEcvlpA+TaVqzOMcoBcuGDMuecoN0AnjAHqDmrtHobok0LRVuq+ma2RmOiAWf7rLPK6VPvOWS9eSVbWQ7vKTUY5ABckL2Xfdh1EBeI77MMnAPmgFyqtgeDWpDOMtAOSx0Al7IdAjnb45RXgtzzRjQ/9jWvCa9VQFxRtSB+zmNoibwFaED+9nXob2+uDW9r1r0RyONBWbvpQiCPFEukVwA5q/MdK87Ty2eHsDNU9M7BosjaX8u6jnKDKYDNF9yRNPCVngrifq64wHwmQJ/9IRXIDe8E+YUADthpM8gBfj35kCi9onkfWKFtvUM+JQPk3yjefexBQM6JJJgXyB8B+bWi8vd3AXJF5I8FcyLy/wjkis73isr37wVzReXT7d003d1Nm939tNXn960icqJx4UNw5kIZVtF4QhygB7jRqEMNENvwWzRun7M96rA+Px2N43fa4K1tW0Xk+JzPT0BugAe4A+aasTow850673SCPgqs9ME3BKljX3p5OYxHmfXknKve63dZqmK8ARzMK79RyAbEBW7W2yJxWUEYYNsKxIa4YO6IHVAb1pqXo2wAjq2om4g7bEXggNwpJK1He1PHQoHcf3OfA3G9TlyoFMRbNH4pMPNLPzyaNoH91hE5MAfiisTf3PkZ5K/V9/JC4OcNIMcpiDu9YoizM8pKvXM6H/FODbdZpPeRRZktSeEFAbSkQnyRUuB1/rt7uuFZRuNE3sD8QhA/K6BTJ9A7GufphwVyvRlwsDnV4hc97ZDPlQHybxR230b/+Km3ALk00ysGeaZXDHLSKwK3Yf7/EZkL5JleMcivBPKbAHmkVwRzonHSK8aUwA4aDfE8mR2ZJ8R11hY4Au4BEoO8Wc3PgJHK4pcuypVmob8g/jQqT+U8t63IugO5ZmyAy98JfGgAtsraGlT9gL2XZ1+yX7GsS+MDalvVB9RRIB6WNwF4FRF5ROK8SRCNh0bkTVReICf6dppEbY7EO0jbMi9Zbp/kjQfr9Inqw49trGsTTNDzw9O8av8a4lIAfkpaRBopFYE8o/ECudMoCfO3rwXxllIhDcNFz8iR8+x2p9fYSxx/BjmqlffwLtsrUhb5VJ1ek5DYxoAtSkpFAG6PqeWRtIqyz9fReA9xIE9Ern782IRBvo7GUdZT6x3yOTJA/j1Eu9CpFZ9Msk6vSO9206NAvr+6E6gjVz6nV0ithN2TXhHIIyq/FcgjvUJEviEqr/QKWDSw5QvmPpkT6BWNB8BDgckiKk+4AMPZ6mw3nLNurQ3e2q5KuSTEbXW+4WMD5AFwZpkzTYDPSoQMOKNMO7Ckf4CcCBdbwNYaw6qMzCCHVUTjEdHDLaLx0siPB8idYgHe+B3I5wg8wM08nPopWKfGYxLKz/nJBzoxK02Gv8xRGukU2frBDPLalVIh160o+7WjcQE7o/G3BrhUAAfkhjjR+Hm8AfiXgFDG1QwayA3stL16x620pPxP1eV22RZonVIB5OTGATkpFVIlirQBtXPhK5A73YJmNO7nkGvZdmHUB1qsg/UPkH+RDJB/DwHk7EUicoP8MUBeeXKnV26dYjHIHZEnyP8TIH/8M0FOVM4FT0XlBnlG5ZFeidQKETnocmRuO4O8h3nYgDlnB3AxvFGAXDb1OMhnv0+vYCtX7pRInn91QbOBXA0BbEXCAmXkqyMfHX5BPYGuZQrk5pHOZ8b12FJ44ki8tR20TPSNyL5gDqCBOEDX+AD7MaDu9bUoPEGu/hF9z8B2yoSyxo20SUDcZSZif2YONvat9jtqiEc0fgaIiaq5K4W0CiDvonHnwm0zEn+ldoCvaNwQz2g8ro/EawrEeSl83Om/X+ZeESx90JLyP1XnbcTEthqyzo0TPQNxqYFcufEurdIgjo+qvnLj9fNufTTeQN6tc8hni/bckO8mPpP1n9sHt9yCmLcj5rc7/cWgc1np9uJMeqpj+Uzl01BuTeRWRB3U/qIQJ458AMJLFYARtABIacHFAKq6sAZNKhI2tL19ux+Wdtn+xF+otmFNVVkxxUDBWux7Bk098EGxsyyfWvZSA/dRkJWSv77bbafb3cl083AyXaP3p9MVenc2fbCeW99jb2XRG/Tiif3QtG4/jNsIuR2xvs3J/ea+lVHKNz9L+VLRjm+F8iUjvinKN0Z3Un9zVNuXb9ZOZWgnqIe2N6zeEgRZbi8M9cO86iv33E7I0xvPU/MXf0IpC+C+oEk/0ihaNu9OQeNTl1/t2K+1z5mP/tvvFflY+VNax4HWZh/rYwXleJRtEE6oO9/Nr/2kknIpLfA7+ma5LgI3tNGUAfEvFl6RId8oPt5LGsz1R0CPR9ly7zgasDbApTpTrYY5bfnNT4Vxin6lWp7I1BEvp7DHDqBj42O+1q+TK09vKxNqviRsaPSnkn5VDt9Kv75seKMeKKM+lelpP0dOsMy+GrifGr8WVmciaIC+lz5Kd+qmDy+OmO8FSwMdkMtePyTMBduwp4I5mnBPoGPXeiVYX2EF/pvU2/vzAPgDANcnBD9LReAG4NL4hqjwbIhr1pmvyU2JTWAbc/viHvG4TtEee5tPYYwv+qD5RZ+EOBc4G8TrNzitQFztgniAPO9OSYhHTtxHg9ar9Ws+vkvF84l5WnOOTZFj/rHys3X1+vPqggwUEBNskGZBia5JlQBz0i0Jcytl6ukHxBPkvmgax3ITr2/Il0q3B4d8rfDlIDOW4zwqwqeOL/wAc38haKtjOqCtM10AB+ICNpBPqOtzuIFeXxCy1UEfsRjwJg7sonLqaKty1oFPJrCor5Oya7NfJ2n1aRp1S0ho27A9NNIPwFHR1qC/nm0qswrb/4NHOy1XUL/XG8W9YArUA+xbReqnjtJDAXvAvXzstYGNPUtwn0lPrfcCdYE7vtQjeD8K3o66Uc1M68X3GxXblMr2Ak+DO1VLes9rFIP8hCjcX9p5mM74Sr2UL/PUF3z849AdwOuHlOOX8RPy+cv4QDy+ALQXyAPiXp/nEPt4EYHXXMtf1yNV97mqV2lZF6+okeGIHBivIO6LnqRMEuCGuerrS0BWlkuAezwUI7s4iYZ8ibA3h3wnqeM/jnftWkflfLMzInN/TT/TK4b45VkocK+oHMijROS8CRCBMxYWQPsESFBTZ/gGIpty0mV9TIa5RZtPSE1ULLANjTprReAFs9aedYtlEupSbEXfMTu/vTiXO2vk8Te2j7IBeLLbB8GRKB2o540/gnqkXSr10qdfiNpvd6cG/K30BmCrjvKd9cT6IN/w9jdKSZsAcCFYnwAMbyJvb2uo34gMSjS3CfV2sU0J1orCicBTgS9ReHzd/i7uE0+Ac+EywJ2RuDWi8bhHPCEuja/jc1GTdQDx2Kfer54f+zysmufXqb1eqSV93XP1SF9uGq9zqI69gnjTBLmBLZ2IvBPmLTrHAnP1X6dVOCbRWt+QrxL25JDvIItj0JEFx6nA0CJyHbyCOAB3nvxCFi2Qu6yTovLkROInp5FiISLPXHngRADSiTVH5WmdalnXzT4no89//K69fHWMPj0Q7FdblZfaR4cNfKg614x7AMadNwAqgF6gB+yswKkXLUfqJaDOrYSRfiGnbhXUidpDFW2n+r7wVINb0AbcpQVufwsTeC/mvtoGFTx/5t22AbgSgQPaAnhE4C0XboAD6AB1QJtvaErlOxoH7LJOqzgvTi6dnDpjMraice+v2IfxppIau2kJ8U8pUhbp65EqL8abj4lZQQYR9QrkLa2S0bg1QW6Iq19BHICvIT6i8W+SAfLvKD4O9Yd0AdY/+ZZRuc5IHcvkyYnGKwoH6gHz5qvN6RVH5VIATuTN4ETmgRZZwJ6o1AnmfLnRk6q6aA8fWba7yien/TphEdfJL/XJ3ZWlhkgr47OgNluWNXiWGjhmG0AKiMs6ZRDRbDzJD5u3VqbmzDVi3GBYKZhHwRcF7o+CMrZ0BjZ9ZFHgLeuLlZprqYdOBdqx9xLWKPOkXPN2dAxgpZlC8aNlgS8Qdx4889zSuHgZ0F4od6pUOkWRuO9MaRc4eVOIi5v8ylFBPOYm5YXyfsf3rllsx7OK9PZLtNYBvDnmKio/AGQgLp0AdUbljsAT4rYFcfomyLVFDeQc16jXMeRrhb055DtIPUQrjkv+UJByzNbjbBVdkycPPdFxnqkVQG6YE5mjOuBbVI5qkIxm6tQOQPPyqQycXI66JbBmf67TYlhPcParf+lcVjMndMFb0MSKM9LO97hhUQNI0OF2OaLvUw0AsONHhhNYQFEKICtFAeABJ4Bv0bq3MGz8y+nIqeh6rwpf/9N86tOKhc6dGtyoCrMC7pgrd4cAUUPbbzIB8JorTy0Euo7CBeC6I6VF4JkLfwJwvoqfZadVyJ9reZSv3hviCfI1xJmvjOfuDffGd1rldX0p8lxdv4yle83t6zhjX/q15pgDxgA8IV4Ar6i8UiqO1NEEeFPG06K1HuyQbxJelSE/QArmROXxbHKpL3jOtx5uLso/E9TPp+0rHfSOys8NdZ3VOmdUlsbzS/RycQHULxsawPIpb3iFjVP/qYZ0dfTlBNXJFFblBQiibqFux5/7AfGyBXGAg623HsMcIKoToPKPIguK/Balf0XfqYmEo+yl/ehD//gijABnK+j6IuAMXe7f9ocfrQt/TkRpLiq7Tv283Ja+LF/lUINbWm8yAW/NVXOIu1Bifsw14K2IukXfCXAgzRd6gLaVlMrt9JsBrj6OxiMSn281nCHOm4bfvNhnbAv7kXcn9i37uayq/FqUUkaR8nvt+6BIXy5djMnr3b/uOn5JpxxQHYdYR+QroDvdklqROPAH4rwiHMdWjZsB0JBvk5P/K0l/yDcK50Eclhz8wCPsfKLESRm/+xiWLw+Fqm63sz9Z6SNtYeajT+oYT+N4QM4DfJzwTc+qd52bom5h6YdX/W1cYz/LWLtVV/VIX1crssaYIYrWbZibK0Lke+ZdXZsvdbaxDSy72B5pA3RaIO5y40PVqa98fSiyjUyXyoJ5vBmgVc46vgIvNVgBrJ+RIqALuHxD01+zR/0FH0EdIANmvuhjSAvuBW1/8SctSirFEGdZxmHcgDjqdfuNRuo9lNsojdcd26kOD0v5WKTakbVfUvV9m33Woh0JwL2nUSAMkKUG9qWqXsvy5Z63Yvdv0vx2p5+nwnNX1OYvDJFiKagn0HmhWI/ThbjesiFfKQPk31EAN+dBpVl8oCJ5gujcVMQreEey17CuJyba3gvoPHBLGiCXLy2gsywjEoMXzF1OQLGSaJeVM7fTFpa+VEZ7avqxfBRqGdfZrwo2RrKoS1Gx9V35VqSspNZhAFc3rLcn6/B1rvvr7lkPePkWapVbO7bqUg1n91GUi39M+fYlETjW8E6IA1ir4J0gN8CJog3wVMAMwA1qQZxvZcpv8E7lmSkoX7n342gL4qe5Xr+xaD45d+8X9on3knx2/edqSV8+ZntFbLVGf+oqBbwZhVc+3HDOb3UCbQBuiANzwI6lHRX468cknCL0CybLlknrQBjy1aIgjxBvyHcVR836T/Sd0PYTEfna/u3D9HhTj7e9nfbv8/krPKM87SNPRfzzejq8v5n2H26mw83tNEn5uv7mQZrPYDmZeDQUFwkFAPuK6ASkukBX+eX5tr8oBzjxNbcCRtULbCaGLGWs/bQLra/v00/n+EEgigBO2y0bj5rV5kv5hB5f3WfGGz/+y89dUce7/UnqadjH0+k2Lc9HoS6eYJgPueLuFVl/pV9+WT94y0rGmw8yeitLjbdAXpYOGnJdsmV7ZTXn2B/Af34D8IOqHK0H4BvkBeQzgOznoWSUXdF2Pezqgjq1UwfAZYE3bxCnsvUJoN5ovG72ac2PualoyKJI+Wzouq7KSF8+Zo+pX0StWfs00iGAPAHuh10RbQvafq7KP6bp8t+hr9LyyNpL1Z8n2InM27c6UcbLdXgjYyuHfL0MkP8A8S71SREgr6h7Esz398D8ftpfP0w7nr/y7s5PRXzkRyf87JX84Ql+cELtfv7KBylPRbwPbY+35XnlgByAG8wJ8wZxwB4Ap86A0JnfYO42WTBncFAXIIkfl+Acw+/qOK/xu2ewNFWdH2zFOZq+gZ5MMNC1tl0C3Q+1UmdgDqjvADs2NZ5YGHAvoAfIBXEAjtWy9hPgAfOwBXDD3C+H7AIabJeM1PshreFtG36B1jBvkTowDpCfnwvktg+RdjG0A+YGfAFcwAf6Z2cRgZ84Ek+I5/q8fqnnVHMME+INOaLIx/y1XfulvOOyRu1Dv3CGOCmRArmgbDgXyIF2Qtwg/1foBc9doU9F5qRjKiL3QaT/PsDkD/lWGSD/UdJF5SLLtM88ePzgRD0VMZ5V7h+e4BG3fhridUD9v6uonIdp3fHrQRGVtycjOiIXuIVG1MBWnQHUgL7UisYjCg+IB8w5t6LesMYHypTtR51BbRv1Vs7N9P342eyDD8RhAg+7iickTgnzAPAa6PUwLT921pYHboXfg9wP2jLEAbdUfgM5WwS40fI1JSRgHiVvs/dFbOsa5IasIa59m7Zy5oa4wQysgfmDfQO81adv8Gt5+X0UTgTuNwxeh1w/s0OZY1hJm3wqUv6xOuSYLR+pslVr0ssZvl88lZkQL6xAXhcz/dxxQJ6PpC1wF8gNc6J0nnRIP9Iu5NN7kDMu6/DOlx3yrTJA/qOEaNwnhf44KgfmOlOIyv142/5Z5UTlCfD/COpOs+QTEd9JE+T+4QlF5JsHYU8Q968I8buQJCv8mFsi8IQ60bjgUGkVK4AysKMcAMMPkAHsAFu0FZgXftrjqu2VNchbxA4XADj18uGFtNIs8bbjtx6BOaHulIuALd+/7AO8Dff0E95+pnnzNZZsPMUwxo07egLmWL8saf1GhSs16jVH74e0EYmnBbyyzmMXxA3yBLQskTjgDj8gHu2hwJvl5rFi7IrC4w00p+QpqoxBNFVrSZX7+rX/nD3mG+Bam+uweqEcmQNxgdd3oQBict3kxEmZCOQXALuPyBPoQPwC0Avk5zyyFpDrjYDvRfDG4DuvGF86QP5dZID8R4l3qxDBXSdynWIhIldkDsgPBfPrh/jRCUXlu/9GiiWALpDj86MTCXP/FBy/HpRRuXPmjsoFa55ZLsu91wAclFW+3KqztX4aroFcE5uBDkyiDsgFWOR31vCjjL/WBu7QPirHRmQuX+ctjAjVLGUD6H47ChVIIkoX2A3xgDVwb5F4aYKcSDxAHrYg7i1KX2u3yg3FsK3e3vQBt+ZpgGNb5DzD2BdFC+KUC9iGd+W+qQPYHcBzLEf6UtZXIGc+npbnpTpMiSe9ss/5vUWea++VF8NtsvXiaB8GxKWHTK1wp0pdzKz8+KsE+euEOWB/pfoL0ip554pTKyxfEPfOjvUNkH8XGSD/kaI96927iMof+a55/Dizf0GIXLmici56OleevyJENM7Fz/xNz8d8Vjm58o1z5QnzvQDu3/YkVy7rCBywR3pljszD70He0iuaaIA76j3xDmwGO7Dh3KYfdbIF6dlfqp9fznI+d1U2H8IWK7AtOsfHqkNF6Q3Y8g1wLdDX+1ueWQbeBrmWjQueAJytoayt1PhIWVXnNsb2wZSKkg3yisgN4AC489oFc8MawIcSgS/aUw1vKwDP/V77N9fruXhOKmMR7bqjFsEvLfmSfqV+IaqsSenwDIjrRdObqKNxtL52L4gfpBtATgRucBOJS4E55dcJciCOklY5TZC3/DhbWXbIt8oA+Q+UgLgP14jIHZXHrYXxS/vkyxWRf7iNX9v/M35tn0j8QTDfE5EL5o/vBHZF7JNA/ijd8FNwKL8ixEVPonLA7ahc4MhvRIK4gjgRZYCa2DdgAqQMEpfTT1vwtp+gw1qpL0i7ThuIbXXCZ8Ibjegc1X5QO5woq4A6wa5ZyBrCWhSQP4p2BXVH7PazTlp12IrGWTZAju+3qLR+KRYQR9u2ah7eP5onwPX+KQgnzAvKJwnquPAJuGnLqNu+bC5jeGMZT2PXm0bcfceMsPxlHv4/SzTPFunrnqsvOdanryuIs9N4cQrifmF4ATMi9y2HpEe4Y0UgP/tt2jitQkQOwHuQU0e0TtSeID8VyLl9kad6sp7Y2bHuAfLvIgPkP1DYtT5MtYfxfeEz72DhF4T8A80399PBMI9fEaqo3CDnAmifK+fC59V1/q7nrX+o2RBvMBfSALphPUMc35FmRuSlFYEbLOBONnT2A3KyCSADOa3rq66BW1SwRbNOMIu7WaKuwA5UC+T2OyVK1xoM8YLzrIJ2+VoQy1bygC2gTZll8VnWPuuQLzcEyzzYPvktKpetiDygDpSxwDvLUsAdkC6oz22VkvEY1Gsb49NPjB/7NuYQ0/HMoq6XqA4p/2vrSpFW1gq1g0g9+VEL3lm8IHox96RUZEmp+EInECe6fqPi7wls0ipE4AVyVGWi8QsudAJxonhArrGcI9f4BfL2Ygz5Vhkg/9FSu1dmvoMlYM4Xf5xeAeTcwcKFT25JVGTuX9xPdXoFXzAnvbKX1s/BceETiDtfvs/0SqIOdSTeQ92qNkHG+DNUoj4AE+XeN3DkA76wqvO5GHVNBa0G9lanbU+/wZw6+ZVmMTtc1u6hLA2gB4jLAvcCtcvYVV1sVVitSWNFGUvZ69XYao75YzUPbyvWnNH+kF+fWgLGAem1H+DO/oY37bPWG4PH93o76/n4/8fFE+8scsz/WB22/NghWSfbQ9zvrICcFynvVhHMDwL5pu4fv8gLnYAcNcCBOWXVG+T0Bf5E8hojHwCnPxqPLZbaDvkeMkD+g4Xdy+Hqvaw/Tq8QOhKZ8yWh+/30eMdFzwD5XpF53I7IBU8gHjDfOypXhP7uKn6gGS2Y77iDhTSLIK6InDtY2iNiscAdWPcXP0t1BmPX8F77Pu8ELANIYMI+gTkgL7/6GO7a9mzr0yy0G+bND5YUW4B7WIAdrAHcWjrLVY9NgGeZPsEq+Vj7YT0vrNYNS2ob7GOlfqPDqo00kuHtNu0vl6VHwU1djOkyy3uduZ7ymY3tZwgT76XKz9UjfZ+1XzvDOzdsPJN9q10j2PpFIA2Sd6tkWuWgaHxzwd0o0oJ4A3lC3GkVLnQqGj+v+8c1DmmVkR//YTJA/hOkYM5JU1F5fUlof78zzInKd1d3irgFckflwJw7WRLmmWLhvvJHviBEVH6j/qRXHu6n6eEuQM7FTz+XhXx5gDzuJxdY2tMEl0AH1gYWCCzfmuBGE0qGYILKkXm2FZifwPyJqp9sAzo7RstURM4YBfOqKxAb4rahWjqs6gvimk1rq+VQpMbS31iv1h9MibnUdvqaHPsFP+uBd5Ub5GnrrcZq+wrNdcU6aMt14dNUsiishA3ppcrP1SPrPlj7WhGWnSULvDfaKTwoLSxlQJ4XOAXzg0C+8UVOImzy3kTjpFYAeIL8TUXjgvgl7fSraFwg7287HPnxHyID5D9LiMa1pzl0gTgnU/8loUeB3LlygXwvoDtXTorFMK9bESMq5+Lnob66fx3f9nRqpUXmGYWTL3c0Lpgb0gV1QKQIk4REgruATqQYPgCin6zqsEDIAEcTVs231cZR90mNfnN0PkN89rWfVLYvte86qcpmUfpayn5APdpi+VlrvGZzHYvtkg9bvM2ltMkWrOc6dc+2YNNc77EYJy3SIO5Cq+6cZyQXWci67li56prViqpeGtCuSJxpCLKkUwxygReYc9+4QN7SKlzAvADiirxRg5xonEg8o3Eg7jtWgD9KaiYhzk7n44p3wKc2fMiXCHt1yE8Qzp96mFaDi0K4erytfwbuLH6U2T868Ur6+mzayp68vpi2r8+n7RtFR6943K3spU4QHnWrvtOZ9PRMJ9yJVFGUThbh2SfQQSeoMATGw4p8aNxbjU2fk9qTMrZTo811SUmXrapu5Mz6oqvhUEq/7LuoiwtscZENq7Vo2ajD1+6xahZWDtbYmhOVtZV+JG484zyUH2NAz7eyUiyPy61H5V6kf3nyKMXOdReqQ/3IWh6xW8urLh5ry/i5LvlYrjvEHmZPem9q3rOq6O0wv/UpTN3ncin7oi/3eqztY/1R2hd9+n0eWhCf++pYITduTZj70bNE0joOnSMnz51wJsoG1OTAz9LngibQrodjAW/e1ZAe3sxpyHeX3NNDfrQExBVVpu+fgfMzVVXRnlUu9c/AxY9OnAjeJ4L39k1APGB+bpgb6IJ5/DycThxykII5H2MNdJ1ExOU8w7xgbmjbB7yUC9bpu73qKGvGtsw9bZVtZYAE5WbZzCz3bYZGXzeXZ6DHsj3Myw+oRx1gD6Brc7FSgK63MsEWDega6s2XJowN5mxvfqvDzzZpvEloHbIo66l1srcMcM2nn1vMO9QAz7rY5i/QY8tQt65f17mc+/pJn25f4+s1j3SKtkg+e1QHUmg9U/xEx5lAfTCsBW3SJoY4MAfsArghLvVDsTRO5Kek8llvBjHNDvmuMkD+E6WOZ4McTZjXLwhFVA7IFZU78pYqKi+gh15OJ2+BOtE5kbl8WaLzQ/36vmDOj1FsfDK1n3bQeQt2BGB8negRnROZUxdtEZkz1wD2rLEBDeLAwP6qriCRdf6WT1+PbXVZpp/sDPBqV1njFxSpb0BX2QCVJUIPqAJUbR0qf6kZTaMqNz+VPhXdB7QZT2PnsgHrqGu+1IBmPlb9oaw5tTr80mrjfm206qt8rK7Ka2WsGq/VzfvyybIeL9p5nfjpO0fiVvnaso2jaJTcuI4nIO70CMAmvRLW39SsO1IK5kCeSLw9rlbj+PjT+COd8sOFPTzkJ0mlVnxA4xrmHOiyXYplmykWAz1TKsC7YL4VzFFSLk6xXEj5mThSLajTLPyqEPCeYR7wTliDJ53EPax9kluj3odHq6s++m+IRH9rB5HWrwCS9dGv6svP8gL2URdQD41lVScYAUbXaw6oEYFVfUGeuoB570vL9r760w8/3u6ijuXqjSHGpZ11ZcS9UnVd1rFd6GL7o1/TdbnqjtUf09avG79f3vuyU/p4X9cy3juh9jMSJ6oWkA3uButX08FROHejSPEdmSfEAXi7zVDq4857LLWTAfTvLuzpIT9TfBBHisVBSovK9VIAc0B+zk/ACeKX6NmcUgHiROPyT94K5ij5c1ItiswNcfLlpFcE8z3RuaIiAz0QZV3kyfF1GJQC8YjKUzXJ5qcy8eaXFhwSGm7rIYK2OvVdtK3Ly7oe5rEezaDqVTbc1Y41dF0OnUE8txWU5/oZ2DEW/aKugVka64r1tLmkPqnL/kvttgE92ucL1MuvxnxW1a9F6dqGTKdERC7rWw0JAFBSJKRRUIFa4AbiG9+NEiA/APG6M6XBPCHe0iqpPtB7O+R7ywD5XyCcf3Fcc2Drv6NyletHmkmvCOYn+cPMJ5lmaVE5AHdkHjpfAA2YHxyV64QC5jqx6gKoIQ6sDWzBVoCP6LuUNEu24acNmM/1KBP3R3T8qgMStqm9/6ROfRdtq3KNl+UCd8G72uZ6zUjLFIhbHdblzq9+vVLntipj+37he705t769zfVYOsRpjSrH9kTf8qtNqvV+lrZx8HvNesZmnZ4rsE7lXnEicLTqSDZxcVMQ3/h2QR1Lp4rAnULJCJwHYAHwC/nSDeVKsTgSJ4CQOhrXmJVW4QAf8sOFPT3kLxDORadaEubkEVtUDsxPA+aOyrlzBYATmbcUi6JwonHDXNESUXmLzHViZWTu6FwnVcCckytgToRuUAPz9FuqxTBPsLe6TilLmfjHYN7y6AWX0lanvn29gVd+1WefVhY85QeUV7YbbwZxp8/Wlc51MU7Y1s/rkdU8qdPOWG1fV+7n736MtdJWl30XY31Knxmj6vGBNPOocSmj3JliuAN0cuHAFxuRuCGuKHuT0befKc43NaURlQP1APt0TjQOyAvmCXJDXEqQUsf5kB8m4zc7/wKpXDl/OQ+R+TDHyxb9t6eP+P4iES340mhTK74KURf12Hp/oB7rvm4Mf0s7nbx8+EKvW6OieW2+c80srUmy6FUTSPeJLOqqYxg7fbunSEXqYkD5sQm20UP/mp9lOcs2/sn2yxxrz79eB1plBECiTaqcWv2rrrduk9S4pci67mNqQOd4tiiQlha8DXjZisIBbMIb3QDvE4HbtxeSLlHEbXjnPeFNuYf8NwULfOknQe68eaVWeCPQuC0qZ11at1+vskN+hAyQ/0XSYG4jXLRjnDPSNbYuqtEl+QazgUCfDuqup09anoOuhljODV5nW40XChvrzvbyMVkOPzTaQ7JqIVVu9blAv9wsVK4bjpX7ulU7m/ak7kj/Vrdqq6IBiKVAZTV8zJZKvHxXRhZ1+NTRgK261HWf1rdrc/taVY01rPEFz9aGn2qIE4FLDXGAC3gjCo97xCuVkhE38Ba4ywJwf0W/QVxaF0QdlSfE+eRXqRW/8NLjB8CQ7yQD5H+lLCDHH5+5ipaNaPslhWC/AQBryrIwugAewJYY4jFiLEWffjwW4r//WGzKZx38p+w/CXZJq0p/tjknybJekgvUciGLQoin2NfL76ddAqRsw1gWdeWv+9V4ZSUFvYVkHX2stK/q2jrQbC+pfvZ7+0z9ws8+rb4rx3vzqqx2bEG86gzvDuIGODby4UThhvgJ39xUNG6IC9D182wtAg8NgFPXpVZaNP4MxJm7o3Jc+UN+mAyQ/8XC+ehDvMGuP+ALjRLXq7eAXG4DN3VVbnVVDltvAAijxnrIhiMB6nnVuQ5JXx8m5jT3DXFd9kDKa/3SWSzXF5iai6u6vozEJsiul+37yX+un9tWffv+iNtXfdoyaSnXeKWU+2XdJ/VYn2apkyLV3rTqUhu8s70A7r5p6+JmpVN8W2EP8QB43JkSkbhTKX6GeKVTEtxOoyTQ3XYE4qghniB36gbVXGpfLF6fId9bFKjVmT/kr5LIY3OxUC+FVf95qFY+WCuekriLH6PgR5v5ebgrHnnL0xJvpr2fY17PYcmHan24nQ5Xt/HIW57Jcnc//6oQ+vigE/1h8m9+tods7fVpgAfC+juhfjwrpPAPOuudgjo/fwU/LZ8dbDv1BmzTL2tfTfTxfX7RVnX2j9VVuW/v+5Vtbevx6LOqo0/Vlbrc96v2Y7b6pUXW7ewDW8lzdZZjdR8RVges6YyPVJkJGejpo46MiZATtLZngi/pFEAuJU3Cs8adTgHmGXkXxA12oK46R+1APEHuN4W8W6Wica+35oRJO+SHyQD5ryJ6GdorgeMnJKLAXCDn5+EedtPhVkDnR5sF83j0rWAtkBfMAXnAvWCezy/nSYk88jZhfpCe8MhbnmXux98C83w64hQ/54DPtxwN9gL4J2Eu+MtyDlcdZdsVaGegz3WzrupYrizf2Glt635o1dUy6but87HQsLXJ1jrcXr60gLtYR9Z7eVQ+4nps9rOPrtv50/UpWZeRXDRWJqFsVRlQ9gB3XVqnORLkBi53llQkLgXGTpUA8ozGsZkbP0g3LifEfe94B3EeC+E3iIS4I3GU+TBRyQD5D5cB8l9JepjXjzbX73xWZF4/RuEfbgboM8z9oxT1S0Kl7Rf4eeQtzzCPn4jzExP5VaHHgLlBDsCBuiNy4B2wjicoCryqA8ifE5kHxGjjPI6y7QqUrU7nftVFn6zrfSwB38f6WbPcj9mts7W3urS1bGvvys1/zqbyoh3zq4y0MpJ9Snq/FxYtYNOJspRXIz7NyRreagPabJQBDmCBdw/xBDlRtQB+kMZthYC8NEEuyG+cTgHkwD8hzhgAnHF7iDO3yovXnIf8cBkg/9UkYc7h7x+hcGQuqK/TLETmBnr8IIVhLuUX+Qvijw3mPL88IM6PNwN0InOnWojIrfwghYBej8AlIgfcGY0X2L8U5s9ZDZA263rAFkRbn6zH70Fe1n716du75Wqsvm69zLFyvyyybkda3/SRvo/7df2RdV3fthaGbEDUZCi39Am2QM7OUZ3BWlFyAZzoWfAF5IDYqRGicKnBXWkVKdG3I/OK1GXp7yg+3whaOoX1sM7UAfG/RAbIfzHh5fDhn6/K4ocoAHr+GAX58sPdbnq8vVe0HTDnOeYRnUeuPKL0SLE43WKYSwvm/CDFXcGcaJw0S0TnkWpJkH8jzNmYeo435VbPOW9bdSoDSsMyy06jrOpt13WMlXVetuo6+6k6ll/UreuP2c5H+npexOZjVbYNs+jzjLAEF6bjzZ0vZ2FrUL+rSVUvH5DzBa+NARug5Sv3/ramASyYOwoHytge4hl1UwbkDeLSPgqvL/4Y4LxRSBvINRc0Jq0/Q36WDJD/gtLDHN8w51WqfLkjc4D+IJiTahHI8wcpuAgKtEmzcPETiBOZ80MUj1IufPJTcf5RCqLy/DV+fpTCmnnzljMnMqcOmzAHuuTOuRB6DOZM1sDHL0s/n+tdHdogiuq/4Zx1DdIfq5P2dZR7/3Pr8FtdlauudF2XPi9OzQXfVtL3OdbWW7/As1SJdInPUMDILteKnELRgryVAnOecgnIWyRueAu4wNx3lQBxgZhvYQJmR+OAPAHew9y3HpZP5I4Cfo3BF4gM8VpPQpyNqEgcf0D8p8sA+a8qcfbaFsxhgvPlBroK5MudZnnwLwyRM59hnlE4QK8Uiy98CuCA/GMwd2Se+fKMzB2NG9rxa0NQ5WMwBzNM2H5qK9Om877qDFPEUI2yWVBtrZ667Leoy3L51r5f1Wfdwu/asK2uq6+6nPfcP+v6vkhfbnUq24YJ2y0jyR6dRKMjcUe6lJmAVAB1BI5vqBIh8/hiIuaMmoEvP/zQ8uEJcj/wSqBuETmWMvDOtorAy/oWw4R4H4kzR+YWL1jaIT9bBsh/ZelhXhc/ic6dZpElzcKdLNyWCMiJzA1zVACvVEvdyYLPhU+11Q84A3PuZjHIgTq3JibMyZf3d7QU0IG24Q3E8QUp/JZyoWxwJdR7NbxQzvn0BcoG7ixjgxNVLl8222dbdf0YXb9jy7a+VdeVq++63xMrLRgzBrKu78uI/bJ6XavcCT2Bt3eKFyN1slGR6Fx1gmhAPNMoQNuRMo+eBeKANyB+kPqZKRVZO9LGdhA33AG56mkzvNGK5vONgRfkYxBHBsj/Ehkg/9UFiPMKFdQB+iJnfjDM93cCeuXMuaOFqNxQJzK/9S/zk17BB+JOszwXmTeYR5qlYK6PA0JKRuZAHF9QK4Ab9BWRl65hDpJk2RSAGH7aBs+sK8D29a2uK7f2tK7L8rFl+37lt7pV+ah9rk4KeW0l1WY/NchsP72FuK6BMZSoO9IpAF2+H0yVUbjhDcg76FYkrQh84+g79Swj7wbyhLijcNqltazHijeHeKPISNww905SGxZhnpi0Q366DJC/BDkC84rMSbWIndOjf40fmGfOnNsNAXnCvG5R9JeEAHqLzOkn/0YQvxPQ+eLQw0OmWqTkyxWZT5U3B+4Ct3+42TAPqH8WzIWhvl4VHIHpl+o/FsiCteDXXFf9zJKqo0/avl/yZlHncvXPco3V2o/0Q6qN/syt+vT91/UlXbtr7c8SPaNTtOfkfTshqZWIwiuNshFgDwI6P8EGaDeOuIGvVFAG4IcFyBPa+AC8YE65IvD6/U3AzRuC7z2vdXYQt9YGpB0Q/0tlgPylSAdzXjIYMadZyJnPaZZItWRkbphH3pwoPL4klN8IzZy5o/KKzInKpZt7ReLc1QLUHwG6onEgvojOIyoPkC9z5sAcv6AdfTjfKUc9G+HTH1/ArDoqw5/bWl2BNTk3t39Bnct9XfqtrspVt2pH8PtlEXzbrLePPgPvrsxrO1/EVLlNnDtR5ANyp08AKxEykfd5A/jmPCC8uUgwG9Kygvcmo29+DGJT0bf74bM88I7xIr8OwLsovIc4cxoQ/+VkgPwliSEeNlT/j8B84o4Wp1riPnNgfuB+c6JxQdy3IzpKF9gF8IJ55MwFcm5RdGQurbw56nvNFXEn0Oe8uaAtG98CnTUic053YA+0A9a9eiPsy606VJA0Hhp8qaOP/md71MdyC6i6X7aX3+rWbV0Zv42zqm/l3qaP9PVI+m513dwvPUu0kzKhiRx4lVkoI3FFxH5muEGeUbjhLQAD84S2IW4b4J4uCuQJb6dRqEt45zgB8IzCcx3xECx2kBSA29eceogPgP8yMkD+0kQvF68Yp1BdACVnvhfI424WlLtZFDVzR4tg7q/1KyoPqMsC9IS5IZ52vjURmEdkfiDFkjBH/U1QQZxUS0XnM8wrSgdDQLyAHuWI1gPWBezmI33ZOteVD1daXQ/zHuRdvydtrb7qqr0rN1+WNmRd/6SvlBfDViJ7oC19xCXqXZLFcZSLsOfoKKWOSJi9VblwA1aa4AXiM6DlX/JTbMBbZVnaNpcAnrLa3U/aA5wxPV7BG5sR+LEovNTzlh3yy8gA+UuUIICt3cyZ++InCtjzG6CRatlNj4I4UTkwx5Ibd958AfOI0P3tT9IswDyBHlH5Q9idQE7+HHDzTdCE+UIbwPWGcgi/pVs6mFuzzCZp4VaHH+DVf3zqOii7zu1Z1wN5AWfZvt+iz6r+WL/eIkfbUk05/W3lEMq5tC1a94j71kKvON4CicIBuS2A3Z5PB0HWd6QAbadOiKxfTVvBevPqTcD68k3A2xBPcMvfSuPulYQ449QFUuDNzwJ6PaxP8/B6vSP0n3JuyID4LysD5C9VjsCck6zuZjk8CqD+4lDkzAvmBrnz53lBlHw5IHekHhdAidoPN/mgLaJ0wXzTpVrioVsPis7JnyfMAXbeslipFkflBrpswtwgd6QO2NmOLBcQQZn8KGNVZZ3rqmw1Z7p686fK0R718tlBrb2zx4B+1HY+Yz2pUy0+km1Zsi0fOFbZ+W9Nipw4EBdZDXCnVARa/0SfYSsQEz07Ehe8E9jbV4D8rTQi8BnkWCJxgA/AI4oPcKOCuKPwAjhvHlo/8yE3XhvQoJ12QPyXlAHylywdzNE9+XJ87jEnQudboEC97jW/515zUi2zxt0tROPYhHpG5ntpfJ0/I3Ny56RZKm++E8i5TZF0S6ZcFtE50K7oXKAPfCW0XQfQYUNCurV1da2NyirLN5izLqPvHvpV5/IC7uVXv778XL/el0Xw6w0gxRCv/pT5Iz9sVPKZRDOlQuq3PLncE87emSFueBu0GUFnbtspE+Ct6HsinaJofPvmrYE+Jcg3l9FvugD+Wu6MCDzUtyq2CDwhDryJwBd58M6W5DYM+fVkgPylSwdzXkry5vBkTrVgBXQi80q3cBHUD93K6Pya6Bxoc0EUiAfUnWYpdWQugNctigb63bQlzUJkLqAvb1PsgR5ReoAdC8qyDMI0Yb0NiRPUA+SA8sHRepS9UaozSgTQvi60ympLHoHMBlvaqHddlq34VZZtcK422X68vm/5kkildD6ijSifllANpgnynssAe/lOoQjie0M8AMszUgK8AnlC3JE20fjrNwY4QN++VjT+WnUuR4Ru4HMXy7mW17IbQF4/xu03h4zA8dnRTqeg3oi0SFlJqxvyK8oA+f+C1Eso45fTQJdNrdw5efP6Wr/TLQJy3NmCCtykXgxt1VfO3BdAaUMD6I7OKzLP6LyAXtG5Uy4APGE+dSmXrQBNbFoXQYE35QL57MOPgnb43r5WF/XVFuVVXQ/y3lLPuuxXffWpcm+l9KdvLtfDe7OdoU0dtW6hXo63DLC7fk6lAHEDXCAn7bHPu1MMckN4hrhBTgQOyKVAPHzBG6grQkcdift2RECeUbhvKSyApwLnetdzNI7rjQofGQB/ETJA/r8i9TKW6e5oieicaHkfd7VkdE6qZbqrO1tQcuhE4gl0Ui0tKk+QC+KU435z3gjiQuj2QQDfCeqZarElKs90C/edO08OpA13AB6qCRq6rjMYsRycWabNPJnboi431n30P22Uu7rPAvVz9pk6zaVA7qcTZr16ZL9IJDFZ3rbwDW9vGE+roV5lom+iccOVL/mQFwfikRY5SLmgWWkTA/sNUXgHdNU5OielIjXAicalAfCAOA/XmiHO3LRjYmemRcpKWt2QX10GyP+HhJeSU8+vKH+s+t+ic74JKqzkhdCI0Ovr/QJ5qWAe954HyH3xE5gb8tj0KzLnC0SA/B6ocwFUEF/lzg3yLt3iqFwaUXpgDXAzYfsA0vijDaakbws8s86Nc12UE53Vhj0SgQenVNdAnxYpX23E10Tci/FyrBaVe0KuteYE2brZCqDeGkfh2vJMpVROHIAffFdJPSMFKCvCrlw44JadEuLbNwVyUirqpyh842i8InEeogXEecPg4imRf8zLXz5ijoht+iXVNuRFyAD5/5g8gTmCIULP6Dy+1r+MzgE6T1CcfEE0Uy6C+USUnhDHThWtc+GT6NwXQSM6910t7ev9AfN2MRSA7wLqjrQT6MyrUi4GOOo3oEi9AG8DXH8XcC/OUCeNHPuyrgG61WXZtvwqr+s7yzoZyzCXXyL/CchtK4Ui2QJsIvbYurqY2aJx6Z4Lm/nNSkfkvjsFMCvCdrQtYHNrIX7mxIH4tuXFMxIXyLcViQPxgrdA7micTwnMV/Pwj2+X1ibhD3mRMkD+PygFc05YYO6X2KqqjM59Nwtw584WgH6vyNx3tyh6xhfU28VQom/y5ralXVTuyJzUjODuvDkwV5QOyB2hC97WvCBKPp2cuUEeQG9wF+IiUme+KrMhtCWoqQfabAy4DPaorwEbtupsDdnZLqL4sgjW4E8fWfeN+yXtL9Iq1GXE3kC+UKDtpFKA20DltkL5wDwhTjqFiJxnpBjiTqckwAvojsYzxZIXNzeXfSTOc1e451yROHlvA1xzkh9zZd4Jcm9UlIe8bBkg/1+WemkN8yzbSnuYczGUb4M6Ms/cObcrKsomf05UTg597xx5B3R8onOicZQInTSLYO46InMBPG5VzLx5Qr3BHbD3UbrBHuBuAMfCGpc9eVvqoiwFtmyfoZttUu58ibool2+LuD6WmaPrsBG1ZrmLxrnNsC5ueh1Uul11HdCZJQAF5HusoGqQp7USffvWwItpj80v+rSLm5UXJxIXuCsnPikCN8j9xR8B/CIhTiTulEpG45pHpFE0RyYrh/m2iHzI/4QMkP+vS728ZVSGR3sBHOs7WlTHPeftYih3tVAmMscXlH0xFLAb5Alt+b446tQKwA+oB8yJ0OeonG+F8sv99gviHdAjQtdcCuqen+aQUTrploA7G1JpF+rCGvLBKfts3LNl+tsvW3VzvXPiiHwD29E6jnpWe6sD6lqWCNi++hjcAXGroGqAKwo3wMmJn6IZiQN07lARyP3UQl/gjNy4LdE5KRVH4NRLMye+FcS5vXCGuOah9cXcSKvEHEPStvKQ/wUZIP8biOFtG2U7Vv13qgWAhjXY60Koomh+Uo7nrfgiKFB3yoVUCj6ROXCv1Apl/IjQ4wcrBG7KpFis6Qvw8Qv+vIEE0Lf4FaFnyoU5RcqFyVLnSS9BDqgj/k0+UQ478wuQswxLpe+2sAHqVOoMv2gzuA3FaC+wh5WjvkS+ZR2VUw+8gTi+AOtUCiAH4lJH4Ab4eT5yVhAnEiffndE4KRVAjhriAn1YLdty4meRE+fCptYVIJdqsp5fSe2MtlOG/K/IAPnfRArmTXjVVWeQ898wl1LvyDxy55FyEbQBN5bIGx9wZ6RukAN6wC0bZUB+HxB3qgYLxFGBuvLnpFvwBfH4QhEpGKLygHpLtdCGBdpYIM38DXmQBbxjG8NHliCPjQPKrom6AnrayB1nXbCQSmnV6Y8hH22VSilwVzRuPwGO/0iumvu5FTlzcfMAvCmTD+c2Q+775iv1F68Fc/yIug1wonPa8vbC+rKPIa7xuL1wcxrrI52yZV35plLCdmkLcvuG/K/JAPnfTbqX2y5/rPpfkbnK9SUigL555E6XgLkvjso6d15AT6gHzAPgUQbeCfiEeTx4S+NUZC6Nu1uAO+PLF9R9yyIRO+CusoGusmzc6RIK0ANTKgNq6thAfAHYb2IFYrYVXzJH5RTwVcg6XKCM4+ibsYhyO4gD74OqDHHqDe+yM8QPgq3z46RS8BWJG+RSour4wg8Qr7QK+fGsw3edInEBnmXqHvGAeOTCUXwmG/l7Jhgy8uH/+zJA/jeUesk5tQ05PNmIzlH9J81BXQO6LHlz1ceXiYBxRuktUk+o3ybADe8lyP1YXPo7Oo/cueFuiCfIgXqlWwTlA1F7RuaGegO42lQvnHIga2sAOJOnnvQLm5JQp7/LbK/6ROXMNwOaMVRnn14q2692/RfMI6WiP8D6RP16kKs9omNB9SzSKYdMqziFAsgBMCkVQzxA7igcSHcQr7a4IwU/4a03hLqwybq3DeI5p9yoFn23jRzyvyoD5H9TCYB3Av9cJzAJgihco66+FeqHcQH1hLkBnhH6BguQuyh9AXPbALkj8gS5AY/tYB6pFmDOegPo+E6vUNfSLQBdZUOdyWKl3hi1xUYFx7LsbTaw4VtYi3wDGk2QuzNWbMR3lAuoDfFQwO18NCA12KUAVjAPC3hPp72UKDrSKQHtg8ozzENJsRCZA26i762Brn7AG5BrnIj0yYnnOgveA+J/Wxkg/7tL9/Lj+rSX48OCpkq1AE35LUJPuHNR1BAnWgfEAB5wZ9SN3bgOiBe0ieDn1ApKWsVvBGhF5AV2w3wJ8haZG+oCtH0gLovvOm9A+GyYbWybYd8Yp7LhLRdDZ/tE2zIFdoNadRQNUTkC9wLmjsBlFY0buFIicj+0CiA7IsdGhO1UiVMmAXf3AdiAnYuhCe/KhQfEC+CZUkFUbrcZlgyI/21kgHyIJeCWYnbnYYHtL4i6DMjl9xG6QE7U7NsXDfSEusAMzA1lonVADdBVBuwGuMtzP+fK6Vcwt43xHZ0DcgBuq3lI6yv/VWbCfWQeEbuUjXQdbpQBd0Xj2eAUChWVRsEalg3gaMIbqJJOoWx4q842AS4b8JZvjRRL3bFSgLclYq++ROE1DhE41hcytR7mkPDmk8KTPHjvD/mflwHyIUvJw6ExrwBIteycR5c2oIca9IAc4DpCB+xAmPqEMnWOzAPqBjuQznZ/GUnW0CY37jGyjvGBOhBnnYY565VNiNfFUDRAnhAvv0XkKSob5LhUpvq2PeopA0yDU+WEqIF+Kh94U2fgqs71AXKnUVpkjh+QbhF6g3taR/Nz9M2951v5cTcKEGddisJlneaRttsLPfmU3h/yt5AB8iHHJQ+LgJ7AIBtQj7aIzrMfMDVY5dvOgA+QC8YCM1B2XcK7InD6uC19rFMn7iOYZ2rFY6BE4l4PVgq0pW63H3Nigi0S71IsM8hVLyfyyfgJdECNTzVtgNQQx5cKsH1qJQAu0MoHvnU3yQGI049yD/Pmp3UZcEfU7TE8HutAtQ585uK7UioKZxuosxPS+0P+NjJAPuR5yUOjjhAjQoUe6KUN7AVzg1XWMBdsaXeZCBtoB4QL9AHvAD/gdh/AnFCPZeVnNH5wikVWii2Qs15H5ppMgzhqkCfn6LOSuMUQBzDCTmCZZUAuWyA3xA1ZlfuInDrbuVwXPVt+2+DOOvway0o/oC3ryJu7X7QO4E19TMxz0h5XiTZpSe8P+VvJAPmQjwqHR48HjhaX67DB8h9QUzRUAbsqAS7ttAFi6tI3wPEFbAMYTXgvwG2bdfQnCveyjBUReBsf3+tTPZOh3pNLqFtie+Kwj7qIyCWGZriVsnAKA3gD9rQBcIF37RvO5acVlJ1K6YHdygCbMQRtR/VSyryrZL3nQ9nzkPWc5a+hPSD+t5YB8iGfJXWYFC4o4lNf1oxpNqJl+wawHJR6Qz01Qe2+8iMPntG1ob1qo65BPdUwj7EpB7RZH23hF8jbXO3L1gYVCMsImoY4YrgSiQNX1RmyZQGwLApweyC36BobF0Mr183zV9q3MYm8PT7g1rgoyxTA9b/VM3UsUnbI314GyId8nfSHjXyKYCWAjka9BSuo1uMAFvClHpjTx4CmLmzkvFeWeiLuHM8pFPukU2ps5pNA77S4xxwN8V6y0YY/TdVf1jlyCgZvWMMc2Brw2AQxtur6+oI+y7g+favWSx39cj2us8jxXKKCmbdPEUOGSAbIh3yb5OFTh5GQl6BUHVBFaKp+CVq+i2P4Um84J8yxwJzInfb0C/pznxnkrY5++Pof64g2/rnsGeCWT8cUgbHB0dDMVuoNbK3JJi80NpijNHT+uq6BXH5vm67LsV6mv5hTb4cM6WSAfMi3y+oQMoDSp+BDTGrIJ1RDo91QlgG8EUmrGjCrQ0TgAe7o64XCqhzLlF2BXMZlV5Tfzc2SbRI8X9SkADD5bxs+1qPKFtyfQLlBvNqyvQCfy3u8LHu9NQ4lbE3LdSm9P2RIJwPkQ76bGKjpN+mPLrUX1HXopc0yLlLA9v8ANOWI2NUu3+irZbK9lH9Y3jRafZPwl3Oc2/EK5BEJy7OVYvu6Aq/r6NLXZdkKrCUFd5QVrMFtSdvKKevykCErGSAf8uPk2KFVVWor8C8OQfzUavcyXX1UqKWrq3FqGfOyq0fwkSr30lIYyMJXfwx1VW9LOf2+3pq++2CzXNrgnW1I9evlWN2QIUdkgHzIz5Fjh5nqArYBrPBX1k74+kO3zgYKn11uVYdk9fPSw7PGwK16bFS09vC79rLNl9YyyNqWrMtDhnymDJAP+WukO+yeQLY/IqufbN9PpdlXfS0bfpT6+l5qnF6eZWjfcAzAx+pKPqffseWGDPlCGSAf8tfJc4ee62fA1SHaI8+QXlakE+L29Hv52OG+SK/08in4fg6Mj/X5nOWGDPkMGSAf8uvIRw7FJZhn72PAflL/JdzUVGo2M+BX8/tSOA9wD/lBMkA+5JeW50B9TOpQ/iG4/BIID2AP+ckyQD7kf0N+5mE8QD3kF5MB8iFDhgx54ZLfVhgyZMiQIS9VBsiHDBky5IXLAPmQIUOGvHAZIB8yZMiQFy4D5EOGDBnywmWAfMiQIUNeuAyQDxkyZMgLlwHyIUOGDHnhMkA+ZMiQIS9cBsiHDBky5IXLAPmQIUOGvHAZIB8yZMiQFy4D5EOGDBnywmWAfMiQIUNeuAyQDxkyZMgLlwHyIUOGDHnhMkA+ZMiQIS9cBsiHDBky5IXLAPmQIUOGvHAZIB8yZMiQFy4D5EOGDBnywmWAfMiQIUNeuAyQDxkyZMgLlwHyIUOGDHnhMkA+ZMiQIS9cBsiHDBky5IXLAPmQIUOGvHAZIB8yZMiQFy4D5EOGDBnywmWAfMiQIUNeuAyQDxkyZMgLlwHyIUOGDHnhMkA+ZMiQIS9cBsiHDBky5IXLAPmQIUOGvHAZIB8yZMiQFy4D5EOGDBnywmWAfMiQIUNeuAyQDxkyZMgLlwHyIUOGDHnhMkA+ZMiQIS9cBsiHDBky5IXLAPmQIUOGvHAZIB8yZMiQFy4D5EOGDBnywmWAfMiQIUNeuAyQDxkyZMgLlwHyIUOGDHnhMkA+ZMiQIS9cBsiHDBky5IXLAPmQIUOGvGiZpv8fO4r9FxKj0CAAAAAASUVORK5CYII=;" vertex="1" parent="ptZlQ6mGTicB-fKNkLHr-7">
          <mxGeometry y="63" width="370" height="314" as="geometry" />
        </mxCell>
        <mxCell id="ptZlQ6mGTicB-fKNkLHr-5" value="filter: blur(5px);" style="text;html=1;align=center;verticalAlign=middle;resizable=0;points=[];autosize=1;strokeColor=none;fillColor=none;" vertex="1" parent="ptZlQ6mGTicB-fKNkLHr-7">
          <mxGeometry x="135" width="100" height="30" as="geometry" />
        </mxCell>
        <mxCell id="ptZlQ6mGTicB-fKNkLHr-8" value="添加模糊" style="html=1;shadow=0;dashed=0;align=center;verticalAlign=middle;shape=mxgraph.arrows2.arrow;dy=0.6;dx=40;notch=0;fillColor=#dae8fc;strokeColor=#6c8ebf;" vertex="1" parent="1">
          <mxGeometry x="510" y="330" width="230" height="70" as="geometry" />
        </mxCell>
      </root>
    </mxGraphModel>
  </diagram>
</mxfile>
